<svg width="1024" height="1024" viewBox="0 0 21 4" fill="#ffffff" xmlns="http://www.w3.org/2000/svg">
<path d="M3.01347 1.96392C2.91961 2.00625 2.82299 2.04122 2.72361 2.06882C2.62607 2.09459 2.52761 2.11943 2.42822 2.14336C2.42454 2.14336 2.41442 2.1452 2.39786 2.14888C2.38313 2.15256 2.36749 2.15716 2.35093 2.16268C2.33436 2.16636 2.31872 2.17004 2.304 2.17372C2.29111 2.17557 2.28467 2.17649 2.28467 2.17649C2.26259 2.16912 2.2405 2.16912 2.21842 2.17649C2.19817 2.18201 2.17701 2.18937 2.15492 2.19857C2.13468 2.20777 2.1126 2.21513 2.08867 2.22065C2.06475 2.22434 2.03806 2.21973 2.00861 2.20685C2.00309 2.20501 1.99297 2.20685 1.97825 2.21237C1.96352 2.21605 1.9488 2.22158 1.93408 2.22894C1.91935 2.2363 1.90647 2.2455 1.89543 2.25654C1.88439 2.26574 1.87794 2.27403 1.8761 2.28139L1.89267 2.29795C1.89451 2.30347 1.89175 2.31452 1.88439 2.33108C1.87702 2.3458 1.86874 2.36237 1.85954 2.38077C1.85034 2.39733 1.84022 2.41298 1.82917 2.4277C1.81997 2.44242 1.81261 2.45163 1.80709 2.45531C1.80893 2.47187 1.80433 2.49211 1.79329 2.51604C1.78408 2.53812 1.77304 2.56205 1.76016 2.58781C1.74912 2.61358 1.73807 2.64027 1.72703 2.66787C1.71783 2.69548 1.71323 2.72124 1.71323 2.74517C1.71323 2.75253 1.71415 2.75989 1.71599 2.76725C1.71783 2.77462 1.71783 2.78106 1.71599 2.78658L1.71323 2.7921C1.69482 2.80682 1.68102 2.82615 1.67182 2.85007C1.66446 2.87216 1.65802 2.89608 1.6525 2.92185C1.64881 2.94577 1.64329 2.9697 1.63593 2.99362C1.63041 3.01755 1.62029 3.03871 1.60557 3.05712V3.05988L1.6028 3.06264C1.57888 3.07368 1.55864 3.07552 1.54207 3.06816C1.52735 3.0608 1.51355 3.04976 1.50066 3.03503C1.48962 3.02031 1.47858 3.00375 1.46754 2.98534C1.45833 2.9651 1.44729 2.94761 1.43441 2.93289C1.42705 2.90896 1.42429 2.88872 1.42613 2.87216C1.42797 2.85375 1.43625 2.83535 1.45097 2.81694L1.45649 2.81418C1.44545 2.79946 1.44177 2.78658 1.44545 2.77554C1.45097 2.76265 1.45649 2.75069 1.46201 2.73965C1.46938 2.72861 1.47398 2.71756 1.47582 2.70652C1.4795 2.69364 1.47398 2.67891 1.45925 2.66235L1.46477 2.65683C1.4887 2.6329 1.50158 2.60622 1.50342 2.57677C1.50526 2.54549 1.50342 2.5142 1.4979 2.48291C1.49422 2.45163 1.49146 2.42034 1.48962 2.38905C1.48962 2.35776 1.49882 2.32924 1.51723 2.30347L1.51999 2.30071C1.52183 2.28967 1.51447 2.27495 1.4979 2.25654C1.48134 2.23814 1.46846 2.22434 1.45925 2.21513C1.44821 2.24274 1.43349 2.25746 1.41508 2.2593C1.39852 2.2593 1.3792 2.25654 1.35711 2.25102C1.33687 2.2455 1.31662 2.2409 1.29638 2.23722C1.27613 2.23354 1.25773 2.23998 1.24117 2.25654L1.22736 2.26759L1.22184 2.25654C1.21448 2.23998 1.20436 2.2317 1.19148 2.2317C1.18043 2.22986 1.16755 2.22986 1.15283 2.2317C1.13074 2.23354 1.10958 2.23538 1.08933 2.23722C1.07093 2.23722 1.0516 2.23722 1.03136 2.23722C1.02032 2.22802 1.00744 2.22434 0.992712 2.22618C0.979829 2.22802 0.966026 2.22986 0.951303 2.2317C0.93842 2.23354 0.924617 2.23446 0.909894 2.23446C0.897011 2.23262 0.884128 2.22434 0.871246 2.20961C0.858363 2.21513 0.838118 2.23722 0.810512 2.27587C0.782906 2.31267 0.75346 2.35408 0.722173 2.40009C0.692727 2.4461 0.664201 2.49119 0.636595 2.53536C0.610829 2.57769 0.593345 2.60714 0.584143 2.6237C0.576781 2.63474 0.567579 2.64855 0.556537 2.66511C0.547335 2.68168 0.537213 2.69916 0.52617 2.71756C0.515128 2.73413 0.505006 2.75069 0.495804 2.76725C0.486602 2.78198 0.47924 2.79486 0.473719 2.8059L0.47648 2.81418C0.47648 2.83259 0.473719 2.84731 0.468198 2.85835C0.462677 2.86756 0.455315 2.87584 0.446113 2.8832C0.438751 2.88872 0.43139 2.89424 0.424028 2.89976C0.416667 2.90344 0.410225 2.90804 0.404704 2.91357C0.389981 2.91357 0.378938 2.91725 0.371577 2.92461C0.364215 2.93197 0.357774 2.94025 0.352253 2.94945C0.346731 2.95866 0.34029 2.96694 0.332928 2.9743C0.323726 2.98166 0.309923 2.98534 0.291519 2.98534C0.284158 2.99454 0.279557 3.00098 0.277716 3.00467C0.275876 3.00835 0.273115 3.01571 0.269435 3.02675C0.265754 3.03963 0.262993 3.04884 0.261153 3.05436C0.257472 3.05988 0.254711 3.06356 0.252871 3.0654C0.24919 3.06908 0.245509 3.07184 0.241829 3.07368C0.238148 3.07736 0.234467 3.08196 0.230786 3.08748C0.219744 3.08932 0.211462 3.08748 0.205941 3.08196C0.20042 3.07644 0.194898 3.06908 0.189377 3.05988C0.183856 3.05252 0.179255 3.04423 0.175574 3.03503C0.170053 3.02767 0.163612 3.02215 0.15625 3.01847L0.159011 3.01019C0.195819 2.9016 0.239988 2.79854 0.291519 2.701C0.343051 2.60162 0.398263 2.50316 0.457155 2.40562C0.460836 2.39825 0.463597 2.39089 0.465437 2.38353C0.467278 2.37617 0.470038 2.36881 0.473719 2.36145C0.482921 2.33752 0.492123 2.31452 0.501325 2.29243C0.512367 2.27035 0.52525 2.24918 0.539973 2.22894C0.552856 2.20869 0.563899 2.18937 0.573101 2.17096C0.584143 2.15256 0.594265 2.13324 0.603467 2.11299L0.597946 2.10747C0.539053 2.05962 0.487522 2.01085 0.443352 1.96116C0.401023 1.90963 0.360534 1.85165 0.321886 1.78724C0.312684 1.77068 0.303482 1.75411 0.29428 1.73755C0.285078 1.71915 0.275876 1.70258 0.266674 1.68786L0.263913 1.6851C0.263913 1.64829 0.266674 1.61148 0.272195 1.57467C0.277716 1.53787 0.29428 1.50566 0.321886 1.47805L0.324647 1.47529V1.47253C0.333849 1.45413 0.343971 1.44033 0.355013 1.43112C0.366056 1.42192 0.377098 1.41456 0.38814 1.40904C0.401023 1.40352 0.413906 1.39892 0.426789 1.39524C0.439672 1.38971 0.452554 1.38143 0.465437 1.37039V1.36763C0.507766 1.34923 0.549175 1.33358 0.589664 1.3207C0.630153 1.30782 0.673403 1.31334 0.719413 1.33726L0.724934 1.3345C0.741497 1.3253 0.761742 1.3207 0.785667 1.3207C0.809592 1.31886 0.830757 1.31794 0.849161 1.31794C0.860203 1.32346 0.871246 1.33082 0.882288 1.34002C0.895171 1.34738 0.907133 1.35475 0.918176 1.36211C0.931059 1.36947 0.943941 1.37499 0.956824 1.37867C0.969707 1.38235 0.98167 1.38143 0.992712 1.37591H0.995473V1.37315C1.01388 1.35475 1.0286 1.32898 1.03964 1.29585C1.05068 1.26089 1.06173 1.22408 1.07277 1.18543C1.08565 1.14678 1.09946 1.10905 1.11418 1.07224C1.1289 1.0336 1.14915 1.00047 1.17491 0.972863C1.17491 0.967342 1.17859 0.95538 1.18595 0.936976C1.19332 0.916731 1.20068 0.894646 1.20804 0.870721C1.21724 0.844955 1.22368 0.82011 1.22736 0.796185C1.23288 0.770419 1.23288 0.749255 1.22736 0.732691L1.25221 0.735452C1.25957 0.72809 1.26417 0.721649 1.26601 0.716127L1.26325 0.707846C1.25589 0.700484 1.25313 0.691282 1.25497 0.68024C1.25681 0.669197 1.25957 0.659075 1.26325 0.649873H1.26049L1.25773 0.638831C1.26325 0.63699 1.27337 0.633309 1.2881 0.627788C1.30466 0.622267 1.32122 0.615826 1.33779 0.608464C1.35435 0.601102 1.36907 0.594661 1.38196 0.58914C1.39668 0.583619 1.40496 0.580858 1.4068 0.580858C1.43257 0.595581 1.44637 0.612145 1.44821 0.630549C1.45189 0.648953 1.45097 0.671038 1.44545 0.696803C1.44361 0.709686 1.44269 0.720728 1.44269 0.72993C1.44453 0.737292 1.44545 0.746494 1.44545 0.757536C1.44545 0.77594 1.44085 0.798945 1.43165 0.826551C1.42245 0.852317 1.4114 0.879923 1.39852 0.909369C1.38748 0.938816 1.3746 0.966422 1.35987 0.992188C1.34515 1.01795 1.33227 1.03912 1.32122 1.05568V1.07224C1.32122 1.11089 1.3157 1.15138 1.30466 1.19371C1.29362 1.2342 1.27981 1.27469 1.26325 1.31518C1.24669 1.35567 1.22828 1.39524 1.20804 1.43388C1.18963 1.47253 1.17123 1.50934 1.15283 1.54431C1.13994 1.56639 1.12614 1.59216 1.11142 1.6216C1.09669 1.64921 1.08197 1.67774 1.06725 1.70718C1.05437 1.73663 1.0424 1.767 1.03136 1.79828C1.02216 1.82773 1.01572 1.85442 1.01204 1.87834V1.8811L0.943021 2.01085C0.950383 2.02005 0.961425 2.02833 0.976148 2.03569C0.992712 2.04122 1.00928 2.04674 1.02584 2.05226C1.04424 2.05778 1.06173 2.06238 1.07829 2.06606C1.09669 2.0679 1.11234 2.06882 1.12522 2.06882C1.14547 2.06882 1.16203 2.07066 1.17491 2.07434C1.18963 2.07618 1.20436 2.08539 1.21908 2.10195L1.2246 2.10747H1.23012C1.24485 2.10379 1.25773 2.10195 1.26877 2.10195C1.27981 2.10195 1.2927 2.10195 1.30742 2.10195C1.32214 2.10563 1.33595 2.10655 1.34883 2.10471C1.36355 2.10287 1.37828 2.10103 1.393 2.09919L1.39024 2.11851C1.39944 2.12771 1.4068 2.13416 1.41232 2.13784C1.42153 2.12311 1.43257 2.10839 1.44545 2.09367C1.45281 2.10471 1.45925 2.11299 1.46477 2.11851C1.4703 2.11483 1.47674 2.10747 1.4841 2.09643C1.4933 2.08539 1.49974 2.07986 1.50342 2.07986L1.50618 2.0771L1.50894 2.07986C1.54207 2.09091 1.57244 2.09459 1.60004 2.09091C1.62765 2.08723 1.65802 2.08539 1.69114 2.08539C1.69667 2.0725 1.70403 2.06238 1.71323 2.05502C1.72427 2.04766 1.73347 2.0403 1.74083 2.03293C1.75004 2.02373 1.75556 2.01453 1.7574 2.00533C1.75924 1.99613 1.75464 1.98324 1.7436 1.96668L1.74083 1.96116C1.74083 1.96116 1.7436 1.95564 1.74912 1.94459C1.75648 1.93355 1.76384 1.92159 1.7712 1.90871C1.77856 1.89398 1.785 1.8811 1.79053 1.87006C1.79789 1.85902 1.80249 1.85165 1.80433 1.84797C1.84114 1.78724 1.87334 1.72559 1.90095 1.66301C1.92856 1.5986 1.94236 1.5305 1.94236 1.45873V1.4394C1.94604 1.43756 1.94972 1.43664 1.9534 1.43664C1.98101 1.4256 1.99573 1.41088 1.99757 1.39247C1.99941 1.37223 1.99849 1.35107 1.99481 1.32898C1.99113 1.3069 1.99113 1.28481 1.99481 1.26273C2.00033 1.24064 2.01966 1.22132 2.05278 1.20475L2.0583 1.20199L2.06106 1.19647C2.07211 1.16887 2.08131 1.14126 2.08867 1.11365C2.09787 1.08421 2.10799 1.05568 2.11904 1.02808C2.154 0.945257 2.17977 0.855998 2.19633 0.760297C2.20001 0.738212 2.2083 0.718888 2.22118 0.702324C2.2359 0.68392 2.25063 0.666437 2.26535 0.649873C2.28007 0.631469 2.29295 0.613065 2.304 0.594661C2.31688 0.574417 2.32332 0.552332 2.32332 0.528407C2.32332 0.513683 2.32148 0.503561 2.3178 0.49804V0.489758L2.32332 0.486998C2.36013 0.468594 2.38866 0.445589 2.4089 0.417983C2.42914 0.390377 2.43927 0.355409 2.43927 0.31308C2.43927 0.307559 2.43835 0.297436 2.43651 0.282713C2.43651 0.26799 2.43467 0.258788 2.43098 0.255107C2.44755 0.244065 2.46503 0.229342 2.48344 0.210938L2.48896 0.213698C2.52393 0.239464 2.54509 0.26615 2.55245 0.293756C2.56165 0.319521 2.56349 0.346207 2.55797 0.373813C2.55429 0.401419 2.54785 0.429945 2.53865 0.459392C2.52945 0.488838 2.52485 0.519205 2.52485 0.550491L2.52208 0.553252C2.49448 0.601102 2.47239 0.655394 2.45583 0.716127C2.43927 0.776861 2.43098 0.835753 2.43098 0.892806C2.41074 0.892806 2.39786 0.897407 2.39234 0.906609C2.38866 0.915811 2.38497 0.927773 2.38129 0.942497C2.37945 0.95538 2.37577 0.969183 2.37025 0.983906C2.36657 0.998629 2.35553 1.01151 2.33712 1.02255L2.34265 1.03084C2.34265 1.03452 2.34265 1.03728 2.34265 1.03912C2.34449 1.04096 2.34541 1.04372 2.34541 1.0474C2.34541 1.05844 2.34265 1.06856 2.33712 1.07777C2.3316 1.08513 2.32608 1.09341 2.32056 1.10261C2.31504 1.10997 2.31136 1.11825 2.30952 1.12746C2.30952 1.13666 2.31412 1.14678 2.32332 1.15782C2.33068 1.16887 2.33528 1.17531 2.33712 1.17715H2.30676C2.27731 1.2342 2.25063 1.29217 2.2267 1.35107C2.20278 1.40996 2.18069 1.46977 2.16045 1.5305C2.14388 1.58204 2.1264 1.63265 2.10799 1.68234C2.08959 1.73203 2.06751 1.7808 2.04174 1.82865V1.83693C2.0583 1.86822 2.05922 1.89306 2.0445 1.91147C2.03162 1.92987 2.01689 1.94644 2.00033 1.96116C1.98561 1.97404 1.97549 1.98692 1.96996 1.99981C1.96444 2.01269 1.97733 2.02925 2.00861 2.0495C2.03254 2.02557 2.05462 2.01729 2.07487 2.02465C2.09511 2.03201 2.11996 2.03938 2.1494 2.04674C2.15492 2.04122 2.15953 2.03661 2.16321 2.03293C2.16873 2.02741 2.17701 2.02649 2.18805 2.03017C2.18989 2.03201 2.19173 2.03385 2.19357 2.03569C2.19541 2.03569 2.19725 2.03661 2.19909 2.03846C2.21014 2.02189 2.22026 2.01269 2.22946 2.01085C2.23866 2.00901 2.24787 2.00993 2.25707 2.01361C2.26627 2.01729 2.27547 2.02097 2.28467 2.02465C2.29388 2.02833 2.30308 2.02741 2.31228 2.02189C2.3178 2.01821 2.32148 2.01269 2.32332 2.00533C2.32516 1.99613 2.32792 1.98784 2.3316 1.98048C2.35921 2.00809 2.38221 2.02189 2.40062 2.02189C2.42086 2.02005 2.43927 2.01453 2.45583 2.00533C2.47423 1.99429 2.49172 1.98416 2.50828 1.97496C2.52669 1.96576 2.54785 1.96668 2.57178 1.97772C2.59202 1.97772 2.61226 1.97588 2.63251 1.9722C2.65459 1.96668 2.67576 1.96208 2.696 1.9584C2.74937 1.9492 2.80183 1.94183 2.85336 1.93631C2.90489 1.93079 2.95734 1.93263 3.01071 1.94183L3.01347 1.96392ZM0.89057 1.43388C0.874006 1.43388 0.858363 1.4348 0.84364 1.43664C0.830757 1.43848 0.818794 1.44493 0.807752 1.45597C0.805911 1.45413 0.804071 1.45321 0.802231 1.45321C0.730455 1.43296 0.66144 1.43664 0.595185 1.46425C0.528931 1.49186 0.471879 1.53142 0.424028 1.58296L0.418507 1.60504C0.416667 1.61056 0.415746 1.617 0.415746 1.62437C0.415746 1.62989 0.415746 1.63449 0.415746 1.63817C0.415746 1.67314 0.424028 1.70534 0.440592 1.73479C0.451634 1.75687 0.464517 1.77528 0.47924 1.79C0.495804 1.80472 0.513288 1.81853 0.531692 1.83141C0.551936 1.84429 0.57126 1.85718 0.589664 1.87006C0.609909 1.88294 0.628313 1.89858 0.644876 1.91699C0.681684 1.91699 0.70653 1.90779 0.719413 1.88938C0.734136 1.86914 0.744258 1.84613 0.749779 1.82037C0.757141 1.79276 0.764502 1.76516 0.771864 1.73755C0.779226 1.70994 0.794869 1.68786 0.818794 1.6713C0.820635 1.6713 0.821555 1.6713 0.821555 1.6713C0.821555 1.66945 0.822475 1.66853 0.824315 1.66853C0.816954 1.65013 0.816954 1.63173 0.824315 1.61332C0.833517 1.59492 0.84364 1.57651 0.854682 1.55811C0.867565 1.53971 0.877687 1.52038 0.885049 1.50014C0.894251 1.47989 0.896091 1.45781 0.89057 1.43388Z" fill="white"/>
<path d="M4.60634 2.14336C4.58977 2.15992 4.57689 2.1728 4.56769 2.18201C4.56033 2.19121 4.55297 2.20041 4.5456 2.20961C4.54008 2.21697 4.53272 2.22526 4.52352 2.23446C4.51616 2.24366 4.5042 2.25746 4.48763 2.27587C4.47291 2.29059 4.45911 2.30623 4.44622 2.3228C4.43334 2.33936 4.41862 2.35408 4.40205 2.36697C4.37997 2.36145 4.36249 2.36421 4.3496 2.37525C4.33856 2.38629 4.32752 2.39917 4.31648 2.4139C4.30727 2.42678 4.29807 2.43966 4.28887 2.45255C4.28151 2.46359 4.27139 2.46819 4.2585 2.46635C4.21433 2.49027 4.17016 2.51144 4.12599 2.52984C4.08182 2.54641 4.03949 2.57125 3.99901 2.60438L3.97692 2.58229L3.68982 2.72032C3.68062 2.724 3.67141 2.72953 3.66221 2.73689C3.65301 2.74425 3.64381 2.75069 3.63461 2.75621C3.59412 2.7783 3.55179 2.79854 3.50762 2.81694C3.46529 2.83351 3.42296 2.84915 3.38063 2.86387L3.34474 2.87492C3.35947 2.91173 3.35947 2.93749 3.34474 2.95221C3.33002 2.96694 3.30886 2.97798 3.28125 2.98534C3.25364 2.99086 3.22328 2.99454 3.19015 2.99638C3.15702 2.99822 3.13126 3.00467 3.11285 3.01571C3.09077 3.01203 3.06776 3.01019 3.04384 3.01019C3.02175 3.01203 2.99875 3.01479 2.97482 3.01847C2.94906 3.02215 2.92513 3.02399 2.90305 3.02399C2.88096 3.02399 2.85704 3.02123 2.83127 3.01571H2.82575C2.79446 3.03043 2.76686 3.03319 2.74293 3.02399C2.72085 3.01663 2.7006 3.00375 2.6822 2.98534C2.6638 2.9651 2.64631 2.94209 2.62975 2.91633C2.61502 2.88872 2.59938 2.86387 2.58282 2.84179C2.57178 2.82707 2.55797 2.8059 2.54141 2.7783C2.52485 2.75069 2.51104 2.72124 2.5 2.68996C2.48712 2.65867 2.47976 2.62738 2.47792 2.5961C2.47423 2.56297 2.48068 2.53444 2.49724 2.51052C2.5138 2.48659 2.52761 2.46083 2.53865 2.43322C2.54785 2.40562 2.55245 2.37341 2.55245 2.3366C2.55245 2.32372 2.55245 2.31175 2.55245 2.30071C2.55061 2.28967 2.54969 2.27771 2.54969 2.26482C2.55889 2.26482 2.56901 2.26574 2.58006 2.26759C2.5911 2.26759 2.60122 2.26759 2.61042 2.26759C2.62147 2.26574 2.62975 2.26206 2.63527 2.25654C2.64263 2.24918 2.64631 2.23722 2.64631 2.22065C2.64631 2.21145 2.64263 2.20409 2.63527 2.19857C2.62975 2.19305 2.62607 2.18753 2.62423 2.18201C2.63527 2.16544 2.64539 2.15256 2.65459 2.14336C2.66564 2.13232 2.67484 2.12219 2.6822 2.11299C2.68956 2.10195 2.69508 2.08999 2.69876 2.0771C2.70244 2.06238 2.70152 2.04306 2.696 2.01913C2.71809 1.98048 2.74385 1.94644 2.7733 1.91699C2.80459 1.8857 2.83679 1.85718 2.86992 1.83141C2.90305 1.8038 2.93709 1.77712 2.97206 1.75135C3.00703 1.72559 3.04016 1.69798 3.07144 1.66853C3.10641 1.68326 3.13402 1.68326 3.15426 1.66853C3.17635 1.65381 3.19567 1.63817 3.21223 1.6216C3.2288 1.6032 3.24536 1.58848 3.26193 1.57743C3.27849 1.56639 3.30057 1.57099 3.32818 1.59124L3.3337 1.59676C3.38339 1.54707 3.43308 1.52498 3.48277 1.5305C3.5343 1.53603 3.57755 1.55259 3.61252 1.5802C3.64933 1.6078 3.67326 1.64001 3.6843 1.67682C3.69534 1.71178 3.68522 1.73571 3.65393 1.74859C3.67418 1.76884 3.6843 1.79276 3.6843 1.82037C3.6843 1.84797 3.67694 1.8719 3.66221 1.89214C3.64565 1.91423 3.63093 1.93723 3.61804 1.96116C3.607 1.98324 3.59504 2.00717 3.58216 2.03293C3.56375 2.07526 3.54351 2.11575 3.52142 2.1544C3.49934 2.19121 3.46805 2.2225 3.42756 2.24826C3.39443 2.23906 3.37143 2.24274 3.35855 2.2593C3.3475 2.27587 3.33922 2.29427 3.3337 2.31452C3.32818 2.33292 3.32174 2.34764 3.31438 2.35868C3.30702 2.36973 3.29137 2.36605 3.26745 2.34764L3.26193 2.34212L3.2564 2.34764C3.24168 2.36237 3.22972 2.37893 3.22052 2.39733C3.21316 2.41574 3.20211 2.42954 3.18739 2.43874C3.17083 2.43322 3.15334 2.42862 3.13494 2.42494C3.11653 2.42126 3.09905 2.41758 3.08249 2.4139C3.08249 2.45255 3.07513 2.48291 3.0604 2.505C3.04568 2.52708 3.02635 2.54549 3.00243 2.56021C2.98034 2.57309 2.95458 2.58413 2.92513 2.59334C2.89569 2.6007 2.86624 2.61082 2.83679 2.6237C2.80919 2.63474 2.7825 2.64947 2.75674 2.66787C2.73281 2.68444 2.71349 2.70836 2.69876 2.73965C2.71717 2.75989 2.74017 2.77185 2.76778 2.77554C2.79538 2.77738 2.82391 2.77738 2.85336 2.77554C2.8828 2.77185 2.91133 2.77001 2.93894 2.77001C2.96838 2.77001 2.99415 2.77738 3.01623 2.7921L3.01899 2.79486L3.02175 2.7921C3.06592 2.78658 3.10825 2.77646 3.14874 2.76173C3.19107 2.74517 3.23156 2.72861 3.27021 2.71204C3.3107 2.69364 3.35119 2.67707 3.39167 2.66235C3.434 2.64579 3.47725 2.63382 3.52142 2.62646C3.53062 2.64119 3.54259 2.64947 3.55731 2.65131C3.57387 2.65315 3.58952 2.65223 3.60424 2.64855L3.607 2.64303C3.61068 2.63014 3.61436 2.6191 3.61804 2.6099C3.62172 2.59886 3.62725 2.58689 3.63461 2.57401C3.64749 2.55377 3.66313 2.53812 3.68154 2.52708C3.69994 2.51604 3.71927 2.50776 3.73951 2.50224C3.76159 2.49671 3.7846 2.49303 3.80852 2.49119C3.83245 2.48935 3.85637 2.48659 3.8803 2.48291H3.88582L3.88858 2.47463C3.89594 2.45255 3.90515 2.43782 3.91619 2.43046C3.92907 2.42126 3.94195 2.41482 3.95484 2.41114C3.96956 2.40746 3.98428 2.40469 3.99901 2.40285C4.01557 2.40101 4.03121 2.39549 4.04594 2.38629C4.07906 2.39733 4.10667 2.39365 4.12875 2.37525C4.15084 2.35684 4.172 2.33752 4.19225 2.31728L4.21433 2.34488L4.22261 2.33384C4.25022 2.30807 4.27047 2.28875 4.28335 2.27587C4.29807 2.26298 4.31187 2.25194 4.32476 2.24274C4.33764 2.2317 4.35236 2.22158 4.36893 2.21237C4.38733 2.20133 4.41218 2.18569 4.44346 2.16544C4.46923 2.14888 4.49407 2.13232 4.518 2.11575C4.54376 2.09919 4.56861 2.08078 4.59254 2.06054C4.60174 2.06422 4.60634 2.07158 4.60634 2.08262C4.60634 2.09183 4.60634 2.10103 4.60634 2.11023C4.6045 2.11391 4.60266 2.11943 4.60082 2.12679C4.60082 2.13416 4.60266 2.13968 4.60634 2.14336ZM3.46345 1.79828C3.46161 1.79644 3.45977 1.79552 3.45793 1.79552C3.45793 1.79552 3.45701 1.7946 3.45517 1.79276C3.41652 1.77252 3.38431 1.76332 3.35855 1.76516C3.33278 1.76516 3.30886 1.77252 3.28677 1.78724C3.26653 1.80012 3.2472 1.81761 3.2288 1.83969C3.21223 1.85994 3.19383 1.87926 3.17359 1.89766C3.15518 1.91423 3.1331 1.92711 3.10733 1.93631C3.08157 1.94551 3.05028 1.94459 3.01347 1.93355C3.00795 1.963 3.00243 1.99245 2.99691 2.02189C2.99323 2.0495 2.99047 2.07802 2.98863 2.10747C2.95734 2.11851 2.93249 2.13416 2.91409 2.1544C2.89753 2.17464 2.8828 2.19673 2.86992 2.22065C2.85888 2.24458 2.84784 2.27035 2.83679 2.29795C2.82759 2.32372 2.81471 2.34856 2.79814 2.37249L2.80919 2.38629C2.81655 2.38261 2.82483 2.38537 2.83403 2.39457C2.84323 2.40377 2.84968 2.41022 2.85336 2.4139C2.8736 2.38445 2.90029 2.35961 2.93341 2.33936C2.96838 2.31912 3.00335 2.30071 3.03832 2.28415C3.07513 2.26574 3.11009 2.24642 3.14322 2.22618C3.17635 2.20593 3.20119 2.17925 3.21776 2.14612C3.27665 2.12956 3.32082 2.09643 3.35026 2.04674C3.37971 1.99705 3.40456 1.94551 3.4248 1.89214C3.42848 1.8811 3.43492 1.86546 3.44413 1.84521C3.45517 1.82313 3.46161 1.80748 3.46345 1.79828Z" fill="white"/>
<path d="M6.05565 2.08262C6.05749 2.11023 6.05197 2.13692 6.03909 2.16268C6.02805 2.18845 6.01793 2.21145 6.00872 2.2317L5.92038 2.32556L5.86793 2.48291C5.84769 2.49764 5.8256 2.51236 5.80168 2.52708C5.77959 2.53996 5.75935 2.55377 5.74094 2.56849C5.7207 2.58505 5.7023 2.60346 5.68573 2.6237C5.67101 2.64395 5.65445 2.66143 5.63604 2.67615C5.61764 2.69088 5.59555 2.70376 5.56979 2.7148C5.54586 2.724 5.52378 2.73505 5.50353 2.74793C5.46673 2.77001 5.43176 2.79302 5.39863 2.81694C5.36734 2.84087 5.33422 2.86387 5.29925 2.88596C5.29005 2.88964 5.28269 2.89424 5.27716 2.89976C5.27348 2.90344 5.26704 2.90712 5.25784 2.91081C5.25232 2.91449 5.22839 2.92185 5.18606 2.93289C5.14374 2.94393 5.0968 2.95682 5.04527 2.97154C4.99558 2.98442 4.94865 2.99638 4.90448 3.00743C4.86031 3.01847 4.83547 3.02399 4.82995 3.02399C4.79682 3.02767 4.76277 3.02951 4.7278 3.02951C4.69284 3.02951 4.65787 3.03043 4.6229 3.03227L4.58149 3.05712C4.56125 3.04239 4.53916 3.02859 4.51524 3.01571C4.49131 3.00283 4.47107 2.98902 4.45451 2.9743C4.4361 2.95774 4.4177 2.93933 4.39929 2.91909C4.38089 2.897 4.36433 2.87676 4.3496 2.85835C4.3404 2.83259 4.3312 2.80774 4.322 2.78382C4.31279 2.75805 4.30543 2.73321 4.29991 2.70928L4.28611 2.60438C4.28243 2.56941 4.27875 2.53536 4.27507 2.50224C4.27323 2.46911 4.27047 2.43506 4.26678 2.40009C4.29807 2.3136 4.32568 2.2271 4.3496 2.1406C4.37537 2.05226 4.40665 1.96576 4.44346 1.8811C4.45266 1.86086 4.46095 1.84061 4.46831 1.82037C4.47751 1.79828 4.48671 1.77712 4.49591 1.75687C4.50696 1.73479 4.51892 1.71454 4.5318 1.69614C4.54468 1.6759 4.55573 1.65565 4.56493 1.63541C4.57413 1.61332 4.58149 1.59124 4.58701 1.56915C4.59254 1.54523 4.5999 1.52314 4.6091 1.5029C4.61462 1.49186 4.62382 1.47621 4.6367 1.45597C4.64959 1.43388 4.66339 1.4118 4.67811 1.38971C4.69284 1.36579 4.70664 1.34278 4.71952 1.3207C4.73425 1.29861 4.74621 1.28113 4.75541 1.26825C4.77013 1.24984 4.78486 1.23236 4.79958 1.2158C4.8143 1.19923 4.82627 1.18083 4.83547 1.16058C4.85387 1.1293 4.87136 1.08973 4.88792 1.04188C4.90448 0.994028 4.92289 0.951699 4.94313 0.914891C4.96522 0.874402 4.99098 0.836674 5.02043 0.801706C5.05172 0.764898 5.08024 0.72717 5.10601 0.688521C5.13361 0.649873 5.1603 0.607544 5.18606 0.561534L5.30753 0.473195L5.36274 0.528407L5.49525 0.506322L5.57807 0.630549C5.57439 0.658155 5.56979 0.689442 5.56427 0.724409C5.56059 0.759377 5.5569 0.795265 5.55322 0.832073C5.55138 0.86704 5.54954 0.902008 5.5477 0.936976C5.5477 0.970103 5.54954 0.999549 5.55322 1.02531C5.54402 1.05844 5.53022 1.09341 5.51182 1.13022C5.49525 1.16519 5.47593 1.19555 5.45384 1.22132L5.4428 1.37039L5.33238 1.46977L5.31857 1.61056L5.22471 1.72099C5.21919 1.74675 5.21367 1.77344 5.20815 1.80104C5.20263 1.82681 5.19527 1.85165 5.18606 1.87558C5.17686 1.89766 5.16582 1.92067 5.15294 1.94459C5.14005 1.96668 5.12717 1.98968 5.11429 2.01361C5.07748 2.0449 5.03975 2.07986 5.0011 2.11851C4.96246 2.15716 4.92749 2.19581 4.8962 2.23446C4.87964 2.2547 4.86399 2.27679 4.84927 2.30071C4.83639 2.3228 4.82259 2.34396 4.80786 2.36421C4.76001 2.42494 4.70848 2.48199 4.65327 2.53536C4.59806 2.58873 4.54376 2.64395 4.49039 2.701L4.55113 2.80866C4.58977 2.82155 4.62934 2.83351 4.66983 2.84455C4.71032 2.85559 4.75081 2.86572 4.7913 2.87492C4.8097 2.87124 4.83087 2.86756 4.85479 2.86387C4.87872 2.85835 4.90356 2.85283 4.92933 2.84731C4.95509 2.83995 4.97994 2.83259 5.00386 2.82523C5.02963 2.81786 5.05079 2.8105 5.06736 2.80314C5.10417 2.78842 5.1465 2.76725 5.19435 2.73965C5.2422 2.7102 5.28269 2.68444 5.31581 2.66235C5.37471 2.62554 5.43452 2.58781 5.49525 2.54917C5.55598 2.51052 5.61396 2.47003 5.66917 2.4277C5.70598 2.40009 5.74463 2.36513 5.78511 2.3228C5.8256 2.28047 5.86333 2.2409 5.8983 2.20409C5.93511 2.16544 5.96731 2.13416 5.99492 2.11023C6.02437 2.08631 6.04461 2.0771 6.05565 2.08262ZM5.30477 0.776861C5.26612 0.841275 5.22471 0.903848 5.18054 0.964582C5.13821 1.02347 5.09865 1.08513 5.06184 1.14954C5.04895 1.17163 5.03791 1.19463 5.02871 1.21856C5.01951 1.24064 5.00755 1.26273 4.99282 1.28481C4.97994 1.30506 4.96614 1.3253 4.95141 1.34554C4.93669 1.36579 4.92381 1.38787 4.91276 1.4118C4.89068 1.45413 4.87044 1.49922 4.85203 1.54707C4.83547 1.59308 4.81706 1.63817 4.79682 1.68234C4.77473 1.72651 4.74897 1.76792 4.71952 1.80656C4.69008 1.84521 4.66339 1.88662 4.63947 1.93079L4.5953 2.01913C4.59161 2.02833 4.58793 2.03569 4.58425 2.04122C4.58057 2.0449 4.57689 2.05134 4.57321 2.06054C4.56585 2.08078 4.56217 2.10287 4.56217 2.12679C4.56217 2.15072 4.55941 2.1728 4.55389 2.19305C4.54837 2.21513 4.54008 2.2363 4.52904 2.25654C4.518 2.27679 4.50788 2.29703 4.49867 2.31728C4.48947 2.33752 4.48211 2.35868 4.47659 2.38077C4.47107 2.40101 4.46463 2.42126 4.45727 2.4415C4.47199 2.42678 4.48763 2.4139 4.5042 2.40285C4.5226 2.38997 4.54008 2.37617 4.55665 2.36145C4.57321 2.34488 4.58885 2.3274 4.60358 2.30899C4.6183 2.29059 4.63486 2.27403 4.65327 2.2593C4.66983 2.24458 4.68732 2.2317 4.70572 2.22065C4.72596 2.20777 4.74529 2.19489 4.76369 2.18201C4.79314 2.14152 4.8189 2.10011 4.84099 2.05778C4.85203 2.03754 4.86123 2.01453 4.8686 1.98876C4.8778 1.963 4.88884 1.93999 4.90172 1.91975C4.91276 1.8995 4.92657 1.88018 4.94313 1.86178C4.96154 1.84337 4.97718 1.82405 4.99006 1.8038C5.00478 1.78356 5.01675 1.7624 5.02595 1.74031C5.03699 1.71823 5.04895 1.69706 5.06184 1.67682C5.0876 1.63633 5.11613 1.59768 5.14742 1.56087L5.16122 1.38695L5.2606 1.27101L5.2744 1.16611L5.34342 1.06948L5.3517 0.914891L5.30477 0.776861Z" fill="white"/>
<path d="M7.53534 2.08262C7.53718 2.11023 7.53165 2.13692 7.51877 2.16268C7.50773 2.18845 7.49761 2.21145 7.48841 2.2317L7.40007 2.32556L7.34761 2.48291C7.32737 2.49764 7.30529 2.51236 7.28136 2.52708C7.25928 2.53996 7.23903 2.55377 7.22063 2.56849C7.20038 2.58505 7.18198 2.60346 7.16541 2.6237C7.15069 2.64395 7.13413 2.66143 7.11572 2.67615C7.09732 2.69088 7.07524 2.70376 7.04947 2.7148C7.02554 2.724 7.00346 2.73505 6.98322 2.74793C6.94641 2.77001 6.91144 2.79302 6.87831 2.81694C6.84703 2.84087 6.8139 2.86387 6.77893 2.88596C6.76973 2.88964 6.76237 2.89424 6.75685 2.89976C6.75317 2.90344 6.74672 2.90712 6.73752 2.91081C6.732 2.91449 6.70808 2.92185 6.66575 2.93289C6.62342 2.94393 6.57649 2.95682 6.52496 2.97154C6.47526 2.98442 6.42833 2.99638 6.38416 3.00743C6.34 3.01847 6.31515 3.02399 6.30963 3.02399C6.2765 3.02767 6.24245 3.02951 6.20749 3.02951C6.17252 3.02951 6.13755 3.03043 6.10258 3.03227L6.06117 3.05712C6.04093 3.04239 6.01885 3.02859 5.99492 3.01571C5.971 3.00283 5.95075 2.98902 5.93419 2.9743C5.91578 2.95774 5.89738 2.93933 5.87898 2.91909C5.86057 2.897 5.84401 2.87676 5.82928 2.85835C5.82008 2.83259 5.81088 2.80774 5.80168 2.78382C5.79248 2.75805 5.78511 2.73321 5.77959 2.70928L5.76579 2.60438C5.76211 2.56941 5.75843 2.53536 5.75475 2.50224C5.75291 2.46911 5.75015 2.43506 5.74647 2.40009C5.77775 2.3136 5.80536 2.2271 5.82928 2.1406C5.85505 2.05226 5.88634 1.96576 5.92314 1.8811C5.93235 1.86086 5.94063 1.84061 5.94799 1.82037C5.95719 1.79828 5.96639 1.77712 5.9756 1.75687C5.98664 1.73479 5.9986 1.71454 6.01148 1.69614C6.02437 1.6759 6.03541 1.65565 6.04461 1.63541C6.05381 1.61332 6.06117 1.59124 6.0667 1.56915C6.07222 1.54523 6.07958 1.52314 6.08878 1.5029C6.0943 1.49186 6.1035 1.47621 6.11639 1.45597C6.12927 1.43388 6.14307 1.4118 6.1578 1.38971C6.17252 1.36579 6.18632 1.34278 6.1992 1.3207C6.21393 1.29861 6.22589 1.28113 6.23509 1.26825C6.24982 1.24984 6.26454 1.23236 6.27926 1.2158C6.29399 1.19923 6.30595 1.18083 6.31515 1.16058C6.33355 1.1293 6.35104 1.08973 6.3676 1.04188C6.38416 0.994028 6.40257 0.951699 6.42281 0.914891C6.4449 0.874402 6.47066 0.836674 6.50011 0.801706C6.5314 0.764898 6.55992 0.72717 6.58569 0.688521C6.61329 0.649873 6.63998 0.607544 6.66575 0.561534L6.78721 0.473195L6.84242 0.528407L6.97493 0.506322L7.05775 0.630549C7.05407 0.658155 7.04947 0.689442 7.04395 0.724409C7.04027 0.759377 7.03659 0.795265 7.03291 0.832073C7.03107 0.86704 7.02923 0.902008 7.02738 0.936976C7.02738 0.970103 7.02923 0.999549 7.03291 1.02531C7.0237 1.05844 7.0099 1.09341 6.9915 1.13022C6.97493 1.16519 6.95561 1.19555 6.93352 1.22132L6.92248 1.37039L6.81206 1.46977L6.79826 1.61056L6.70439 1.72099C6.69887 1.74675 6.69335 1.77344 6.68783 1.80104C6.68231 1.82681 6.67495 1.85165 6.66575 1.87558C6.65654 1.89766 6.6455 1.92067 6.63262 1.94459C6.61974 1.96668 6.60685 1.98968 6.59397 2.01361C6.55716 2.0449 6.51943 2.07986 6.48079 2.11851C6.44214 2.15716 6.40717 2.19581 6.37588 2.23446C6.35932 2.2547 6.34368 2.27679 6.32895 2.30071C6.31607 2.3228 6.30227 2.34396 6.28754 2.36421C6.23969 2.42494 6.18816 2.48199 6.13295 2.53536C6.07774 2.58873 6.02345 2.64395 5.97007 2.701L6.03081 2.80866C6.06946 2.82155 6.10903 2.83351 6.14951 2.84455C6.19 2.85559 6.23049 2.86572 6.27098 2.87492C6.28938 2.87124 6.31055 2.86756 6.33447 2.86387C6.3584 2.85835 6.38324 2.85283 6.40901 2.84731C6.43478 2.83995 6.45962 2.83259 6.48355 2.82523C6.50931 2.81786 6.53048 2.8105 6.54704 2.80314C6.58385 2.78842 6.62618 2.76725 6.67403 2.73965C6.72188 2.7102 6.76237 2.68444 6.79549 2.66235C6.85439 2.62554 6.9142 2.58781 6.97493 2.54917C7.03567 2.51052 7.09364 2.47003 7.14885 2.4277C7.18566 2.40009 7.22431 2.36513 7.2648 2.3228C7.30529 2.28047 7.34301 2.2409 7.37798 2.20409C7.41479 2.16544 7.447 2.13416 7.4746 2.11023C7.50405 2.08631 7.52429 2.0771 7.53534 2.08262ZM6.78445 0.776861C6.7458 0.841275 6.70439 0.903848 6.66022 0.964582C6.6179 1.02347 6.57833 1.08513 6.54152 1.14954C6.52864 1.17163 6.51759 1.19463 6.50839 1.21856C6.49919 1.24064 6.48723 1.26273 6.4725 1.28481C6.45962 1.30506 6.44582 1.3253 6.4311 1.34554C6.41637 1.36579 6.40349 1.38787 6.39245 1.4118C6.37036 1.45413 6.35012 1.49922 6.33171 1.54707C6.31515 1.59308 6.29675 1.63817 6.2765 1.68234C6.25442 1.72651 6.22865 1.76792 6.1992 1.80656C6.16976 1.84521 6.14307 1.88662 6.11915 1.93079L6.07498 2.01913C6.0713 2.02833 6.06762 2.03569 6.06394 2.04122C6.06025 2.0449 6.05657 2.05134 6.05289 2.06054C6.04553 2.08078 6.04185 2.10287 6.04185 2.12679C6.04185 2.15072 6.03909 2.1728 6.03357 2.19305C6.02805 2.21513 6.01977 2.2363 6.00872 2.25654C5.99768 2.27679 5.98756 2.29703 5.97836 2.31728C5.96915 2.33752 5.96179 2.35868 5.95627 2.38077C5.95075 2.40101 5.94431 2.42126 5.93695 2.4415C5.95167 2.42678 5.96731 2.4139 5.98388 2.40285C6.00228 2.38997 6.01977 2.37617 6.03633 2.36145C6.05289 2.34488 6.06854 2.3274 6.08326 2.30899C6.09798 2.29059 6.11455 2.27403 6.13295 2.2593C6.14951 2.24458 6.167 2.2317 6.1854 2.22065C6.20565 2.20777 6.22497 2.19489 6.24337 2.18201C6.27282 2.14152 6.29859 2.10011 6.32067 2.05778C6.33171 2.03754 6.34092 2.01453 6.34828 1.98876C6.35748 1.963 6.36852 1.93999 6.3814 1.91975C6.39245 1.8995 6.40625 1.88018 6.42281 1.86178C6.44122 1.84337 6.45686 1.82405 6.46974 1.8038C6.48447 1.78356 6.49643 1.7624 6.50563 1.74031C6.51667 1.71823 6.52864 1.69706 6.54152 1.67682C6.56728 1.63633 6.59581 1.59768 6.6271 1.56087L6.6409 1.38695L6.74028 1.27101L6.75409 1.16611L6.8231 1.06948L6.83138 0.914891L6.78445 0.776861Z" fill="white"/>
<path d="M9.05643 2.12127C9.06379 2.14888 9.06103 2.1728 9.04814 2.19305C9.03526 2.21145 9.01778 2.22802 8.99569 2.24274C8.97545 2.25746 8.95244 2.27127 8.92668 2.28415C8.90275 2.29519 8.88251 2.30807 8.86594 2.3228C8.78313 2.3412 8.70767 2.355 8.63958 2.36421C8.57332 2.37157 8.49971 2.38169 8.41873 2.39457C8.3948 2.39825 8.3718 2.39825 8.34971 2.39457C8.32947 2.38905 8.3083 2.38721 8.28622 2.38905C8.27334 2.38905 8.26137 2.38905 8.25033 2.38905C8.23929 2.38721 8.22825 2.38721 8.2172 2.38905C8.17487 2.39273 8.14727 2.40746 8.13439 2.43322C8.1215 2.45715 8.11046 2.48567 8.10126 2.5188C8.0939 2.55009 8.08377 2.58045 8.07089 2.6099C8.05985 2.63751 8.035 2.65683 7.99636 2.66787C7.99267 2.67707 7.9936 2.68536 7.99912 2.69272C8.00648 2.70008 8.012 2.70652 8.01568 2.71204C7.98439 2.72124 7.96323 2.73781 7.95219 2.76173C7.94298 2.78566 7.9347 2.80958 7.92734 2.83351C7.91998 2.85743 7.90894 2.87768 7.89421 2.89424C7.88133 2.91081 7.85557 2.91633 7.81692 2.91081C7.75986 2.97154 7.69269 3.02031 7.61539 3.05712C7.5381 3.09577 7.45804 3.12061 7.37522 3.13165C7.3605 3.12429 7.34577 3.11509 7.33105 3.10405C7.31817 3.093 7.30437 3.08288 7.28964 3.07368C7.27676 3.06448 7.26204 3.05712 7.24547 3.0516C7.23075 3.04791 7.21327 3.04791 7.19302 3.0516C7.19118 3.01295 7.18382 2.97706 7.17094 2.94393C7.15621 2.91081 7.13781 2.87952 7.11572 2.85007C7.11204 2.81694 7.11664 2.78658 7.12953 2.75897C7.14057 2.72953 7.15253 2.701 7.16541 2.67339C7.1783 2.64579 7.18934 2.61818 7.19854 2.59058C7.2059 2.56113 7.20406 2.528 7.19302 2.49119C7.21142 2.48015 7.22339 2.46727 7.22891 2.45255C7.23627 2.43782 7.24087 2.4231 7.24271 2.40838C7.24639 2.39181 7.25099 2.37709 7.25651 2.36421C7.26204 2.34948 7.27492 2.33752 7.29516 2.32832C7.28044 2.28415 7.28228 2.25194 7.30068 2.2317C7.32093 2.20961 7.34485 2.19029 7.37246 2.17372C7.40007 2.15716 7.42583 2.13876 7.44976 2.11851C7.47368 2.09827 7.48288 2.0679 7.47736 2.02741C7.48841 2.01637 7.50129 2.00717 7.51601 1.99981C7.53073 1.99245 7.54454 1.986 7.55742 1.98048C7.57214 1.97312 7.58595 1.96576 7.59883 1.9584C7.61171 1.95104 7.62367 1.94091 7.63472 1.92803C7.62183 1.91883 7.61539 1.90963 7.61539 1.90043C7.61723 1.89122 7.61999 1.88202 7.62367 1.87282C7.62736 1.86178 7.63104 1.85073 7.63472 1.83969C7.64024 1.82865 7.64024 1.81761 7.63472 1.80656C7.68441 1.81393 7.72766 1.80748 7.76447 1.78724C7.80311 1.76516 7.839 1.74307 7.87213 1.72099C7.9071 1.6989 7.94206 1.68326 7.97703 1.67406C8.012 1.66485 8.05249 1.6759 8.0985 1.70718C8.10218 1.72007 8.1077 1.73939 8.11506 1.76516C8.12426 1.78908 8.13255 1.81393 8.13991 1.83969C8.14911 1.86546 8.15739 1.8903 8.16475 1.91423C8.17211 1.93815 8.17671 1.95564 8.17856 1.96668C8.17856 1.97588 8.17856 1.9906 8.17856 2.01085C8.17856 2.03109 8.17856 2.05318 8.17856 2.0771C8.17856 2.09919 8.17856 2.12035 8.17856 2.1406C8.17856 2.16084 8.17856 2.17649 8.17856 2.18753C8.23193 2.21881 8.2853 2.23814 8.33867 2.2455C8.39204 2.25102 8.44541 2.23814 8.49878 2.20685C8.51903 2.22526 8.53835 2.23078 8.55676 2.22342C8.57516 2.21421 8.59265 2.20409 8.60921 2.19305C8.62761 2.18201 8.64602 2.17649 8.66442 2.17649C8.68283 2.17464 8.70123 2.18937 8.71963 2.22065C8.7454 2.19673 8.77208 2.18201 8.79969 2.17649C8.8273 2.16912 8.85582 2.16544 8.88527 2.16544C8.91472 2.1636 8.94324 2.16084 8.97085 2.15716C9.00029 2.15348 9.02882 2.14152 9.05643 2.12127ZM7.99636 2.1682C7.99636 2.1406 8.00096 2.11115 8.01016 2.07986C8.01936 2.04858 8.02672 2.01821 8.03224 1.98876C8.03776 1.95748 8.03684 1.92803 8.02948 1.90043C8.02396 1.87282 8.00648 1.84797 7.97703 1.82589C7.95679 1.83693 7.94022 1.85257 7.92734 1.87282C7.91446 1.89122 7.90158 1.91055 7.88869 1.93079C7.87581 1.9492 7.86017 1.96484 7.84176 1.97772C7.8252 1.9906 7.80311 1.99429 7.77551 1.98876C7.76631 2.01085 7.76631 2.02925 7.77551 2.04398C7.78471 2.05686 7.79575 2.06974 7.80863 2.08262C7.82152 2.09367 7.83348 2.10563 7.84452 2.11851C7.85741 2.1314 7.86201 2.14796 7.85833 2.1682C7.86569 2.17372 7.87581 2.17925 7.88869 2.18477C7.90158 2.18845 7.91446 2.19121 7.92734 2.19305C7.94206 2.19305 7.95587 2.19121 7.96875 2.18753C7.98163 2.18385 7.99083 2.17741 7.99636 2.1682ZM7.97703 2.38905C7.94022 2.38905 7.90802 2.38077 7.88041 2.36421C7.85464 2.3458 7.82796 2.32556 7.80035 2.30347C7.77459 2.28139 7.74698 2.26114 7.71754 2.24274C7.68993 2.2225 7.65588 2.21053 7.61539 2.20685C7.59883 2.22894 7.5795 2.2501 7.55742 2.27035C7.53534 2.28875 7.51601 2.30899 7.49945 2.33108C7.48288 2.35316 7.47092 2.37709 7.46356 2.40285C7.45804 2.42862 7.46264 2.45807 7.47736 2.49119C7.43503 2.51144 7.40651 2.54088 7.39178 2.57953C7.37706 2.61634 7.36694 2.65683 7.36142 2.701C7.35774 2.74517 7.35406 2.78934 7.35038 2.83351C7.34669 2.87768 7.33473 2.91725 7.31449 2.95221L7.37522 2.91081C7.38258 2.91449 7.3881 2.92001 7.39178 2.92737C7.39731 2.93473 7.39823 2.94301 7.39454 2.95221C7.40927 2.93749 7.42583 2.92645 7.44424 2.91909C7.46264 2.90988 7.48104 2.90344 7.49945 2.89976C7.51969 2.89424 7.53902 2.88964 7.55742 2.88596C7.57766 2.88228 7.59699 2.87676 7.61539 2.8694C7.6614 2.89516 7.69453 2.90068 7.71477 2.88596C7.73502 2.87124 7.75158 2.84915 7.76447 2.81971C7.77735 2.79026 7.79115 2.75989 7.80587 2.72861C7.8206 2.69548 7.84452 2.67523 7.87765 2.66787L7.85833 2.64855C7.88961 2.6099 7.91722 2.57033 7.94114 2.52984C7.96691 2.48751 7.97887 2.44058 7.97703 2.38905Z" fill="white"/>
<path d="M13.2222 0.981145C13.2222 0.997709 13.2194 1.01243 13.2139 1.02531C13.1752 0.997709 13.1394 0.965502 13.1062 0.928694C13.0749 0.890045 13.0409 0.855998 13.0041 0.826551C12.9691 0.795265 12.9305 0.77226 12.8881 0.757536C12.8477 0.742813 12.7989 0.744654 12.7418 0.763058C12.7142 0.748334 12.6885 0.748334 12.6645 0.763058C12.6406 0.777781 12.6185 0.792504 12.5983 0.807227V0.823791C12.5817 0.823791 12.5642 0.82195 12.5458 0.81827C12.5293 0.814589 12.5127 0.814589 12.4961 0.81827C12.4814 0.82011 12.4685 0.827472 12.4575 0.840354C12.4483 0.853237 12.4437 0.876242 12.4437 0.909369C12.4069 0.903848 12.3756 0.91121 12.3498 0.931454C12.3259 0.951699 12.3047 0.974704 12.2863 1.00047C12.2698 1.02623 12.2532 1.05016 12.2366 1.07224C12.2201 1.09249 12.2017 1.10077 12.1814 1.09709C12.1814 1.09893 12.1796 1.10169 12.1759 1.10537C12.1612 1.12746 12.1437 1.14862 12.1235 1.16887C12.105 1.18727 12.0876 1.20659 12.071 1.22684C11.9937 1.32806 11.9228 1.43388 11.8584 1.54431C11.7959 1.65473 11.7397 1.76792 11.69 1.88386C11.6477 1.90227 11.6164 1.92619 11.5962 1.95564C11.5759 1.98324 11.5612 2.01361 11.552 2.04674C11.5446 2.07802 11.5391 2.11115 11.5354 2.14612C11.5336 2.17925 11.529 2.21237 11.5216 2.2455C11.5161 2.27679 11.5051 2.30623 11.4885 2.33384C11.472 2.35961 11.4453 2.38169 11.4085 2.40009L11.4195 2.44702C11.4379 2.43966 11.4517 2.44058 11.4609 2.44978C11.4701 2.45899 11.4756 2.47187 11.4775 2.48843C11.4793 2.505 11.4784 2.52248 11.4747 2.54088C11.4729 2.55745 11.4701 2.57125 11.4664 2.58229C11.4259 2.62278 11.4048 2.66511 11.4029 2.70928C11.4011 2.75161 11.4029 2.79394 11.4085 2.83627C11.414 2.8786 11.4149 2.92001 11.4112 2.9605C11.4094 2.99914 11.3873 3.03595 11.345 3.07092C11.3284 3.06172 11.3118 3.05712 11.2953 3.05712C11.2806 3.05712 11.264 3.0608 11.2456 3.06816C11.2309 3.07184 11.2198 3.07368 11.2125 3.07368C11.2051 3.07368 11.1959 3.06724 11.1848 3.05436C11.1756 3.04331 11.1692 3.02859 11.1655 3.01019C11.1618 2.99362 11.1591 2.97614 11.1572 2.95774C11.1572 2.93933 11.1563 2.92093 11.1545 2.90252C11.1545 2.88412 11.1536 2.86848 11.1517 2.85559C11.1977 2.7967 11.2253 2.73597 11.2345 2.67339C11.2456 2.61082 11.2502 2.54733 11.2483 2.48291C11.2483 2.4185 11.2493 2.35408 11.2511 2.28967C11.2529 2.22526 11.2695 2.16176 11.3008 2.09919C11.3008 2.07894 11.298 2.06606 11.2925 2.06054C11.2888 2.05502 11.2833 2.0449 11.2759 2.03017L11.298 2.01913C11.2888 1.95472 11.2861 1.89674 11.2898 1.84521C11.2953 1.79184 11.3036 1.73387 11.3146 1.6713L11.3174 1.65473L11.3063 1.64369C11.2934 1.63081 11.287 1.617 11.287 1.60228C11.2888 1.58756 11.2925 1.57283 11.298 1.55811C11.3054 1.54339 11.3118 1.52958 11.3174 1.5167C11.3247 1.50198 11.3266 1.48726 11.3229 1.47253C11.3174 1.45045 11.3109 1.42836 11.3036 1.40628C11.298 1.38235 11.2934 1.35843 11.2898 1.3345C11.2769 1.28113 11.2649 1.23236 11.2539 1.18819C11.2428 1.14402 11.2217 1.09893 11.1904 1.05292C11.1554 1.06212 11.1204 1.07501 11.0855 1.09157C11.0505 1.10629 11.0174 1.1247 10.9861 1.14678C10.9566 1.16887 10.93 1.19463 10.906 1.22408C10.8821 1.25352 10.8646 1.28573 10.8536 1.3207L10.8508 1.32898C10.8527 1.33082 10.8536 1.33358 10.8536 1.33726C10.8554 1.35015 10.8517 1.36303 10.8425 1.37591C10.8352 1.38695 10.826 1.39984 10.8149 1.41456C10.8039 1.42744 10.7938 1.44309 10.7846 1.46149C10.7754 1.47805 10.7717 1.4983 10.7735 1.52222C10.7754 1.54063 10.7726 1.56179 10.7652 1.58572C10.7579 1.60964 10.7487 1.63357 10.7376 1.65749C10.7266 1.68142 10.7137 1.70442 10.699 1.72651C10.6861 1.74859 10.6741 1.767 10.6631 1.78172V1.78448C10.641 1.82497 10.6235 1.8673 10.6106 1.91147C10.5978 1.95564 10.5858 2.00073 10.5748 2.04674C10.5637 2.09091 10.5499 2.13508 10.5333 2.17925C10.5186 2.22158 10.4965 2.26206 10.4671 2.30071C10.4873 2.35224 10.4929 2.40377 10.4837 2.45531C10.4763 2.505 10.4625 2.55561 10.4422 2.60714C10.4238 2.65683 10.4045 2.70744 10.3843 2.75897C10.3659 2.80866 10.3567 2.85927 10.3567 2.91081C10.3567 2.92001 10.3567 2.92829 10.3567 2.93565C10.3585 2.94301 10.3594 2.95129 10.3594 2.9605C10.3502 2.97522 10.3373 2.98442 10.3208 2.9881C10.3061 2.98994 10.2895 2.98902 10.2711 2.98534C10.2527 2.97982 10.2352 2.97338 10.2186 2.96602C10.2021 2.95682 10.1883 2.94853 10.1772 2.94117C10.1533 2.92277 10.1404 2.90252 10.1386 2.88044C10.1367 2.85651 10.1386 2.83259 10.1441 2.80866C10.1496 2.78474 10.1542 2.76081 10.1579 2.73689C10.1616 2.71296 10.1579 2.69088 10.1469 2.67063C10.1597 2.62094 10.1745 2.57309 10.191 2.52708C10.2094 2.47923 10.226 2.43138 10.2407 2.38353C10.2573 2.33384 10.2711 2.28507 10.2821 2.23722C10.295 2.18753 10.3024 2.136 10.3042 2.08262C10.3263 2.05502 10.3419 2.02465 10.3511 1.99152C10.3603 1.9584 10.3677 1.92527 10.3732 1.89214C10.3788 1.85902 10.3852 1.82589 10.3926 1.79276C10.3999 1.75963 10.4119 1.72743 10.4284 1.69614C10.4303 1.6943 10.4312 1.69338 10.4312 1.69338C10.4312 1.69154 10.4321 1.6897 10.434 1.68786C10.445 1.64001 10.4496 1.59676 10.4478 1.55811C10.4459 1.51762 10.4422 1.47345 10.4367 1.4256C10.4367 1.4164 10.4358 1.40444 10.434 1.38971C10.434 1.37499 10.434 1.35935 10.434 1.34278C10.434 1.32622 10.433 1.3115 10.4312 1.29861C10.4312 1.28389 10.4303 1.27377 10.4284 1.26825C10.4284 1.26273 10.4275 1.25721 10.4257 1.25168C10.4238 1.24616 10.4229 1.24064 10.4229 1.23512C10.4229 1.20015 10.4294 1.16611 10.4422 1.13298C10.4551 1.09801 10.4616 1.06212 10.4616 1.02531C10.4616 0.994028 10.4524 0.964582 10.434 0.936976C10.4174 0.907529 10.3953 0.885444 10.3677 0.870721C10.364 0.868881 10.3585 0.86796 10.3511 0.86796C10.3254 0.86796 10.3042 0.873482 10.2877 0.884524C10.2729 0.893726 10.261 0.906609 10.2518 0.923172C10.2426 0.937896 10.2352 0.95538 10.2297 0.975624C10.226 0.994028 10.2223 1.01335 10.2186 1.0336C10.2186 1.04096 10.2168 1.052 10.2131 1.06672C10.2113 1.08145 10.2085 1.09065 10.2048 1.09433C10.1956 1.11273 10.1828 1.13206 10.1662 1.1523C10.1515 1.17255 10.1377 1.19187 10.1248 1.21027C10.0898 1.25997 10.0594 1.31058 10.0337 1.36211C10.0098 1.4118 9.98859 1.46609 9.97019 1.52498C9.9481 1.52314 9.9297 1.52498 9.91497 1.5305C9.90209 1.53603 9.89105 1.54431 9.88185 1.55535C9.87264 1.56639 9.86344 1.57928 9.85424 1.594C9.84504 1.60872 9.834 1.62252 9.82111 1.63541L9.80179 1.65473L9.81559 1.66853C9.7843 1.68878 9.76222 1.71546 9.74934 1.74859C9.73645 1.78172 9.72725 1.81669 9.72173 1.85349C9.71805 1.8811 9.71437 1.90411 9.71069 1.92251C9.70517 1.94091 9.69781 1.95564 9.6886 1.96668C9.6794 1.97588 9.66652 1.98232 9.64996 1.986C9.63155 1.98784 9.60763 1.98692 9.57818 1.98324H9.5699L9.56438 1.98876C9.53493 2.00349 9.51837 2.02097 9.51469 2.04122C9.50916 2.05962 9.50732 2.07802 9.50916 2.09643C9.50916 2.11483 9.50916 2.1314 9.50916 2.14612C9.50732 2.16084 9.49444 2.16912 9.47052 2.17096C9.44659 2.17464 9.42083 2.17557 9.39322 2.17372C9.36561 2.17188 9.34077 2.16452 9.31868 2.15164C9.31868 2.13508 9.31776 2.12219 9.31592 2.11299C9.31224 2.03754 9.32604 1.96484 9.35733 1.8949C9.38678 1.82497 9.42083 1.75963 9.45947 1.6989V1.69614H9.46223V1.69062C9.47512 1.64093 9.4926 1.5894 9.51469 1.53603C9.53493 1.48265 9.55886 1.43112 9.58646 1.38143C9.61407 1.33174 9.64535 1.28481 9.68032 1.24064C9.71345 1.19647 9.75026 1.15874 9.79075 1.12746C9.78522 1.11273 9.78154 1.10169 9.7797 1.09433C9.7797 1.08513 9.78154 1.07869 9.78522 1.07501C9.78891 1.06948 9.79443 1.06488 9.80179 1.0612C9.81099 1.05752 9.82295 1.05108 9.83768 1.04188C9.84504 1.02531 9.857 1.00691 9.87356 0.986666C9.89013 0.964582 9.90853 0.942497 9.92878 0.920412C9.94902 0.896487 9.96834 0.874402 9.98675 0.854157C10.007 0.833913 10.0236 0.816429 10.0364 0.801706C10.0806 0.757536 10.1193 0.715207 10.1524 0.674718C10.1874 0.632389 10.2196 0.582698 10.249 0.525646C10.2803 0.534848 10.3143 0.54221 10.3511 0.547731C10.3898 0.553252 10.4248 0.551412 10.4561 0.54221C10.4597 0.564294 10.468 0.582698 10.4809 0.597422C10.4956 0.612145 10.5131 0.623187 10.5333 0.630549C10.5389 0.659995 10.5508 0.691282 10.5692 0.724409C10.5876 0.757536 10.606 0.791584 10.6244 0.826551C10.6429 0.861519 10.6567 0.895566 10.6659 0.928694C10.6769 0.961821 10.6787 0.992188 10.6714 1.01979C10.6659 1.0382 10.6622 1.05292 10.6603 1.06396C10.6603 1.07501 10.6594 1.08513 10.6576 1.09433C10.6557 1.10169 10.6521 1.10905 10.6465 1.11641C10.641 1.12378 10.6318 1.1339 10.6189 1.14678C10.6355 1.15966 10.6539 1.17163 10.6741 1.18267C10.6944 1.19371 10.7146 1.19555 10.7349 1.18819C10.7514 1.18083 10.7634 1.16979 10.7708 1.15506C10.7781 1.14034 10.7836 1.1247 10.7873 1.10813C10.7928 1.09157 10.7974 1.07593 10.8011 1.0612C10.8066 1.04464 10.8149 1.03084 10.826 1.01979C10.8573 0.992188 10.8867 0.963661 10.9143 0.934215C10.9419 0.904768 10.9704 0.877162 10.9999 0.851397C11.0293 0.825631 11.0615 0.803546 11.0965 0.785142C11.1315 0.766738 11.171 0.754776 11.2152 0.749255C11.2483 0.760297 11.2723 0.778701 11.287 0.804467C11.3036 0.830232 11.3174 0.857838 11.3284 0.887285C11.3394 0.916731 11.3505 0.946178 11.3615 0.975624C11.3726 1.00507 11.391 1.03084 11.4167 1.05292C11.4131 1.08421 11.4121 1.11365 11.414 1.14126C11.4177 1.16887 11.4379 1.18727 11.4747 1.19647C11.4784 1.23696 11.4802 1.27285 11.4802 1.30414C11.4802 1.33542 11.4812 1.36579 11.483 1.39524C11.4867 1.42284 11.4931 1.45229 11.5023 1.48357C11.5115 1.51302 11.5262 1.54707 11.5465 1.58572L11.5713 1.54707C11.5824 1.52866 11.5953 1.5121 11.61 1.49738C11.6247 1.48265 11.6385 1.46793 11.6514 1.45321C11.6661 1.43848 11.679 1.42284 11.69 1.40628C11.7011 1.38787 11.7094 1.36763 11.7149 1.34554C11.7407 1.34186 11.7581 1.33358 11.7673 1.3207C11.7765 1.30598 11.7885 1.29125 11.8032 1.27653C11.8014 1.2526 11.8078 1.22224 11.8225 1.18543C11.8391 1.14678 11.8584 1.10721 11.8805 1.06672C11.9026 1.02623 11.9247 0.986666 11.9468 0.948018C11.9689 0.909369 11.9845 0.875322 11.9937 0.845876C12.0452 0.829312 12.0912 0.801706 12.1317 0.763058C12.1741 0.724409 12.2155 0.686681 12.256 0.649873C12.2983 0.611225 12.3425 0.579938 12.3885 0.556013C12.4345 0.530247 12.4888 0.523806 12.5513 0.536688C12.601 0.536688 12.6443 0.540369 12.6811 0.547731C12.7197 0.553252 12.7566 0.561534 12.7915 0.572576C12.8265 0.583619 12.8615 0.598342 12.8964 0.616746C12.9314 0.633309 12.97 0.652634 13.0124 0.674718C13.0142 0.674718 13.0197 0.677479 13.0289 0.683C13.0381 0.686681 13.0473 0.691282 13.0565 0.696803C13.0657 0.702324 13.074 0.707846 13.0814 0.713367C13.0906 0.717048 13.0952 0.718888 13.0952 0.718888C13.121 0.755696 13.1486 0.797105 13.178 0.843115C13.2074 0.887285 13.2222 0.933295 13.2222 0.981145Z" fill="white"/>
<path d="M14.0918 2.12127C14.0991 2.14888 14.0964 2.1728 14.0835 2.19305C14.0706 2.21145 14.0531 2.22802 14.031 2.24274C14.0108 2.25746 13.9878 2.27127 13.962 2.28415C13.9381 2.29519 13.9178 2.30807 13.9013 2.3228C13.8185 2.3412 13.743 2.355 13.6749 2.36421C13.6087 2.37157 13.535 2.38169 13.4541 2.39457C13.4301 2.39825 13.4071 2.39825 13.385 2.39457C13.3648 2.38905 13.3436 2.38721 13.3216 2.38905C13.3087 2.38905 13.2967 2.38905 13.2857 2.38905C13.2746 2.38721 13.2636 2.38721 13.2525 2.38905C13.2102 2.39273 13.1826 2.40746 13.1697 2.43322C13.1568 2.45715 13.1458 2.48567 13.1366 2.5188C13.1292 2.55009 13.1191 2.58045 13.1062 2.6099C13.0952 2.63751 13.0703 2.65683 13.0317 2.66787C13.028 2.67707 13.0289 2.68536 13.0345 2.69272C13.0418 2.70008 13.0473 2.70652 13.051 2.71204C13.0197 2.72124 12.9986 2.73781 12.9875 2.76173C12.9783 2.78566 12.97 2.80958 12.9627 2.83351C12.9553 2.85743 12.9443 2.87768 12.9295 2.89424C12.9167 2.91081 12.8909 2.91633 12.8523 2.91081C12.7952 2.97154 12.728 3.02031 12.6507 3.05712C12.5734 3.09577 12.4934 3.12061 12.4106 3.13165C12.3958 3.12429 12.3811 3.11509 12.3664 3.10405C12.3535 3.093 12.3397 3.08288 12.325 3.07368C12.3121 3.06448 12.2974 3.05712 12.2808 3.0516C12.2661 3.04791 12.2486 3.04791 12.2284 3.0516C12.2265 3.01295 12.2192 2.97706 12.2063 2.94393C12.1915 2.91081 12.1731 2.87952 12.1511 2.85007C12.1474 2.81694 12.152 2.78658 12.1649 2.75897C12.1759 2.72953 12.1879 2.701 12.2008 2.67339C12.2136 2.64579 12.2247 2.61818 12.2339 2.59058C12.2412 2.56113 12.2394 2.528 12.2284 2.49119C12.2468 2.48015 12.2587 2.46727 12.2642 2.45255C12.2716 2.43782 12.2762 2.4231 12.278 2.40838C12.2817 2.39181 12.2863 2.37709 12.2919 2.36421C12.2974 2.34948 12.3103 2.33752 12.3305 2.32832C12.3158 2.28415 12.3176 2.25194 12.336 2.2317C12.3563 2.20961 12.3802 2.19029 12.4078 2.17372C12.4354 2.15716 12.4612 2.13876 12.4851 2.11851C12.509 2.09827 12.5182 2.0679 12.5127 2.02741C12.5237 2.01637 12.5366 2.00717 12.5513 1.99981C12.5661 1.99245 12.5799 1.986 12.5928 1.98048C12.6075 1.97312 12.6213 1.96576 12.6342 1.9584C12.647 1.95104 12.659 1.94091 12.6701 1.92803C12.6572 1.91883 12.6507 1.90963 12.6507 1.90043C12.6526 1.89122 12.6553 1.88202 12.659 1.87282C12.6627 1.86178 12.6664 1.85073 12.6701 1.83969C12.6756 1.82865 12.6756 1.81761 12.6701 1.80656C12.7197 1.81393 12.763 1.80748 12.7998 1.78724C12.8384 1.76516 12.8743 1.74307 12.9075 1.72099C12.9424 1.6989 12.9774 1.68326 13.0124 1.67406C13.0473 1.66485 13.0878 1.6759 13.1338 1.70718C13.1375 1.72007 13.143 1.73939 13.1504 1.76516C13.1596 1.78908 13.1679 1.81393 13.1752 1.83969C13.1844 1.86546 13.1927 1.8903 13.2001 1.91423C13.2074 1.93815 13.2121 1.95564 13.2139 1.96668C13.2139 1.97588 13.2139 1.9906 13.2139 2.01085C13.2139 2.03109 13.2139 2.05318 13.2139 2.0771C13.2139 2.09919 13.2139 2.12035 13.2139 2.1406C13.2139 2.16084 13.2139 2.17649 13.2139 2.18753C13.2673 2.21881 13.3206 2.23814 13.374 2.2455C13.4274 2.25102 13.4807 2.23814 13.5341 2.20685C13.5544 2.22526 13.5737 2.23078 13.5921 2.22342C13.6105 2.21421 13.628 2.20409 13.6445 2.19305C13.6629 2.18201 13.6814 2.17649 13.6998 2.17649C13.7182 2.17464 13.7366 2.18937 13.755 2.22065C13.7807 2.19673 13.8074 2.18201 13.835 2.17649C13.8626 2.16912 13.8912 2.16544 13.9206 2.16544C13.9501 2.1636 13.9786 2.16084 14.0062 2.15716C14.0356 2.15348 14.0642 2.14152 14.0918 2.12127ZM13.0317 2.1682C13.0317 2.1406 13.0363 2.11115 13.0455 2.07986C13.0547 2.04858 13.0621 2.01821 13.0676 1.98876C13.0731 1.95748 13.0722 1.92803 13.0648 1.90043C13.0593 1.87282 13.0418 1.84797 13.0124 1.82589C12.9921 1.83693 12.9756 1.85257 12.9627 1.87282C12.9498 1.89122 12.9369 1.91055 12.924 1.93079C12.9111 1.9492 12.8955 1.96484 12.8771 1.97772C12.8605 1.9906 12.8384 1.99429 12.8108 1.98876C12.8016 2.01085 12.8016 2.02925 12.8108 2.04398C12.82 2.05686 12.8311 2.06974 12.844 2.08262C12.8569 2.09367 12.8688 2.10563 12.8799 2.11851C12.8927 2.1314 12.8973 2.14796 12.8937 2.1682C12.901 2.17372 12.9111 2.17925 12.924 2.18477C12.9369 2.18845 12.9498 2.19121 12.9627 2.19305C12.9774 2.19305 12.9912 2.19121 13.0041 2.18753C13.017 2.18385 13.0262 2.17741 13.0317 2.1682ZM13.0124 2.38905C12.9756 2.38905 12.9434 2.38077 12.9157 2.36421C12.89 2.3458 12.8633 2.32556 12.8357 2.30347C12.8099 2.28139 12.7823 2.26114 12.7529 2.24274C12.7253 2.2225 12.6912 2.21053 12.6507 2.20685C12.6342 2.22894 12.6148 2.2501 12.5928 2.27035C12.5707 2.28875 12.5513 2.30899 12.5348 2.33108C12.5182 2.35316 12.5063 2.37709 12.4989 2.40285C12.4934 2.42862 12.498 2.45807 12.5127 2.49119C12.4704 2.51144 12.4418 2.54088 12.4271 2.57953C12.4124 2.61634 12.4023 2.65683 12.3968 2.701C12.3931 2.74517 12.3894 2.78934 12.3857 2.83351C12.382 2.87768 12.3701 2.91725 12.3498 2.95221L12.4106 2.91081C12.4179 2.91449 12.4234 2.92001 12.4271 2.92737C12.4326 2.93473 12.4336 2.94301 12.4299 2.95221C12.4446 2.93749 12.4612 2.92645 12.4796 2.91909C12.498 2.90988 12.5164 2.90344 12.5348 2.89976C12.555 2.89424 12.5744 2.88964 12.5928 2.88596C12.613 2.88228 12.6323 2.87676 12.6507 2.8694C12.6967 2.89516 12.7299 2.90068 12.7501 2.88596C12.7704 2.87124 12.7869 2.84915 12.7998 2.81971C12.8127 2.79026 12.8265 2.75989 12.8412 2.72861C12.8559 2.69548 12.8799 2.67523 12.913 2.66787L12.8937 2.64855C12.9249 2.6099 12.9526 2.57033 12.9765 2.52984C13.0022 2.48751 13.0142 2.44058 13.0124 2.38905Z" fill="white"/>
<path d="M15.7205 2.4415C15.6782 2.46175 15.6497 2.48659 15.6349 2.51604C15.6202 2.54549 15.6083 2.57585 15.599 2.60714C15.5917 2.63843 15.5816 2.66879 15.5687 2.69824C15.5576 2.72584 15.5328 2.74885 15.4941 2.76725C15.4849 2.80038 15.4665 2.82339 15.4389 2.83627C15.4132 2.84915 15.3856 2.86111 15.3561 2.87216C15.3267 2.88136 15.3 2.89424 15.2761 2.91081C15.254 2.92737 15.2429 2.95589 15.2429 2.99638C15.2061 3.01663 15.1656 3.03503 15.1215 3.0516C15.0791 3.06816 15.034 3.08012 14.9862 3.08748C14.9402 3.09669 14.8942 3.10037 14.8482 3.09853C14.8022 3.09669 14.7589 3.08748 14.7184 3.07092C14.6908 3.05804 14.6641 3.04147 14.6384 3.02123C14.6292 3.01387 14.62 3.00743 14.6108 3.0019C14.6034 2.99822 14.5951 2.99178 14.5859 2.98258C14.5638 2.9605 14.5454 2.93473 14.5307 2.90528C14.516 2.87584 14.504 2.84455 14.4948 2.81142C14.4856 2.7783 14.4782 2.74517 14.4727 2.71204C14.4672 2.67891 14.4626 2.64763 14.4589 2.61818L14.5611 2.34212C14.5077 2.29979 14.4644 2.25102 14.4313 2.19581C14.3982 2.13876 14.3577 2.08631 14.3098 2.03846C14.3006 2.05134 14.2887 2.06238 14.274 2.07158C14.2592 2.08078 14.2537 2.09551 14.2574 2.11575L14.285 2.1406C14.2243 2.20685 14.1626 2.28231 14.1 2.36697C14.0393 2.44978 13.9915 2.53352 13.9565 2.61818C13.916 2.61634 13.8875 2.62646 13.8709 2.64855C13.8544 2.66879 13.8405 2.69272 13.8295 2.72032C13.8185 2.74609 13.8047 2.77001 13.7881 2.7921C13.7715 2.81418 13.7439 2.82339 13.7053 2.81971C13.6961 2.83995 13.6869 2.86203 13.6777 2.88596C13.6685 2.90804 13.6574 2.92921 13.6445 2.94945C13.6317 2.9697 13.616 2.98626 13.5976 2.99914C13.5792 3.01387 13.5562 3.02123 13.5286 3.02123C13.5139 3.00651 13.5056 2.99086 13.5038 2.9743C13.5019 2.95774 13.5038 2.94117 13.5093 2.92461C13.5148 2.9062 13.5222 2.88872 13.5314 2.87216C13.5406 2.85375 13.547 2.83627 13.5507 2.81971C13.5654 2.76633 13.5921 2.71848 13.6307 2.67615C13.6694 2.63198 13.708 2.58873 13.7467 2.54641C13.7853 2.50224 13.8185 2.45623 13.8461 2.40838C13.8737 2.36053 13.8847 2.30439 13.8792 2.23998C13.9031 2.23814 13.927 2.23354 13.951 2.22618C13.9767 2.21697 13.9997 2.20593 14.02 2.19305C14.0421 2.17833 14.0586 2.16084 14.0697 2.1406C14.0826 2.11851 14.0872 2.09275 14.0835 2.0633C14.0688 2.05594 14.0605 2.04582 14.0586 2.03293C14.0568 2.01821 14.0568 2.00349 14.0586 1.98876C14.0991 1.97588 14.1313 1.9538 14.1553 1.92251C14.181 1.88938 14.204 1.85442 14.2243 1.81761C14.2445 1.7808 14.2638 1.74399 14.2822 1.70718C14.3025 1.66853 14.3283 1.63541 14.3595 1.6078C14.3853 1.62252 14.4111 1.63541 14.4368 1.64645C14.4626 1.65565 14.4874 1.66853 14.5114 1.6851C14.4948 1.70718 14.4847 1.72835 14.481 1.74859C14.4773 1.76884 14.4755 1.79 14.4755 1.81209C14.4755 1.83233 14.4755 1.85257 14.4755 1.87282C14.4755 1.89306 14.47 1.91423 14.4589 1.93631C14.4884 1.96208 14.5132 1.99245 14.5335 2.02741C14.5537 2.06238 14.5795 2.09183 14.6108 2.11575C14.6328 2.09919 14.6577 2.09091 14.6853 2.09091C14.7129 2.08907 14.7405 2.08907 14.7681 2.09091C14.7976 2.09091 14.8252 2.08907 14.8509 2.08539C14.8767 2.07986 14.8979 2.06422 14.9144 2.03846C14.9218 2.04582 14.9328 2.0495 14.9475 2.0495C14.9623 2.0495 14.977 2.0495 14.9917 2.0495C15.0064 2.0495 15.0193 2.05226 15.0304 2.05778C15.0414 2.06146 15.0478 2.06974 15.0497 2.08262C15.0515 2.09735 15.0506 2.10747 15.0469 2.11299C15.0451 2.11851 15.0423 2.12771 15.0386 2.1406C15.035 2.15532 15.034 2.16268 15.0359 2.16268C15.0377 2.16268 15.0359 2.16912 15.0304 2.18201C15.0212 2.20593 15.0055 2.22618 14.9834 2.24274C14.9632 2.2593 14.942 2.27587 14.9199 2.29243C14.8997 2.30715 14.8804 2.32464 14.862 2.34488C14.8454 2.36329 14.8371 2.38721 14.8371 2.41666C14.7966 2.43138 14.7681 2.45347 14.7515 2.48291C14.735 2.51052 14.7239 2.54272 14.7184 2.57953C14.7129 2.6145 14.7092 2.65131 14.7074 2.68996C14.7055 2.72676 14.6991 2.76081 14.6881 2.7921L14.7129 2.81971L14.735 2.7921C14.7607 2.82891 14.7911 2.85191 14.8261 2.86111C14.8629 2.87032 14.9006 2.87308 14.9393 2.8694C14.9577 2.84179 14.9788 2.81971 15.0028 2.80314C15.0285 2.78658 15.0552 2.77278 15.0828 2.76173C15.1123 2.75069 15.1417 2.74057 15.1712 2.73137C15.2024 2.72216 15.2319 2.71112 15.2595 2.69824C15.2816 2.6872 15.3 2.67523 15.3147 2.66235C15.3313 2.64947 15.3488 2.63474 15.3672 2.61818C15.4224 2.56665 15.4767 2.51604 15.53 2.46635C15.5852 2.41666 15.6405 2.36605 15.6957 2.31452C15.7067 2.31452 15.7141 2.32004 15.7178 2.33108C15.7214 2.34212 15.7233 2.355 15.7233 2.36973C15.7233 2.38261 15.7224 2.39641 15.7205 2.41114C15.7205 2.42402 15.7205 2.43414 15.7205 2.4415Z" fill="white"/>
<path d="M17.399 2.08262C17.4008 2.11023 17.3953 2.13692 17.3824 2.16268C17.3714 2.18845 17.3612 2.21145 17.352 2.2317L17.2637 2.32556L17.2112 2.48291C17.191 2.49764 17.1689 2.51236 17.145 2.52708C17.1229 2.53996 17.1027 2.55377 17.0843 2.56849C17.064 2.58505 17.0456 2.60346 17.029 2.6237C17.0143 2.64395 16.9978 2.66143 16.9793 2.67615C16.9609 2.69088 16.9389 2.70376 16.9131 2.7148C16.8892 2.724 16.8671 2.73505 16.8468 2.74793C16.81 2.77001 16.7751 2.79302 16.7419 2.81694C16.7107 2.84087 16.6775 2.86387 16.6426 2.88596C16.6334 2.88964 16.626 2.89424 16.6205 2.89976C16.6168 2.90344 16.6103 2.90712 16.6011 2.91081C16.5956 2.91449 16.5717 2.92185 16.5294 2.93289C16.487 2.94393 16.4401 2.95682 16.3886 2.97154C16.3389 2.98442 16.292 2.99638 16.2478 3.00743C16.2036 3.01847 16.1788 3.02399 16.1733 3.02399C16.1401 3.02767 16.1061 3.02951 16.0711 3.02951C16.0361 3.02951 16.0012 3.03043 15.9662 3.03227L15.9248 3.05712C15.9046 3.04239 15.8825 3.02859 15.8585 3.01571C15.8346 3.00283 15.8144 2.98902 15.7978 2.9743C15.7794 2.95774 15.761 2.93933 15.7426 2.91909C15.7242 2.897 15.7076 2.87676 15.6929 2.85835C15.6837 2.83259 15.6745 2.80774 15.6653 2.78382C15.6561 2.75805 15.6487 2.73321 15.6432 2.70928L15.6294 2.60438C15.6257 2.56941 15.6221 2.53536 15.6184 2.50224C15.6165 2.46911 15.6138 2.43506 15.6101 2.40009C15.6414 2.3136 15.669 2.2271 15.6929 2.1406C15.7187 2.05226 15.75 1.96576 15.7868 1.8811C15.796 1.86086 15.8043 1.84061 15.8116 1.82037C15.8208 1.79828 15.83 1.77712 15.8392 1.75687C15.8503 1.73479 15.8622 1.71454 15.8751 1.69614C15.888 1.6759 15.899 1.65565 15.9082 1.63541C15.9174 1.61332 15.9248 1.59124 15.9303 1.56915C15.9358 1.54523 15.9432 1.52314 15.9524 1.5029C15.9579 1.49186 15.9671 1.47621 15.98 1.45597C15.9929 1.43388 16.0067 1.4118 16.0214 1.38971C16.0361 1.36579 16.0499 1.34278 16.0628 1.3207C16.0776 1.29861 16.0895 1.28113 16.0987 1.26825C16.1134 1.24984 16.1282 1.23236 16.1429 1.2158C16.1576 1.19923 16.1696 1.18083 16.1788 1.16058C16.1972 1.1293 16.2147 1.08973 16.2312 1.04188C16.2478 0.994028 16.2662 0.951699 16.2864 0.914891C16.3085 0.874402 16.3343 0.836674 16.3637 0.801706C16.395 0.764898 16.4235 0.72717 16.4493 0.688521C16.4769 0.649873 16.5036 0.607544 16.5294 0.561534L16.6508 0.473195L16.7061 0.528407L16.8386 0.506322L16.9214 0.630549C16.9177 0.658155 16.9131 0.689442 16.9076 0.724409C16.9039 0.759377 16.9002 0.795265 16.8965 0.832073C16.8947 0.86704 16.8929 0.902008 16.891 0.936976C16.891 0.970103 16.8929 0.999549 16.8965 1.02531C16.8873 1.05844 16.8735 1.09341 16.8551 1.13022C16.8386 1.16519 16.8192 1.19555 16.7972 1.22132L16.7861 1.37039L16.6757 1.46977L16.6619 1.61056L16.568 1.72099C16.5625 1.74675 16.557 1.77344 16.5515 1.80104C16.5459 1.82681 16.5386 1.85165 16.5294 1.87558C16.5202 1.89766 16.5091 1.92067 16.4962 1.94459C16.4834 1.96668 16.4705 1.98968 16.4576 2.01361C16.4208 2.0449 16.3831 2.07986 16.3444 2.11851C16.3058 2.15716 16.2708 2.19581 16.2395 2.23446C16.2229 2.2547 16.2073 2.27679 16.1926 2.30071C16.1797 2.3228 16.1659 2.34396 16.1512 2.36421C16.1033 2.42494 16.0518 2.48199 15.9966 2.53536C15.9414 2.58873 15.8871 2.64395 15.8337 2.701L15.8944 2.80866C15.9331 2.82155 15.9727 2.83351 16.0131 2.84455C16.0536 2.85559 16.0941 2.86572 16.1346 2.87492C16.153 2.87124 16.1742 2.86756 16.1981 2.86387C16.222 2.85835 16.2469 2.85283 16.2726 2.84731C16.2984 2.83995 16.3232 2.83259 16.3472 2.82523C16.3729 2.81786 16.3941 2.8105 16.4107 2.80314C16.4475 2.78842 16.4898 2.76725 16.5377 2.73965C16.5855 2.7102 16.626 2.68444 16.6591 2.66235C16.718 2.62554 16.7778 2.58781 16.8386 2.54917C16.8993 2.51052 16.9573 2.47003 17.0125 2.4277C17.0493 2.40009 17.0879 2.36513 17.1284 2.3228C17.1689 2.28047 17.2066 2.2409 17.2416 2.20409C17.2784 2.16544 17.3106 2.13416 17.3382 2.11023C17.3677 2.08631 17.3879 2.0771 17.399 2.08262ZM16.6481 0.776861C16.6094 0.841275 16.568 0.903848 16.5239 0.964582C16.4815 1.02347 16.442 1.08513 16.4051 1.14954C16.3923 1.17163 16.3812 1.19463 16.372 1.21856C16.3628 1.24064 16.3509 1.26273 16.3361 1.28481C16.3232 1.30506 16.3094 1.3253 16.2947 1.34554C16.28 1.36579 16.2671 1.38787 16.2561 1.4118C16.234 1.45413 16.2137 1.49922 16.1953 1.54707C16.1788 1.59308 16.1604 1.63817 16.1401 1.68234C16.118 1.72651 16.0923 1.76792 16.0628 1.80656C16.0334 1.84521 16.0067 1.88662 15.9828 1.93079L15.9386 2.01913C15.9349 2.02833 15.9312 2.03569 15.9276 2.04122C15.9239 2.0449 15.9202 2.05134 15.9165 2.06054C15.9092 2.08078 15.9055 2.10287 15.9055 2.12679C15.9055 2.15072 15.9027 2.1728 15.8972 2.19305C15.8917 2.21513 15.8834 2.2363 15.8723 2.25654C15.8613 2.27679 15.8512 2.29703 15.842 2.31728C15.8328 2.33752 15.8254 2.35868 15.8199 2.38077C15.8144 2.40101 15.8079 2.42126 15.8006 2.4415C15.8153 2.42678 15.8309 2.4139 15.8475 2.40285C15.8659 2.38997 15.8834 2.37617 15.9 2.36145C15.9165 2.34488 15.9322 2.3274 15.9469 2.30899C15.9616 2.29059 15.9782 2.27403 15.9966 2.2593C16.0131 2.24458 16.0306 2.2317 16.049 2.22065C16.0693 2.20777 16.0886 2.19489 16.107 2.18201C16.1364 2.14152 16.1622 2.10011 16.1843 2.05778C16.1953 2.03754 16.2045 2.01453 16.2119 1.98876C16.2211 1.963 16.2321 1.93999 16.245 1.91975C16.2561 1.8995 16.2699 1.88018 16.2864 1.86178C16.3048 1.84337 16.3205 1.82405 16.3334 1.8038C16.3481 1.78356 16.3601 1.7624 16.3693 1.74031C16.3803 1.71823 16.3923 1.69706 16.4051 1.67682C16.4309 1.63633 16.4594 1.59768 16.4907 1.56087L16.5045 1.38695L16.6039 1.27101L16.6177 1.16611L16.6867 1.06948L16.695 0.914891L16.6481 0.776861Z" fill="white"/>
<path d="M19.1934 2.38629C19.1529 2.47831 19.1161 2.55009 19.0829 2.60162C19.0498 2.65131 19.013 2.69272 18.9725 2.72584C18.9339 2.75897 18.8888 2.79026 18.8372 2.81971C18.7857 2.84731 18.7222 2.88688 18.6468 2.93841C18.6155 2.94025 18.5814 2.94761 18.5446 2.9605C18.5078 2.97154 18.4765 2.98718 18.4508 3.00743C18.3955 3.0019 18.3449 2.98994 18.2989 2.97154C18.2529 2.95313 18.2097 2.92369 18.1692 2.8832C18.16 2.874 18.1517 2.86387 18.1443 2.85283C18.137 2.84179 18.1287 2.83167 18.1195 2.82247C18.0992 2.79854 18.0864 2.77738 18.0808 2.75897C18.0753 2.74057 18.0707 2.71664 18.067 2.6872C18.0597 2.64487 18.0486 2.6145 18.0339 2.5961C18.0192 2.57769 17.9907 2.58689 17.9483 2.6237L17.9235 2.60162L17.918 2.60714C17.9014 2.62002 17.8876 2.63106 17.8765 2.64027C17.8673 2.64947 17.8572 2.65959 17.8462 2.67063C17.837 2.67983 17.8278 2.68996 17.8186 2.701C17.8094 2.71204 17.7983 2.72584 17.7854 2.74241C17.7634 2.77001 17.7385 2.79854 17.7109 2.82799C17.6851 2.85743 17.6548 2.87768 17.6198 2.88872C17.6143 2.89424 17.6097 2.89976 17.606 2.90528C17.6023 2.90896 17.5959 2.91173 17.5867 2.91357C17.5756 2.91725 17.5628 2.91633 17.548 2.91081C17.5333 2.90528 17.5213 2.89792 17.5121 2.88872C17.4919 2.88872 17.4735 2.89424 17.4569 2.90528C17.4422 2.91449 17.4275 2.92737 17.4128 2.94393C17.3999 2.95866 17.387 2.9743 17.3741 2.99086C17.3631 3.00743 17.3502 3.02123 17.3355 3.03227C17.306 3.02123 17.2784 3.01939 17.2526 3.02675C17.2287 3.03411 17.2048 3.04055 17.1809 3.04607C17.1569 3.05344 17.133 3.0562 17.1091 3.05436C17.0852 3.05436 17.0612 3.04055 17.0373 3.01295C17.0263 2.95774 17.0171 2.90712 17.0097 2.86111C17.0024 2.82247 16.9959 2.78566 16.9904 2.75069C16.9849 2.71572 16.9821 2.69456 16.9821 2.6872C16.9913 2.67799 16.9959 2.66603 16.9959 2.65131C16.9941 2.63474 16.9913 2.62094 16.9876 2.6099C16.984 2.60806 16.9821 2.60622 16.9821 2.60438C16.9821 2.60254 16.9803 2.6007 16.9766 2.59886C16.9858 2.5915 16.9932 2.58229 16.9987 2.57125C17.0024 2.56021 17.0088 2.55101 17.018 2.54365C17.0125 2.52892 17.006 2.51236 16.9987 2.49395C16.9913 2.47555 16.9876 2.45715 16.9876 2.43874C16.9932 2.42402 16.9987 2.41574 17.0042 2.4139C17.0079 2.41206 17.018 2.4093 17.0346 2.40562C17.0327 2.39641 17.0309 2.38813 17.029 2.38077C17.0254 2.37157 17.0244 2.36237 17.0263 2.35316C17.0263 2.33476 17.0309 2.31912 17.0401 2.30623C17.0474 2.29151 17.0557 2.27771 17.0649 2.26482C17.0741 2.2501 17.0824 2.23446 17.0898 2.21789C17.0971 2.20133 17.1008 2.18201 17.1008 2.15992V2.14612C17.1284 2.14612 17.1468 2.13876 17.156 2.12403C17.1652 2.10747 17.1708 2.08907 17.1726 2.06882C17.1744 2.04858 17.1754 2.02833 17.1754 2.00809C17.1754 1.98784 17.1809 1.97312 17.1919 1.96392C17.1993 1.95656 17.2057 1.9538 17.2112 1.95564C17.2186 1.95564 17.2269 1.95564 17.2361 1.95564C17.2471 1.94275 17.2545 1.93355 17.2582 1.92803C17.2619 1.92067 17.2609 1.90779 17.2554 1.88938C17.2683 1.88938 17.2784 1.88662 17.2858 1.8811C17.2931 1.87558 17.2987 1.86822 17.3023 1.85902C17.3079 1.84981 17.3125 1.84061 17.3161 1.83141C17.3217 1.82221 17.3281 1.81393 17.3355 1.80656C17.3355 1.76055 17.3474 1.72835 17.3714 1.70994C17.3953 1.69154 17.422 1.67682 17.4514 1.66577C17.4827 1.65289 17.5131 1.63817 17.5425 1.6216C17.5738 1.60504 17.5968 1.57559 17.6115 1.53327C17.6355 1.54799 17.6557 1.54983 17.6723 1.53879C17.6888 1.5259 17.7045 1.51302 17.7192 1.50014C17.7339 1.48541 17.7505 1.47621 17.7689 1.47253C17.7873 1.46701 17.8103 1.47897 17.8379 1.50842C17.8489 1.47345 17.871 1.45505 17.9042 1.45321C17.9391 1.45137 17.9704 1.45873 17.998 1.47529V1.47805H18.0008C18.0302 1.48357 18.0523 1.4983 18.067 1.52222C18.0817 1.54431 18.0937 1.57007 18.1029 1.59952C18.114 1.62713 18.125 1.65473 18.136 1.68234C18.1489 1.70994 18.1664 1.73203 18.1885 1.74859C18.1995 1.70074 18.2097 1.65197 18.2189 1.60228C18.2299 1.55259 18.2474 1.50566 18.2713 1.46149C18.2879 1.48173 18.3054 1.48541 18.3238 1.47253L18.321 1.46701C18.321 1.43756 18.3265 1.41088 18.3376 1.38695C18.3504 1.36303 18.3624 1.34002 18.3735 1.31794C18.3863 1.29401 18.3937 1.27009 18.3955 1.24616C18.3992 1.2204 18.3909 1.19187 18.3707 1.16058C18.402 1.15138 18.4241 1.1339 18.4369 1.10813C18.4517 1.08237 18.4627 1.05476 18.4701 1.02531C18.4793 0.994028 18.4885 0.962741 18.4977 0.931454C18.5087 0.900167 18.5253 0.873482 18.5474 0.851397C18.5474 0.845876 18.5465 0.840354 18.5446 0.834833C18.5446 0.829312 18.5446 0.823791 18.5446 0.81827C18.5465 0.803546 18.552 0.790664 18.5612 0.779621C18.5704 0.768579 18.5805 0.757536 18.5915 0.746494C18.6026 0.735452 18.6118 0.723489 18.6191 0.710606C18.6283 0.695883 18.632 0.678399 18.6302 0.658155C18.6486 0.63423 18.6652 0.602943 18.6799 0.564294C18.6946 0.523806 18.7102 0.486077 18.7268 0.45111C18.7434 0.416142 18.7627 0.390377 18.7848 0.373813C18.8069 0.355409 18.8354 0.356329 18.8704 0.376574C18.8777 0.398658 18.8805 0.418903 18.8786 0.437307C18.8768 0.45387 18.8667 0.471354 18.8483 0.489758C18.8593 0.500801 18.8676 0.510003 18.8731 0.517364C18.8676 0.574417 18.8566 0.631469 18.84 0.688521C18.8253 0.743733 18.8105 0.798025 18.7958 0.851397C18.7995 0.855078 18.8032 0.858758 18.8069 0.862439C18.8105 0.86612 18.8142 0.869801 18.8179 0.873482C18.7866 0.917651 18.7609 0.961821 18.7406 1.00599C18.7222 1.05016 18.7056 1.09801 18.6909 1.14954C18.6854 1.16979 18.6799 1.19095 18.6744 1.21304C18.6707 1.23512 18.6652 1.25536 18.6578 1.27377C18.6486 1.29217 18.6376 1.31242 18.6247 1.3345C18.6118 1.35475 18.6007 1.37499 18.5915 1.39524C18.5713 1.43756 18.5529 1.48081 18.5363 1.52498C18.5216 1.56731 18.5069 1.61056 18.4922 1.65473C18.4738 1.7081 18.4544 1.76055 18.4342 1.81209C18.4158 1.86362 18.3928 1.91423 18.3652 1.96392V2.00809C18.3633 2.02833 18.3569 2.04306 18.3458 2.05226C18.3348 2.05962 18.3219 2.06698 18.3072 2.07434C18.2943 2.07986 18.2814 2.08907 18.2686 2.10195C18.2557 2.11299 18.2465 2.13232 18.2409 2.15992V2.16268L18.2437 2.16544C18.2621 2.20593 18.2658 2.24366 18.2547 2.27863C18.2455 2.31175 18.2345 2.34488 18.2216 2.37801C18.2087 2.4093 18.1995 2.44058 18.194 2.47187C18.1903 2.50316 18.2032 2.53536 18.2327 2.56849C18.2308 2.6053 18.2382 2.63474 18.2547 2.65683C18.2713 2.67707 18.2906 2.69456 18.3127 2.70928C18.3348 2.724 18.3569 2.73781 18.379 2.75069C18.4029 2.76173 18.4204 2.77646 18.4314 2.79486C18.4498 2.77646 18.4692 2.76265 18.4894 2.75345C18.5115 2.74241 18.5326 2.73413 18.5529 2.72861C18.575 2.72308 18.5961 2.71848 18.6164 2.7148C18.6385 2.70928 18.6596 2.70284 18.6799 2.69548C18.7277 2.6826 18.7609 2.66695 18.7793 2.64855C18.7977 2.63014 18.8069 2.61818 18.8069 2.61266C18.8087 2.58689 18.8179 2.57033 18.8345 2.56297C18.8529 2.55561 18.8731 2.55101 18.8952 2.54917C18.9191 2.54549 18.9421 2.54088 18.9642 2.53536C18.9881 2.52984 19.0056 2.51604 19.0167 2.49395C19.0369 2.49579 19.0544 2.48935 19.0691 2.47463C19.0857 2.45807 19.1004 2.4415 19.1133 2.42494C19.1262 2.40838 19.1391 2.39457 19.1519 2.38353C19.1648 2.37249 19.1786 2.37341 19.1934 2.38629ZM18.0587 1.96116C18.0293 1.93907 18.0091 1.91423 17.998 1.88662C17.9888 1.85718 17.9805 1.82773 17.9732 1.79828C17.9676 1.76884 17.9594 1.74123 17.9483 1.71546C17.9391 1.68786 17.9198 1.66485 17.8903 1.64645L17.8848 1.64369C17.883 1.64369 17.8729 1.64553 17.8545 1.64921C17.8361 1.65289 17.825 1.65565 17.8213 1.65749C17.8361 1.67038 17.8453 1.68142 17.8489 1.69062C17.8526 1.69982 17.8526 1.70902 17.8489 1.71823C17.8471 1.72743 17.8425 1.73755 17.8351 1.74859C17.8296 1.75779 17.825 1.76976 17.8213 1.78448C17.8177 1.78816 17.8103 1.78724 17.7992 1.78172C17.7882 1.77436 17.7799 1.76884 17.7744 1.76516C17.7486 1.8038 17.7118 1.82957 17.664 1.84245C17.618 1.85349 17.5738 1.86454 17.5315 1.87558C17.5352 1.88478 17.5388 1.89306 17.5425 1.90043C17.5462 1.90779 17.5499 1.91607 17.5536 1.92527C17.4983 1.96208 17.4579 2.00717 17.4321 2.06054C17.4082 2.11207 17.3861 2.16636 17.3658 2.22342C17.3474 2.27863 17.3244 2.33292 17.2968 2.38629C17.2711 2.43782 17.2306 2.48199 17.1754 2.5188C17.1846 2.53352 17.191 2.54825 17.1947 2.56297C17.1984 2.57769 17.2103 2.58873 17.2306 2.5961C17.2361 2.61634 17.2379 2.63751 17.2361 2.65959C17.2361 2.67983 17.2342 2.70008 17.2306 2.72032C17.2269 2.74057 17.2241 2.76173 17.2223 2.78382C17.2223 2.80406 17.225 2.82523 17.2306 2.84731L17.2361 2.85283C17.2931 2.87308 17.3373 2.87492 17.3686 2.85835C17.4017 2.84179 17.4302 2.82063 17.4542 2.79486C17.4799 2.76909 17.5075 2.74517 17.537 2.72308C17.5664 2.701 17.6078 2.69548 17.6612 2.70652L17.6723 2.68996C17.6686 2.68075 17.6658 2.67247 17.664 2.66511C17.6621 2.65775 17.6612 2.64947 17.6612 2.64027C17.6631 2.62002 17.6686 2.60438 17.6778 2.59334C17.687 2.58045 17.6989 2.56665 17.7137 2.55193C17.7266 2.5372 17.7385 2.52156 17.7496 2.505C17.7624 2.48843 17.7744 2.47095 17.7854 2.45255C17.7965 2.43598 17.8094 2.42218 17.8241 2.41114C17.8388 2.39825 17.8581 2.39641 17.8821 2.40562L17.9345 2.20685C17.9364 2.19765 17.9446 2.18937 17.9594 2.18201C17.9759 2.17464 17.9897 2.16636 18.0008 2.15716C18.0137 2.14796 18.021 2.136 18.0229 2.12127C18.0265 2.10655 18.0164 2.08723 17.9925 2.0633C17.9962 2.05594 17.9989 2.04674 18.0008 2.03569C18.0026 2.02465 18.0054 2.01453 18.0091 2.00533C18.0127 1.99613 18.0173 1.98876 18.0229 1.98324C18.0284 1.97772 18.0376 1.9768 18.0505 1.98048L18.0587 1.96116Z" fill="white"/>
<path d="M20.154 0.556013C20.1577 0.576257 20.1568 0.597422 20.1513 0.619506C20.1476 0.641591 20.143 0.664596 20.1375 0.688521C20.132 0.710606 20.1264 0.733611 20.1209 0.757536C20.1172 0.779621 20.1172 0.802626 20.1209 0.826551L20.0767 0.884524L20.0961 0.898327C20.0703 0.909369 20.0528 0.927773 20.0436 0.953539C20.0363 0.979305 20.0307 1.00599 20.0271 1.0336C20.0234 1.0612 20.0169 1.08789 20.0077 1.11365C20.0004 1.13758 19.9829 1.15506 19.9553 1.16611C19.9516 1.21027 19.9406 1.2526 19.9222 1.29309C19.9037 1.33358 19.8844 1.37407 19.8642 1.41456C19.8568 1.4256 19.8485 1.43756 19.8393 1.45045C19.832 1.46149 19.8264 1.47253 19.8228 1.48357C19.8154 1.50382 19.809 1.52222 19.8034 1.53879C19.7998 1.55535 19.7933 1.57283 19.7841 1.59124C19.7749 1.61332 19.7639 1.63449 19.751 1.65473C19.7381 1.67314 19.7261 1.69246 19.7151 1.7127C19.7114 1.72191 19.7077 1.73203 19.7041 1.74307C19.7004 1.75411 19.6958 1.76424 19.6903 1.77344C19.6737 1.80656 19.6571 1.83877 19.6406 1.87006C19.6258 1.8995 19.6166 1.93355 19.613 1.9722C19.5872 1.99429 19.567 2.02005 19.5522 2.0495C19.5393 2.07894 19.5265 2.10839 19.5136 2.13784C19.5025 2.16728 19.4906 2.19489 19.4777 2.22065C19.4648 2.24458 19.4473 2.26482 19.4252 2.28139C19.4105 2.27403 19.3995 2.2639 19.3921 2.25102C19.3848 2.2363 19.3792 2.22158 19.3756 2.20685C19.3737 2.19213 19.3719 2.17649 19.37 2.15992C19.37 2.14336 19.3682 2.12863 19.3645 2.11575C19.3903 2.10287 19.4068 2.08539 19.4142 2.0633C19.4216 2.04122 19.4252 2.01821 19.4252 1.99429C19.4252 1.96852 19.4252 1.94367 19.4252 1.91975C19.4271 1.89398 19.4335 1.87098 19.4446 1.85073C19.4501 1.84153 19.4556 1.83509 19.4611 1.83141C19.4667 1.82773 19.4731 1.82221 19.4805 1.81485C19.5025 1.7946 19.52 1.76792 19.5329 1.73479C19.5476 1.69982 19.5605 1.66301 19.5716 1.62437C19.5826 1.58388 19.5927 1.54431 19.6019 1.50566C19.613 1.46701 19.6249 1.43388 19.6378 1.40628L19.6985 1.34554L19.6792 1.32898C19.6976 1.30322 19.7123 1.27653 19.7234 1.24892C19.7344 1.21948 19.7455 1.19095 19.7565 1.16334C19.7676 1.13574 19.7814 1.10905 19.7979 1.08329C19.8145 1.05752 19.8366 1.03544 19.8642 1.01703C19.855 0.976544 19.8531 0.939736 19.8587 0.906609C19.866 0.871641 19.878 0.838514 19.8945 0.807227C19.9111 0.77594 19.9304 0.745574 19.9525 0.716127C19.9764 0.686681 19.9994 0.656314 20.0215 0.625028C20.0123 0.58822 20.0197 0.557853 20.0436 0.533928C20.0547 0.535768 20.0657 0.534848 20.0767 0.531167C20.0878 0.527486 20.0988 0.524726 20.1099 0.522885C20.1209 0.521045 20.1301 0.521965 20.1375 0.525646C20.1448 0.529327 20.1504 0.539449 20.154 0.556013ZM19.3397 2.78658L19.3535 2.80038C19.3424 2.81326 19.3305 2.82707 19.3176 2.84179C19.3047 2.85651 19.29 2.87032 19.2734 2.8832C19.2587 2.89424 19.2421 2.90344 19.2237 2.91081C19.2072 2.91633 19.1897 2.91633 19.1713 2.91081C19.1473 2.91449 19.1253 2.90804 19.105 2.89148C19.0866 2.87492 19.0783 2.85467 19.0802 2.83075C19.082 2.80682 19.0884 2.78842 19.0995 2.77554C19.1124 2.76265 19.1243 2.74793 19.1354 2.73137L19.1271 2.72032C19.1271 2.7056 19.1289 2.69548 19.1326 2.68996C19.1363 2.68444 19.14 2.67523 19.1437 2.66235C19.1492 2.6329 19.1621 2.61174 19.1823 2.59886C19.2044 2.58413 19.2274 2.57769 19.2513 2.57953C19.2771 2.57953 19.3001 2.58781 19.3203 2.60438C19.3406 2.6191 19.3525 2.64027 19.3562 2.66787C19.3617 2.67707 19.3627 2.68812 19.359 2.701C19.3571 2.71204 19.3535 2.72216 19.3479 2.73137C19.3535 2.73689 19.3636 2.74333 19.3783 2.75069L19.3397 2.78658Z" fill="white"/>
</svg>
