<svg width="86" height="13" viewBox="0 0 86 13" fill="none" xmlns="http://www.w3.org/2000/svg">
<path d="M12.2852 7.65234C11.8867 7.83203 11.4766 7.98047 11.0547 8.09766C10.6406 8.20703 10.2227 8.3125 9.80078 8.41406C9.78516 8.41406 9.74219 8.42188 9.67188 8.4375C9.60938 8.45312 9.54297 8.47266 9.47266 8.49609C9.40234 8.51172 9.33594 8.52734 9.27344 8.54297C9.21875 8.55078 9.19141 8.55469 9.19141 8.55469C9.09766 8.52344 9.00391 8.52344 8.91016 8.55469C8.82422 8.57812 8.73438 8.60938 8.64062 8.64844C8.55469 8.6875 8.46094 8.71875 8.35938 8.74219C8.25781 8.75781 8.14453 8.73828 8.01953 8.68359C7.99609 8.67578 7.95312 8.68359 7.89062 8.70703C7.82812 8.72266 7.76562 8.74609 7.70312 8.77734C7.64062 8.80859 7.58594 8.84766 7.53906 8.89453C7.49219 8.93359 7.46484 8.96875 7.45703 9L7.52734 9.07031C7.53516 9.09375 7.52344 9.14062 7.49219 9.21094C7.46094 9.27344 7.42578 9.34375 7.38672 9.42188C7.34766 9.49219 7.30469 9.55859 7.25781 9.62109C7.21875 9.68359 7.1875 9.72266 7.16406 9.73828C7.17188 9.80859 7.15234 9.89453 7.10547 9.99609C7.06641 10.0898 7.01953 10.1914 6.96484 10.3008C6.91797 10.4102 6.87109 10.5234 6.82422 10.6406C6.78516 10.7578 6.76562 10.8672 6.76562 10.9688C6.76562 11 6.76953 11.0312 6.77734 11.0625C6.78516 11.0938 6.78516 11.1211 6.77734 11.1445L6.76562 11.168C6.6875 11.2305 6.62891 11.3125 6.58984 11.4141C6.55859 11.5078 6.53125 11.6094 6.50781 11.7188C6.49219 11.8203 6.46875 11.9219 6.4375 12.0234C6.41406 12.125 6.37109 12.2148 6.30859 12.293V12.3047L6.29688 12.3164C6.19531 12.3633 6.10938 12.3711 6.03906 12.3398C5.97656 12.3086 5.91797 12.2617 5.86328 12.1992C5.81641 12.1367 5.76953 12.0664 5.72266 11.9883C5.68359 11.9023 5.63672 11.8281 5.58203 11.7656C5.55078 11.6641 5.53906 11.5781 5.54688 11.5078C5.55469 11.4297 5.58984 11.3516 5.65234 11.2734L5.67578 11.2617C5.62891 11.1992 5.61328 11.1445 5.62891 11.0977C5.65234 11.043 5.67578 10.9922 5.69922 10.9453C5.73047 10.8984 5.75 10.8516 5.75781 10.8047C5.77344 10.75 5.75 10.6875 5.6875 10.6172L5.71094 10.5938C5.8125 10.4922 5.86719 10.3789 5.875 10.2539C5.88281 10.1211 5.875 9.98828 5.85156 9.85547C5.83594 9.72266 5.82422 9.58984 5.81641 9.45703C5.81641 9.32422 5.85547 9.20312 5.93359 9.09375L5.94531 9.08203C5.95312 9.03516 5.92188 8.97266 5.85156 8.89453C5.78125 8.81641 5.72656 8.75781 5.6875 8.71875C5.64062 8.83594 5.57812 8.89844 5.5 8.90625C5.42969 8.90625 5.34766 8.89453 5.25391 8.87109C5.16797 8.84766 5.08203 8.82812 4.99609 8.8125C4.91016 8.79688 4.83203 8.82422 4.76172 8.89453L4.70312 8.94141L4.67969 8.89453C4.64844 8.82422 4.60547 8.78906 4.55078 8.78906C4.50391 8.78125 4.44922 8.78125 4.38672 8.78906C4.29297 8.79688 4.20312 8.80469 4.11719 8.8125C4.03906 8.8125 3.95703 8.8125 3.87109 8.8125C3.82422 8.77344 3.76953 8.75781 3.70703 8.76562C3.65234 8.77344 3.59375 8.78125 3.53125 8.78906C3.47656 8.79688 3.41797 8.80078 3.35547 8.80078C3.30078 8.79297 3.24609 8.75781 3.19141 8.69531C3.13672 8.71875 3.05078 8.8125 2.93359 8.97656C2.81641 9.13281 2.69141 9.30859 2.55859 9.50391C2.43359 9.69922 2.3125 9.89062 2.19531 10.0781C2.08594 10.2578 2.01172 10.3828 1.97266 10.4531C1.94141 10.5 1.90234 10.5586 1.85547 10.6289C1.81641 10.6992 1.77344 10.7734 1.72656 10.8516C1.67969 10.9219 1.63672 10.9922 1.59766 11.0625C1.55859 11.125 1.52734 11.1797 1.50391 11.2266L1.51562 11.2617C1.51562 11.3398 1.50391 11.4023 1.48047 11.4492C1.45703 11.4883 1.42578 11.5234 1.38672 11.5547C1.35547 11.5781 1.32422 11.6016 1.29297 11.625C1.26172 11.6406 1.23438 11.6602 1.21094 11.6836C1.14844 11.6836 1.10156 11.6992 1.07031 11.7305C1.03906 11.7617 1.01172 11.7969 0.988281 11.8359C0.964844 11.875 0.9375 11.9102 0.90625 11.9414C0.867188 11.9727 0.808594 11.9883 0.730469 11.9883C0.699219 12.0273 0.679688 12.0547 0.671875 12.0703C0.664062 12.0859 0.652344 12.1172 0.636719 12.1641C0.621094 12.2188 0.609375 12.2578 0.601562 12.2812C0.585938 12.3047 0.574219 12.3203 0.566406 12.3281C0.550781 12.3438 0.535156 12.3555 0.519531 12.3633C0.503906 12.3789 0.488281 12.3984 0.472656 12.4219C0.425781 12.4297 0.390625 12.4219 0.367188 12.3984C0.34375 12.375 0.320312 12.3438 0.296875 12.3047C0.273438 12.2734 0.253906 12.2383 0.238281 12.1992C0.214844 12.168 0.1875 12.1445 0.15625 12.1289L0.167969 12.0938C0.324219 11.6328 0.511719 11.1953 0.730469 10.7812C0.949219 10.3594 1.18359 9.94141 1.43359 9.52734C1.44922 9.49609 1.46094 9.46484 1.46875 9.43359C1.47656 9.40234 1.48828 9.37109 1.50391 9.33984C1.54297 9.23828 1.58203 9.14062 1.62109 9.04688C1.66797 8.95312 1.72266 8.86328 1.78516 8.77734C1.83984 8.69141 1.88672 8.60938 1.92578 8.53125C1.97266 8.45312 2.01562 8.37109 2.05469 8.28516L2.03125 8.26172C1.78125 8.05859 1.5625 7.85156 1.375 7.64062C1.19531 7.42188 1.02344 7.17578 0.859375 6.90234C0.820312 6.83203 0.78125 6.76172 0.742188 6.69141C0.703125 6.61328 0.664062 6.54297 0.625 6.48047L0.613281 6.46875C0.613281 6.3125 0.625 6.15625 0.648438 6C0.671875 5.84375 0.742188 5.70703 0.859375 5.58984L0.871094 5.57812V5.56641C0.910156 5.48828 0.953125 5.42969 1 5.39062C1.04688 5.35156 1.09375 5.32031 1.14062 5.29688C1.19531 5.27344 1.25 5.25391 1.30469 5.23828C1.35938 5.21484 1.41406 5.17969 1.46875 5.13281V5.12109C1.64844 5.04297 1.82422 4.97656 1.99609 4.92188C2.16797 4.86719 2.35156 4.89062 2.54688 4.99219L2.57031 4.98047C2.64062 4.94141 2.72656 4.92188 2.82812 4.92188C2.92969 4.91406 3.01953 4.91016 3.09766 4.91016C3.14453 4.93359 3.19141 4.96484 3.23828 5.00391C3.29297 5.03516 3.34375 5.06641 3.39062 5.09766C3.44531 5.12891 3.5 5.15234 3.55469 5.16797C3.60938 5.18359 3.66016 5.17969 3.70703 5.15625H3.71875V5.14453C3.79688 5.06641 3.85938 4.95703 3.90625 4.81641C3.95312 4.66797 4 4.51172 4.04688 4.34766C4.10156 4.18359 4.16016 4.02344 4.22266 3.86719C4.28516 3.70312 4.37109 3.5625 4.48047 3.44531C4.48047 3.42188 4.49609 3.37109 4.52734 3.29297C4.55859 3.20703 4.58984 3.11328 4.62109 3.01172C4.66016 2.90234 4.6875 2.79688 4.70312 2.69531C4.72656 2.58594 4.72656 2.49609 4.70312 2.42578L4.80859 2.4375C4.83984 2.40625 4.85938 2.37891 4.86719 2.35547L4.85547 2.32031C4.82422 2.28906 4.8125 2.25 4.82031 2.20312C4.82812 2.15625 4.83984 2.11328 4.85547 2.07422H4.84375L4.83203 2.02734C4.85547 2.01953 4.89844 2.00391 4.96094 1.98047C5.03125 1.95703 5.10156 1.92969 5.17188 1.89844C5.24219 1.86719 5.30469 1.83984 5.35938 1.81641C5.42188 1.79297 5.45703 1.78125 5.46484 1.78125C5.57422 1.84375 5.63281 1.91406 5.64062 1.99219C5.65625 2.07031 5.65234 2.16406 5.62891 2.27344C5.62109 2.32812 5.61719 2.375 5.61719 2.41406C5.625 2.44531 5.62891 2.48438 5.62891 2.53125C5.62891 2.60938 5.60938 2.70703 5.57031 2.82422C5.53125 2.93359 5.48438 3.05078 5.42969 3.17578C5.38281 3.30078 5.32812 3.41797 5.26562 3.52734C5.20312 3.63672 5.14844 3.72656 5.10156 3.79688V3.86719C5.10156 4.03125 5.07812 4.20312 5.03125 4.38281C4.98438 4.55469 4.92578 4.72656 4.85547 4.89844C4.78516 5.07031 4.70703 5.23828 4.62109 5.40234C4.54297 5.56641 4.46484 5.72266 4.38672 5.87109C4.33203 5.96484 4.27344 6.07422 4.21094 6.19922C4.14844 6.31641 4.08594 6.4375 4.02344 6.5625C3.96875 6.6875 3.91797 6.81641 3.87109 6.94922C3.83203 7.07422 3.80469 7.1875 3.78906 7.28906V7.30078L3.49609 7.85156C3.52734 7.89062 3.57422 7.92578 3.63672 7.95703C3.70703 7.98047 3.77734 8.00391 3.84766 8.02734C3.92578 8.05078 4 8.07031 4.07031 8.08594C4.14844 8.09375 4.21484 8.09766 4.26953 8.09766C4.35547 8.09766 4.42578 8.10547 4.48047 8.12109C4.54297 8.12891 4.60547 8.16797 4.66797 8.23828L4.69141 8.26172H4.71484C4.77734 8.24609 4.83203 8.23828 4.87891 8.23828C4.92578 8.23828 4.98047 8.23828 5.04297 8.23828C5.10547 8.25391 5.16406 8.25781 5.21875 8.25C5.28125 8.24219 5.34375 8.23438 5.40625 8.22656L5.39453 8.30859C5.43359 8.34766 5.46484 8.375 5.48828 8.39062C5.52734 8.32812 5.57422 8.26562 5.62891 8.20312C5.66016 8.25 5.6875 8.28516 5.71094 8.30859C5.73438 8.29297 5.76172 8.26172 5.79297 8.21484C5.83203 8.16797 5.85938 8.14453 5.875 8.14453L5.88672 8.13281L5.89844 8.14453C6.03906 8.19141 6.16797 8.20703 6.28516 8.19141C6.40234 8.17578 6.53125 8.16797 6.67188 8.16797C6.69531 8.11328 6.72656 8.07031 6.76562 8.03906C6.8125 8.00781 6.85156 7.97656 6.88281 7.94531C6.92188 7.90625 6.94531 7.86719 6.95312 7.82812C6.96094 7.78906 6.94141 7.73438 6.89453 7.66406L6.88281 7.64062C6.88281 7.64062 6.89453 7.61719 6.91797 7.57031C6.94922 7.52344 6.98047 7.47266 7.01172 7.41797C7.04297 7.35547 7.07031 7.30078 7.09375 7.25391C7.125 7.20703 7.14453 7.17578 7.15234 7.16016C7.30859 6.90234 7.44531 6.64062 7.5625 6.375C7.67969 6.10156 7.73828 5.8125 7.73828 5.50781V5.42578C7.75391 5.41797 7.76953 5.41406 7.78516 5.41406C7.90234 5.36719 7.96484 5.30469 7.97266 5.22656C7.98047 5.14062 7.97656 5.05078 7.96094 4.95703C7.94531 4.86328 7.94531 4.76953 7.96094 4.67578C7.98438 4.58203 8.06641 4.5 8.20703 4.42969L8.23047 4.41797L8.24219 4.39453C8.28906 4.27734 8.32812 4.16016 8.35938 4.04297C8.39844 3.91797 8.44141 3.79688 8.48828 3.67969C8.63672 3.32812 8.74609 2.94922 8.81641 2.54297C8.83203 2.44922 8.86719 2.36719 8.92188 2.29688C8.98438 2.21875 9.04688 2.14453 9.10938 2.07422C9.17188 1.99609 9.22656 1.91797 9.27344 1.83984C9.32812 1.75391 9.35547 1.66016 9.35547 1.55859C9.35547 1.49609 9.34766 1.45312 9.33203 1.42969V1.39453L9.35547 1.38281C9.51172 1.30469 9.63281 1.20703 9.71875 1.08984C9.80469 0.972656 9.84766 0.824219 9.84766 0.644531C9.84766 0.621094 9.84375 0.578125 9.83594 0.515625C9.83594 0.453125 9.82812 0.414062 9.8125 0.398438C9.88281 0.351562 9.95703 0.289062 10.0352 0.210938L10.0586 0.222656C10.207 0.332031 10.2969 0.445312 10.3281 0.5625C10.3672 0.671875 10.375 0.785156 10.3516 0.902344C10.3359 1.01953 10.3086 1.14062 10.2695 1.26562C10.2305 1.39062 10.2109 1.51953 10.2109 1.65234L10.1992 1.66406C10.082 1.86719 9.98828 2.09766 9.91797 2.35547C9.84766 2.61328 9.8125 2.86328 9.8125 3.10547C9.72656 3.10547 9.67188 3.125 9.64844 3.16406C9.63281 3.20312 9.61719 3.25391 9.60156 3.31641C9.59375 3.37109 9.57812 3.42969 9.55469 3.49219C9.53906 3.55469 9.49219 3.60938 9.41406 3.65625L9.4375 3.69141C9.4375 3.70703 9.4375 3.71875 9.4375 3.72656C9.44531 3.73438 9.44922 3.74609 9.44922 3.76172C9.44922 3.80859 9.4375 3.85156 9.41406 3.89062C9.39062 3.92188 9.36719 3.95703 9.34375 3.99609C9.32031 4.02734 9.30469 4.0625 9.29688 4.10156C9.29688 4.14062 9.31641 4.18359 9.35547 4.23047C9.38672 4.27734 9.40625 4.30469 9.41406 4.3125H9.28516C9.16016 4.55469 9.04688 4.80078 8.94531 5.05078C8.84375 5.30078 8.75 5.55469 8.66406 5.8125C8.59375 6.03125 8.51953 6.24609 8.44141 6.45703C8.36328 6.66797 8.26953 6.875 8.16016 7.07812V7.11328C8.23047 7.24609 8.23438 7.35156 8.17188 7.42969C8.11719 7.50781 8.05469 7.57812 7.98438 7.64062C7.92188 7.69531 7.87891 7.75 7.85547 7.80469C7.83203 7.85938 7.88672 7.92969 8.01953 8.01562C8.12109 7.91406 8.21484 7.87891 8.30078 7.91016C8.38672 7.94141 8.49219 7.97266 8.61719 8.00391C8.64062 7.98047 8.66016 7.96094 8.67578 7.94531C8.69922 7.92188 8.73438 7.91797 8.78125 7.93359C8.78906 7.94141 8.79688 7.94922 8.80469 7.95703C8.8125 7.95703 8.82031 7.96094 8.82812 7.96875C8.875 7.89844 8.91797 7.85938 8.95703 7.85156C8.99609 7.84375 9.03516 7.84766 9.07422 7.86328C9.11328 7.87891 9.15234 7.89453 9.19141 7.91016C9.23047 7.92578 9.26953 7.92188 9.30859 7.89844C9.33203 7.88281 9.34766 7.85938 9.35547 7.82812C9.36328 7.78906 9.375 7.75391 9.39062 7.72266C9.50781 7.83984 9.60547 7.89844 9.68359 7.89844C9.76953 7.89062 9.84766 7.86719 9.91797 7.82812C9.99609 7.78125 10.0703 7.73828 10.1406 7.69922C10.2188 7.66016 10.3086 7.66406 10.4102 7.71094C10.4961 7.71094 10.582 7.70312 10.668 7.6875C10.7617 7.66406 10.8516 7.64453 10.9375 7.62891C11.1641 7.58984 11.3867 7.55859 11.6055 7.53516C11.8242 7.51172 12.0469 7.51953 12.2734 7.55859L12.2852 7.65234ZM3.27344 5.40234C3.20312 5.40234 3.13672 5.40625 3.07422 5.41406C3.01953 5.42188 2.96875 5.44922 2.92188 5.49609C2.91406 5.48828 2.90625 5.48438 2.89844 5.48438C2.59375 5.39844 2.30078 5.41406 2.01953 5.53125C1.73828 5.64844 1.49609 5.81641 1.29297 6.03516L1.26953 6.12891C1.26172 6.15234 1.25781 6.17969 1.25781 6.21094C1.25781 6.23438 1.25781 6.25391 1.25781 6.26953C1.25781 6.41797 1.29297 6.55469 1.36328 6.67969C1.41016 6.77344 1.46484 6.85156 1.52734 6.91406C1.59766 6.97656 1.67188 7.03516 1.75 7.08984C1.83594 7.14453 1.91797 7.19922 1.99609 7.25391C2.08203 7.30859 2.16016 7.375 2.23047 7.45312C2.38672 7.45312 2.49219 7.41406 2.54688 7.33594C2.60938 7.25 2.65234 7.15234 2.67578 7.04297C2.70703 6.92578 2.73828 6.80859 2.76953 6.69141C2.80078 6.57422 2.86719 6.48047 2.96875 6.41016C2.97656 6.41016 2.98047 6.41016 2.98047 6.41016C2.98047 6.40234 2.98438 6.39844 2.99219 6.39844C2.96094 6.32031 2.96094 6.24219 2.99219 6.16406C3.03125 6.08594 3.07422 6.00781 3.12109 5.92969C3.17578 5.85156 3.21875 5.76953 3.25 5.68359C3.28906 5.59766 3.29688 5.50391 3.27344 5.40234ZM19.0469 8.41406C18.9766 8.48438 18.9219 8.53906 18.8828 8.57812C18.8516 8.61719 18.8203 8.65625 18.7891 8.69531C18.7656 8.72656 18.7344 8.76172 18.6953 8.80078C18.6641 8.83984 18.6133 8.89844 18.543 8.97656C18.4805 9.03906 18.4219 9.10547 18.3672 9.17578C18.3125 9.24609 18.25 9.30859 18.1797 9.36328C18.0859 9.33984 18.0117 9.35156 17.957 9.39844C17.9102 9.44531 17.8633 9.5 17.8164 9.5625C17.7773 9.61719 17.7383 9.67188 17.6992 9.72656C17.668 9.77344 17.625 9.79297 17.5703 9.78516C17.3828 9.88672 17.1953 9.97656 17.0078 10.0547C16.8203 10.125 16.6406 10.2305 16.4688 10.3711L16.375 10.2773L15.1562 10.8633C15.1172 10.8789 15.0781 10.9023 15.0391 10.9336C15 10.9648 14.9609 10.9922 14.9219 11.0156C14.75 11.1094 14.5703 11.1953 14.3828 11.2734C14.2031 11.3438 14.0234 11.4102 13.8438 11.4727L13.6914 11.5195C13.7539 11.6758 13.7539 11.7852 13.6914 11.8477C13.6289 11.9102 13.5391 11.957 13.4219 11.9883C13.3047 12.0117 13.1758 12.0273 13.0352 12.0352C12.8945 12.043 12.7852 12.0703 12.707 12.1172C12.6133 12.1016 12.5156 12.0938 12.4141 12.0938C12.3203 12.1016 12.2227 12.1133 12.1211 12.1289C12.0117 12.1445 11.9102 12.1523 11.8164 12.1523C11.7227 12.1523 11.6211 12.1406 11.5117 12.1172H11.4883C11.3555 12.1797 11.2383 12.1914 11.1367 12.1523C11.043 12.1211 10.957 12.0664 10.8789 11.9883C10.8008 11.9023 10.7266 11.8047 10.6562 11.6953C10.5938 11.5781 10.5273 11.4727 10.457 11.3789C10.4102 11.3164 10.3516 11.2266 10.2812 11.1094C10.2109 10.9922 10.1523 10.8672 10.1055 10.7344C10.0508 10.6016 10.0195 10.4688 10.0117 10.3359C9.99609 10.1953 10.0234 10.0742 10.0938 9.97266C10.1641 9.87109 10.2227 9.76172 10.2695 9.64453C10.3086 9.52734 10.3281 9.39062 10.3281 9.23438C10.3281 9.17969 10.3281 9.12891 10.3281 9.08203C10.3203 9.03516 10.3164 8.98438 10.3164 8.92969C10.3555 8.92969 10.3984 8.93359 10.4453 8.94141C10.4922 8.94141 10.5352 8.94141 10.5742 8.94141C10.6211 8.93359 10.6562 8.91797 10.6797 8.89453C10.7109 8.86328 10.7266 8.8125 10.7266 8.74219C10.7266 8.70312 10.7109 8.67188 10.6797 8.64844C10.6562 8.625 10.6406 8.60156 10.6328 8.57812C10.6797 8.50781 10.7227 8.45312 10.7617 8.41406C10.8086 8.36719 10.8477 8.32422 10.8789 8.28516C10.9102 8.23828 10.9336 8.1875 10.9492 8.13281C10.9648 8.07031 10.9609 7.98828 10.9375 7.88672C11.0312 7.72266 11.1406 7.57812 11.2656 7.45312C11.3984 7.32031 11.5352 7.19922 11.6758 7.08984C11.8164 6.97266 11.9609 6.85938 12.1094 6.75C12.2578 6.64062 12.3984 6.52344 12.5312 6.39844C12.6797 6.46094 12.7969 6.46094 12.8828 6.39844C12.9766 6.33594 13.0586 6.26953 13.1289 6.19922C13.1992 6.12109 13.2695 6.05859 13.3398 6.01172C13.4102 5.96484 13.5039 5.98438 13.6211 6.07031L13.6445 6.09375C13.8555 5.88281 14.0664 5.78906 14.2773 5.8125C14.4961 5.83594 14.6797 5.90625 14.8281 6.02344C14.9844 6.14062 15.0859 6.27734 15.1328 6.43359C15.1797 6.58203 15.1367 6.68359 15.0039 6.73828C15.0898 6.82422 15.1328 6.92578 15.1328 7.04297C15.1328 7.16016 15.1016 7.26172 15.0391 7.34766C14.9688 7.44141 14.9062 7.53906 14.8516 7.64062C14.8047 7.73438 14.7539 7.83594 14.6992 7.94531C14.6211 8.125 14.5352 8.29688 14.4414 8.46094C14.3477 8.61719 14.2148 8.75 14.043 8.85938C13.9023 8.82031 13.8047 8.83594 13.75 8.90625C13.7031 8.97656 13.668 9.05469 13.6445 9.14062C13.6211 9.21875 13.5938 9.28125 13.5625 9.32812C13.5312 9.375 13.4648 9.35938 13.3633 9.28125L13.3398 9.25781L13.3164 9.28125C13.2539 9.34375 13.2031 9.41406 13.1641 9.49219C13.1328 9.57031 13.0859 9.62891 13.0234 9.66797C12.9531 9.64453 12.8789 9.625 12.8008 9.60938C12.7227 9.59375 12.6484 9.57812 12.5781 9.5625C12.5781 9.72656 12.5469 9.85547 12.4844 9.94922C12.4219 10.043 12.3398 10.1211 12.2383 10.1836C12.1445 10.2383 12.0352 10.2852 11.9102 10.3242C11.7852 10.3555 11.6602 10.3984 11.5352 10.4531C11.418 10.5 11.3047 10.5625 11.1953 10.6406C11.0938 10.7109 11.0117 10.8125 10.9492 10.9453C11.0273 11.0312 11.125 11.082 11.2422 11.0977C11.3594 11.1055 11.4805 11.1055 11.6055 11.0977C11.7305 11.082 11.8516 11.0742 11.9688 11.0742C12.0938 11.0742 12.2031 11.1055 12.2969 11.168L12.3086 11.1797L12.3203 11.168C12.5078 11.1445 12.6875 11.1016 12.8594 11.0391C13.0391 10.9688 13.2109 10.8984 13.375 10.8281C13.5469 10.75 13.7188 10.6797 13.8906 10.6172C14.0703 10.5469 14.2539 10.4961 14.4414 10.4648C14.4805 10.5273 14.5312 10.5625 14.5938 10.5703C14.6641 10.5781 14.7305 10.5742 14.793 10.5586L14.8047 10.5352C14.8203 10.4805 14.8359 10.4336 14.8516 10.3945C14.8672 10.3477 14.8906 10.2969 14.9219 10.2422C14.9766 10.1562 15.043 10.0898 15.1211 10.043C15.1992 9.99609 15.2812 9.96094 15.3672 9.9375C15.4609 9.91406 15.5586 9.89844 15.6602 9.89062C15.7617 9.88281 15.8633 9.87109 15.9648 9.85547H15.9883L16 9.82031C16.0312 9.72656 16.0703 9.66406 16.1172 9.63281C16.1719 9.59375 16.2266 9.56641 16.2812 9.55078C16.3438 9.53516 16.4062 9.52344 16.4688 9.51562C16.5391 9.50781 16.6055 9.48438 16.668 9.44531C16.8086 9.49219 16.9258 9.47656 17.0195 9.39844C17.1133 9.32031 17.2031 9.23828 17.2891 9.15234L17.3828 9.26953L17.418 9.22266C17.5352 9.11328 17.6211 9.03125 17.6758 8.97656C17.7383 8.92188 17.7969 8.875 17.8516 8.83594C17.9062 8.78906 17.9688 8.74609 18.0391 8.70703C18.1172 8.66016 18.2227 8.59375 18.3555 8.50781C18.4648 8.4375 18.5703 8.36719 18.6719 8.29688C18.7812 8.22656 18.8867 8.14844 18.9883 8.0625C19.0273 8.07812 19.0469 8.10938 19.0469 8.15625C19.0469 8.19531 19.0469 8.23438 19.0469 8.27344C19.0391 8.28906 19.0312 8.3125 19.0234 8.34375C19.0234 8.375 19.0312 8.39844 19.0469 8.41406ZM14.1953 6.94922C14.1875 6.94141 14.1797 6.9375 14.1719 6.9375C14.1719 6.9375 14.168 6.93359 14.1602 6.92578C13.9961 6.83984 13.8594 6.80078 13.75 6.80859C13.6406 6.80859 13.5391 6.83984 13.4453 6.90234C13.3594 6.95703 13.2773 7.03125 13.1992 7.125C13.1289 7.21094 13.0508 7.29297 12.9648 7.37109C12.8867 7.44141 12.793 7.49609 12.6836 7.53516C12.5742 7.57422 12.4414 7.57031 12.2852 7.52344C12.2617 7.64844 12.2383 7.77344 12.2148 7.89844C12.1992 8.01562 12.1875 8.13672 12.1797 8.26172C12.0469 8.30859 11.9414 8.375 11.8633 8.46094C11.793 8.54688 11.7305 8.64062 11.6758 8.74219C11.6289 8.84375 11.582 8.95312 11.5352 9.07031C11.4961 9.17969 11.4414 9.28516 11.3711 9.38672L11.418 9.44531C11.4492 9.42969 11.4844 9.44141 11.5234 9.48047C11.5625 9.51953 11.5898 9.54688 11.6055 9.5625C11.6914 9.4375 11.8047 9.33203 11.9453 9.24609C12.0938 9.16016 12.2422 9.08203 12.3906 9.01172C12.5469 8.93359 12.6953 8.85156 12.8359 8.76562C12.9766 8.67969 13.082 8.56641 13.1523 8.42578C13.4023 8.35547 13.5898 8.21484 13.7148 8.00391C13.8398 7.79297 13.9453 7.57422 14.0312 7.34766C14.0469 7.30078 14.0742 7.23438 14.1133 7.14844C14.1602 7.05469 14.1875 6.98828 14.1953 6.94922ZM25.1992 8.15625C25.207 8.27344 25.1836 8.38672 25.1289 8.49609C25.082 8.60547 25.0391 8.70312 25 8.78906L24.625 9.1875L24.4023 9.85547C24.3164 9.91797 24.2227 9.98047 24.1211 10.043C24.0273 10.0977 23.9414 10.1562 23.8633 10.2188C23.7773 10.2891 23.6992 10.3672 23.6289 10.4531C23.5664 10.5391 23.4961 10.6133 23.418 10.6758C23.3398 10.7383 23.2461 10.793 23.1367 10.8398C23.0352 10.8789 22.9414 10.9258 22.8555 10.9805C22.6992 11.0742 22.5508 11.1719 22.4102 11.2734C22.2773 11.375 22.1367 11.4727 21.9883 11.5664C21.9492 11.582 21.918 11.6016 21.8945 11.625C21.8789 11.6406 21.8516 11.6562 21.8125 11.6719C21.7891 11.6875 21.6875 11.7188 21.5078 11.7656C21.3281 11.8125 21.1289 11.8672 20.9102 11.9297C20.6992 11.9844 20.5 12.0352 20.3125 12.082C20.125 12.1289 20.0195 12.1523 19.9961 12.1523C19.8555 12.168 19.7109 12.1758 19.5625 12.1758C19.4141 12.1758 19.2656 12.1797 19.1172 12.1875L18.9414 12.293C18.8555 12.2305 18.7617 12.1719 18.6602 12.1172C18.5586 12.0625 18.4727 12.0039 18.4023 11.9414C18.3242 11.8711 18.2461 11.793 18.168 11.707C18.0898 11.6133 18.0195 11.5273 17.957 11.4492C17.918 11.3398 17.8789 11.2344 17.8398 11.1328C17.8008 11.0234 17.7695 10.918 17.7461 10.8164L17.6875 10.3711C17.6719 10.2227 17.6562 10.0781 17.6406 9.9375C17.6328 9.79688 17.6211 9.65234 17.6055 9.50391C17.7383 9.13672 17.8555 8.76953 17.957 8.40234C18.0664 8.02734 18.1992 7.66016 18.3555 7.30078C18.3945 7.21484 18.4297 7.12891 18.4609 7.04297C18.5 6.94922 18.5391 6.85938 18.5781 6.77344C18.625 6.67969 18.6758 6.59375 18.7305 6.51562C18.7852 6.42969 18.832 6.34375 18.8711 6.25781C18.9102 6.16406 18.9414 6.07031 18.9648 5.97656C18.9883 5.875 19.0195 5.78125 19.0586 5.69531C19.082 5.64844 19.1211 5.58203 19.1758 5.49609C19.2305 5.40234 19.2891 5.30859 19.3516 5.21484C19.4141 5.11328 19.4727 5.01562 19.5273 4.92188C19.5898 4.82812 19.6406 4.75391 19.6797 4.69922C19.7422 4.62109 19.8047 4.54688 19.8672 4.47656C19.9297 4.40625 19.9805 4.32812 20.0195 4.24219C20.0977 4.10938 20.1719 3.94141 20.2422 3.73828C20.3125 3.53516 20.3906 3.35547 20.4766 3.19922C20.5703 3.02734 20.6797 2.86719 20.8047 2.71875C20.9375 2.5625 21.0586 2.40234 21.168 2.23828C21.2852 2.07422 21.3984 1.89453 21.5078 1.69922L22.0234 1.32422L22.2578 1.55859L22.8203 1.46484L23.1719 1.99219C23.1562 2.10938 23.1367 2.24219 23.1133 2.39062C23.0977 2.53906 23.082 2.69141 23.0664 2.84766C23.0586 2.99609 23.0508 3.14453 23.043 3.29297C23.043 3.43359 23.0508 3.55859 23.0664 3.66797C23.0273 3.80859 22.9688 3.95703 22.8906 4.11328C22.8203 4.26172 22.7383 4.39062 22.6445 4.5L22.5977 5.13281L22.1289 5.55469L22.0703 6.15234L21.6719 6.62109C21.6484 6.73047 21.625 6.84375 21.6016 6.96094C21.5781 7.07031 21.5469 7.17578 21.5078 7.27734C21.4688 7.37109 21.4219 7.46875 21.3672 7.57031C21.3125 7.66406 21.2578 7.76172 21.2031 7.86328C21.0469 7.99609 20.8867 8.14453 20.7227 8.30859C20.5586 8.47266 20.4102 8.63672 20.2773 8.80078C20.207 8.88672 20.1406 8.98047 20.0781 9.08203C20.0234 9.17578 19.9648 9.26562 19.9023 9.35156C19.6992 9.60938 19.4805 9.85156 19.2461 10.0781C19.0117 10.3047 18.7812 10.5391 18.5547 10.7812L18.8125 11.2383C18.9766 11.293 19.1445 11.3438 19.3164 11.3906C19.4883 11.4375 19.6602 11.4805 19.832 11.5195C19.9102 11.5039 20 11.4883 20.1016 11.4727C20.2031 11.4492 20.3086 11.4258 20.418 11.4023C20.5273 11.3711 20.6328 11.3398 20.7344 11.3086C20.8438 11.2773 20.9336 11.2461 21.0039 11.2148C21.1602 11.1523 21.3398 11.0625 21.543 10.9453C21.7461 10.8203 21.918 10.7109 22.0586 10.6172C22.3086 10.4609 22.5625 10.3008 22.8203 10.1367C23.0781 9.97266 23.3242 9.80078 23.5586 9.62109C23.7148 9.50391 23.8789 9.35547 24.0508 9.17578C24.2227 8.99609 24.3828 8.82812 24.5312 8.67188C24.6875 8.50781 24.8242 8.375 24.9414 8.27344C25.0664 8.17188 25.1523 8.13281 25.1992 8.15625ZM22.0117 2.61328C21.8477 2.88672 21.6719 3.15234 21.4844 3.41016C21.3047 3.66016 21.1367 3.92188 20.9805 4.19531C20.9258 4.28906 20.8789 4.38672 20.8398 4.48828C20.8008 4.58203 20.75 4.67578 20.6875 4.76953C20.6328 4.85547 20.5742 4.94141 20.5117 5.02734C20.4492 5.11328 20.3945 5.20703 20.3477 5.30859C20.2539 5.48828 20.168 5.67969 20.0898 5.88281C20.0195 6.07812 19.9414 6.26953 19.8555 6.45703C19.7617 6.64453 19.6523 6.82031 19.5273 6.98438C19.4023 7.14844 19.2891 7.32422 19.1875 7.51172L19 7.88672C18.9844 7.92578 18.9688 7.95703 18.9531 7.98047C18.9375 7.99609 18.9219 8.02344 18.9062 8.0625C18.875 8.14844 18.8594 8.24219 18.8594 8.34375C18.8594 8.44531 18.8477 8.53906 18.8242 8.625C18.8008 8.71875 18.7656 8.80859 18.7188 8.89453C18.6719 8.98047 18.6289 9.06641 18.5898 9.15234C18.5508 9.23828 18.5195 9.32812 18.4961 9.42188C18.4727 9.50781 18.4453 9.59375 18.4141 9.67969C18.4766 9.61719 18.543 9.5625 18.6133 9.51562C18.6914 9.46094 18.7656 9.40234 18.8359 9.33984C18.9062 9.26953 18.9727 9.19531 19.0352 9.11719C19.0977 9.03906 19.168 8.96875 19.2461 8.90625C19.3164 8.84375 19.3906 8.78906 19.4688 8.74219C19.5547 8.6875 19.6367 8.63281 19.7148 8.57812C19.8398 8.40625 19.9492 8.23047 20.043 8.05078C20.0898 7.96484 20.1289 7.86719 20.1602 7.75781C20.1992 7.64844 20.2461 7.55078 20.3008 7.46484C20.3477 7.37891 20.4062 7.29688 20.4766 7.21875C20.5547 7.14062 20.6211 7.05859 20.6758 6.97266C20.7383 6.88672 20.7891 6.79688 20.8281 6.70312C20.875 6.60938 20.9258 6.51953 20.9805 6.43359C21.0898 6.26172 21.2109 6.09766 21.3438 5.94141L21.4023 5.20312L21.8242 4.71094L21.8828 4.26562L22.1758 3.85547L22.2109 3.19922L22.0117 2.61328ZM31.4805 8.15625C31.4883 8.27344 31.4648 8.38672 31.4102 8.49609C31.3633 8.60547 31.3203 8.70312 31.2812 8.78906L30.9062 9.1875L30.6836 9.85547C30.5977 9.91797 30.5039 9.98047 30.4023 10.043C30.3086 10.0977 30.2227 10.1562 30.1445 10.2188C30.0586 10.2891 29.9805 10.3672 29.9102 10.4531C29.8477 10.5391 29.7773 10.6133 29.6992 10.6758C29.6211 10.7383 29.5273 10.793 29.418 10.8398C29.3164 10.8789 29.2227 10.9258 29.1367 10.9805C28.9805 11.0742 28.832 11.1719 28.6914 11.2734C28.5586 11.375 28.418 11.4727 28.2695 11.5664C28.2305 11.582 28.1992 11.6016 28.1758 11.625C28.1602 11.6406 28.1328 11.6562 28.0938 11.6719C28.0703 11.6875 27.9688 11.7188 27.7891 11.7656C27.6094 11.8125 27.4102 11.8672 27.1914 11.9297C26.9805 11.9844 26.7812 12.0352 26.5938 12.082C26.4062 12.1289 26.3008 12.1523 26.2773 12.1523C26.1367 12.168 25.9922 12.1758 25.8438 12.1758C25.6953 12.1758 25.5469 12.1797 25.3984 12.1875L25.2227 12.293C25.1367 12.2305 25.043 12.1719 24.9414 12.1172C24.8398 12.0625 24.7539 12.0039 24.6836 11.9414C24.6055 11.8711 24.5273 11.793 24.4492 11.707C24.3711 11.6133 24.3008 11.5273 24.2383 11.4492C24.1992 11.3398 24.1602 11.2344 24.1211 11.1328C24.082 11.0234 24.0508 10.918 24.0273 10.8164L23.9688 10.3711C23.9531 10.2227 23.9375 10.0781 23.9219 9.9375C23.9141 9.79688 23.9023 9.65234 23.8867 9.50391C24.0195 9.13672 24.1367 8.76953 24.2383 8.40234C24.3477 8.02734 24.4805 7.66016 24.6367 7.30078C24.6758 7.21484 24.7109 7.12891 24.7422 7.04297C24.7812 6.94922 24.8203 6.85938 24.8594 6.77344C24.9062 6.67969 24.957 6.59375 25.0117 6.51562C25.0664 6.42969 25.1133 6.34375 25.1523 6.25781C25.1914 6.16406 25.2227 6.07031 25.2461 5.97656C25.2695 5.875 25.3008 5.78125 25.3398 5.69531C25.3633 5.64844 25.4023 5.58203 25.457 5.49609C25.5117 5.40234 25.5703 5.30859 25.6328 5.21484C25.6953 5.11328 25.7539 5.01562 25.8086 4.92188C25.8711 4.82812 25.9219 4.75391 25.9609 4.69922C26.0234 4.62109 26.0859 4.54688 26.1484 4.47656C26.2109 4.40625 26.2617 4.32812 26.3008 4.24219C26.3789 4.10938 26.4531 3.94141 26.5234 3.73828C26.5938 3.53516 26.6719 3.35547 26.7578 3.19922C26.8516 3.02734 26.9609 2.86719 27.0859 2.71875C27.2188 2.5625 27.3398 2.40234 27.4492 2.23828C27.5664 2.07422 27.6797 1.89453 27.7891 1.69922L28.3047 1.32422L28.5391 1.55859L29.1016 1.46484L29.4531 1.99219C29.4375 2.10938 29.418 2.24219 29.3945 2.39062C29.3789 2.53906 29.3633 2.69141 29.3477 2.84766C29.3398 2.99609 29.332 3.14453 29.3242 3.29297C29.3242 3.43359 29.332 3.55859 29.3477 3.66797C29.3086 3.80859 29.25 3.95703 29.1719 4.11328C29.1016 4.26172 29.0195 4.39062 28.9258 4.5L28.8789 5.13281L28.4102 5.55469L28.3516 6.15234L27.9531 6.62109C27.9297 6.73047 27.9062 6.84375 27.8828 6.96094C27.8594 7.07031 27.8281 7.17578 27.7891 7.27734C27.75 7.37109 27.7031 7.46875 27.6484 7.57031C27.5938 7.66406 27.5391 7.76172 27.4844 7.86328C27.3281 7.99609 27.168 8.14453 27.0039 8.30859C26.8398 8.47266 26.6914 8.63672 26.5586 8.80078C26.4883 8.88672 26.4219 8.98047 26.3594 9.08203C26.3047 9.17578 26.2461 9.26562 26.1836 9.35156C25.9805 9.60938 25.7617 9.85156 25.5273 10.0781C25.293 10.3047 25.0625 10.5391 24.8359 10.7812L25.0938 11.2383C25.2578 11.293 25.4258 11.3438 25.5977 11.3906C25.7695 11.4375 25.9414 11.4805 26.1133 11.5195C26.1914 11.5039 26.2812 11.4883 26.3828 11.4727C26.4844 11.4492 26.5898 11.4258 26.6992 11.4023C26.8086 11.3711 26.9141 11.3398 27.0156 11.3086C27.125 11.2773 27.2148 11.2461 27.2852 11.2148C27.4414 11.1523 27.6211 11.0625 27.8242 10.9453C28.0273 10.8203 28.1992 10.7109 28.3398 10.6172C28.5898 10.4609 28.8438 10.3008 29.1016 10.1367C29.3594 9.97266 29.6055 9.80078 29.8398 9.62109C29.9961 9.50391 30.1602 9.35547 30.332 9.17578C30.5039 8.99609 30.6641 8.82812 30.8125 8.67188C30.9688 8.50781 31.1055 8.375 31.2227 8.27344C31.3477 8.17188 31.4336 8.13281 31.4805 8.15625ZM28.293 2.61328C28.1289 2.88672 27.9531 3.15234 27.7656 3.41016C27.5859 3.66016 27.418 3.92188 27.2617 4.19531C27.207 4.28906 27.1602 4.38672 27.1211 4.48828C27.082 4.58203 27.0312 4.67578 26.9688 4.76953C26.9141 4.85547 26.8555 4.94141 26.793 5.02734C26.7305 5.11328 26.6758 5.20703 26.6289 5.30859C26.5352 5.48828 26.4492 5.67969 26.3711 5.88281C26.3008 6.07812 26.2227 6.26953 26.1367 6.45703C26.043 6.64453 25.9336 6.82031 25.8086 6.98438C25.6836 7.14844 25.5703 7.32422 25.4688 7.51172L25.2812 7.88672C25.2656 7.92578 25.25 7.95703 25.2344 7.98047C25.2188 7.99609 25.2031 8.02344 25.1875 8.0625C25.1562 8.14844 25.1406 8.24219 25.1406 8.34375C25.1406 8.44531 25.1289 8.53906 25.1055 8.625C25.082 8.71875 25.0469 8.80859 25 8.89453C24.9531 8.98047 24.9102 9.06641 24.8711 9.15234C24.832 9.23828 24.8008 9.32812 24.7773 9.42188C24.7539 9.50781 24.7266 9.59375 24.6953 9.67969C24.7578 9.61719 24.8242 9.5625 24.8945 9.51562C24.9727 9.46094 25.0469 9.40234 25.1172 9.33984C25.1875 9.26953 25.2539 9.19531 25.3164 9.11719C25.3789 9.03906 25.4492 8.96875 25.5273 8.90625C25.5977 8.84375 25.6719 8.78906 25.75 8.74219C25.8359 8.6875 25.918 8.63281 25.9961 8.57812C26.1211 8.40625 26.2305 8.23047 26.3242 8.05078C26.3711 7.96484 26.4102 7.86719 26.4414 7.75781C26.4805 7.64844 26.5273 7.55078 26.582 7.46484C26.6289 7.37891 26.6875 7.29688 26.7578 7.21875C26.8359 7.14062 26.9023 7.05859 26.957 6.97266C27.0195 6.88672 27.0703 6.79688 27.1094 6.70312C27.1562 6.60938 27.207 6.51953 27.2617 6.43359C27.3711 6.26172 27.4922 6.09766 27.625 5.94141L27.6836 5.20312L28.1055 4.71094L28.1641 4.26562L28.457 3.85547L28.4922 3.19922L28.293 2.61328ZM37.9375 8.32031C37.9688 8.4375 37.957 8.53906 37.9023 8.625C37.8477 8.70312 37.7734 8.77344 37.6797 8.83594C37.5938 8.89844 37.4961 8.95703 37.3867 9.01172C37.2852 9.05859 37.1992 9.11328 37.1289 9.17578C36.7773 9.25391 36.457 9.3125 36.168 9.35156C35.8867 9.38281 35.5742 9.42578 35.2305 9.48047C35.1289 9.49609 35.0312 9.49609 34.9375 9.48047C34.8516 9.45703 34.7617 9.44922 34.668 9.45703C34.6133 9.45703 34.5625 9.45703 34.5156 9.45703C34.4688 9.44922 34.4219 9.44922 34.375 9.45703C34.1953 9.47266 34.0781 9.53516 34.0234 9.64453C33.9688 9.74609 33.9219 9.86719 33.8828 10.0078C33.8516 10.1406 33.8086 10.2695 33.7539 10.3945C33.707 10.5117 33.6016 10.5938 33.4375 10.6406C33.4219 10.6797 33.4258 10.7148 33.4492 10.7461C33.4805 10.7773 33.5039 10.8047 33.5195 10.8281C33.3867 10.8672 33.2969 10.9375 33.25 11.0391C33.2109 11.1406 33.1758 11.2422 33.1445 11.3438C33.1133 11.4453 33.0664 11.5312 33.0039 11.6016C32.9492 11.6719 32.8398 11.6953 32.6758 11.6719C32.4336 11.9297 32.1484 12.1367 31.8203 12.293C31.4922 12.457 31.1523 12.5625 30.8008 12.6094C30.7383 12.5781 30.6758 12.5391 30.6133 12.4922C30.5586 12.4453 30.5 12.4023 30.4375 12.3633C30.3828 12.3242 30.3203 12.293 30.25 12.2695C30.1875 12.2539 30.1133 12.2539 30.0273 12.2695C30.0195 12.1055 29.9883 11.9531 29.9336 11.8125C29.8711 11.6719 29.793 11.5391 29.6992 11.4141C29.6836 11.2734 29.7031 11.1445 29.7578 11.0273C29.8047 10.9023 29.8555 10.7812 29.9102 10.6641C29.9648 10.5469 30.0117 10.4297 30.0508 10.3125C30.082 10.1875 30.0742 10.0469 30.0273 9.89062C30.1055 9.84375 30.1562 9.78906 30.1797 9.72656C30.2109 9.66406 30.2305 9.60156 30.2383 9.53906C30.2539 9.46875 30.2734 9.40625 30.2969 9.35156C30.3203 9.28906 30.375 9.23828 30.4609 9.19922C30.3984 9.01172 30.4062 8.875 30.4844 8.78906C30.5703 8.69531 30.6719 8.61328 30.7891 8.54297C30.9062 8.47266 31.0156 8.39453 31.1172 8.30859C31.2188 8.22266 31.2578 8.09375 31.2344 7.92188C31.2812 7.875 31.3359 7.83594 31.3984 7.80469C31.4609 7.77344 31.5195 7.74609 31.5742 7.72266C31.6367 7.69141 31.6953 7.66016 31.75 7.62891C31.8047 7.59766 31.8555 7.55469 31.9023 7.5C31.8477 7.46094 31.8203 7.42188 31.8203 7.38281C31.8281 7.34375 31.8398 7.30469 31.8555 7.26562C31.8711 7.21875 31.8867 7.17188 31.9023 7.125C31.9258 7.07812 31.9258 7.03125 31.9023 6.98438C32.1133 7.01562 32.2969 6.98828 32.4531 6.90234C32.6172 6.80859 32.7695 6.71484 32.9102 6.62109C33.0586 6.52734 33.207 6.46094 33.3555 6.42188C33.5039 6.38281 33.6758 6.42969 33.8711 6.5625C33.8867 6.61719 33.9102 6.69922 33.9414 6.80859C33.9805 6.91016 34.0156 7.01562 34.0469 7.125C34.0859 7.23438 34.1211 7.33984 34.1523 7.44141C34.1836 7.54297 34.2031 7.61719 34.2109 7.66406C34.2109 7.70312 34.2109 7.76562 34.2109 7.85156C34.2109 7.9375 34.2109 8.03125 34.2109 8.13281C34.2109 8.22656 34.2109 8.31641 34.2109 8.40234C34.2109 8.48828 34.2109 8.55469 34.2109 8.60156C34.4375 8.73438 34.6641 8.81641 34.8906 8.84766C35.1172 8.87109 35.3438 8.81641 35.5703 8.68359C35.6562 8.76172 35.7383 8.78516 35.8164 8.75391C35.8945 8.71484 35.9688 8.67188 36.0391 8.625C36.1172 8.57812 36.1953 8.55469 36.2734 8.55469C36.3516 8.54688 36.4297 8.60938 36.5078 8.74219C36.6172 8.64062 36.7305 8.57812 36.8477 8.55469C36.9648 8.52344 37.0859 8.50781 37.2109 8.50781C37.3359 8.5 37.457 8.48828 37.5742 8.47266C37.6992 8.45703 37.8203 8.40625 37.9375 8.32031ZM33.4375 8.51953C33.4375 8.40234 33.457 8.27734 33.4961 8.14453C33.5352 8.01172 33.5664 7.88281 33.5898 7.75781C33.6133 7.625 33.6094 7.5 33.5781 7.38281C33.5547 7.26562 33.4805 7.16016 33.3555 7.06641C33.2695 7.11328 33.1992 7.17969 33.1445 7.26562C33.0898 7.34375 33.0352 7.42578 32.9805 7.51172C32.9258 7.58984 32.8594 7.65625 32.7812 7.71094C32.7109 7.76562 32.6172 7.78125 32.5 7.75781C32.4609 7.85156 32.4609 7.92969 32.5 7.99219C32.5391 8.04688 32.5859 8.10156 32.6406 8.15625C32.6953 8.20312 32.7461 8.25391 32.793 8.30859C32.8477 8.36328 32.8672 8.43359 32.8516 8.51953C32.8828 8.54297 32.9258 8.56641 32.9805 8.58984C33.0352 8.60547 33.0898 8.61719 33.1445 8.625C33.207 8.625 33.2656 8.61719 33.3203 8.60156C33.375 8.58594 33.4141 8.55859 33.4375 8.51953ZM33.3555 9.45703C33.1992 9.45703 33.0625 9.42188 32.9453 9.35156C32.8359 9.27344 32.7227 9.1875 32.6055 9.09375C32.4961 9 32.3789 8.91406 32.2539 8.83594C32.1367 8.75 31.9922 8.69922 31.8203 8.68359C31.75 8.77734 31.668 8.86719 31.5742 8.95312C31.4805 9.03125 31.3984 9.11719 31.3281 9.21094C31.2578 9.30469 31.207 9.40625 31.1758 9.51562C31.1523 9.625 31.1719 9.75 31.2344 9.89062C31.0547 9.97656 30.9336 10.1016 30.8711 10.2656C30.8086 10.4219 30.7656 10.5938 30.7422 10.7812C30.7266 10.9688 30.7109 11.1562 30.6953 11.3438C30.6797 11.5312 30.6289 11.6992 30.543 11.8477L30.8008 11.6719C30.832 11.6875 30.8555 11.7109 30.8711 11.7422C30.8945 11.7734 30.8984 11.8086 30.8828 11.8477C30.9453 11.7852 31.0156 11.7383 31.0938 11.707C31.1719 11.668 31.25 11.6406 31.3281 11.625C31.4141 11.6016 31.4961 11.582 31.5742 11.5664C31.6602 11.5508 31.7422 11.5273 31.8203 11.4961C32.0156 11.6055 32.1562 11.6289 32.2422 11.5664C32.3281 11.5039 32.3984 11.4102 32.4531 11.2852C32.5078 11.1602 32.5664 11.0312 32.6289 10.8984C32.6914 10.7578 32.793 10.6719 32.9336 10.6406L32.8516 10.5586C32.9844 10.3945 33.1016 10.2266 33.2031 10.0547C33.3125 9.875 33.3633 9.67578 33.3555 9.45703ZM55.6211 3.48047C55.6211 3.55078 55.6094 3.61328 55.5859 3.66797C55.4219 3.55078 55.2695 3.41406 55.1289 3.25781C54.9961 3.09375 54.8516 2.94922 54.6953 2.82422C54.5469 2.69141 54.3828 2.59375 54.2031 2.53125C54.0312 2.46875 53.8242 2.47656 53.582 2.55469C53.4648 2.49219 53.3555 2.49219 53.2539 2.55469C53.1523 2.61719 53.0586 2.67969 52.9727 2.74219V2.8125C52.9023 2.8125 52.8281 2.80469 52.75 2.78906C52.6797 2.77344 52.6094 2.77344 52.5391 2.78906C52.4766 2.79688 52.4219 2.82812 52.375 2.88281C52.3359 2.9375 52.3164 3.03516 52.3164 3.17578C52.1602 3.15234 52.0273 3.18359 51.918 3.26953C51.8164 3.35547 51.7266 3.45312 51.6484 3.5625C51.5781 3.67188 51.5078 3.77344 51.4375 3.86719C51.3672 3.95312 51.2891 3.98828 51.2031 3.97266C51.2031 3.98047 51.1953 3.99219 51.1797 4.00781C51.1172 4.10156 51.043 4.19141 50.957 4.27734C50.8789 4.35547 50.8047 4.4375 50.7344 4.52344C50.4062 4.95312 50.1055 5.40234 49.832 5.87109C49.5664 6.33984 49.3281 6.82031 49.1172 7.3125C48.9375 7.39062 48.8047 7.49219 48.7188 7.61719C48.6328 7.73438 48.5703 7.86328 48.5312 8.00391C48.5 8.13672 48.4766 8.27734 48.4609 8.42578C48.4531 8.56641 48.4336 8.70703 48.4023 8.84766C48.3789 8.98047 48.332 9.10547 48.2617 9.22266C48.1914 9.33203 48.0781 9.42578 47.9219 9.50391L47.9688 9.70312C48.0469 9.67188 48.1055 9.67578 48.1445 9.71484C48.1836 9.75391 48.207 9.80859 48.2148 9.87891C48.2227 9.94922 48.2188 10.0234 48.2031 10.1016C48.1953 10.1719 48.1836 10.2305 48.168 10.2773C47.9961 10.4492 47.9062 10.6289 47.8984 10.8164C47.8906 10.9961 47.8984 11.1758 47.9219 11.3555C47.9453 11.5352 47.9492 11.7109 47.9336 11.8828C47.9258 12.0469 47.832 12.2031 47.6523 12.3516C47.582 12.3125 47.5117 12.293 47.4414 12.293C47.3789 12.293 47.3086 12.3086 47.2305 12.3398C47.168 12.3555 47.1211 12.3633 47.0898 12.3633C47.0586 12.3633 47.0195 12.3359 46.9727 12.2812C46.9336 12.2344 46.9062 12.1719 46.8906 12.0938C46.875 12.0234 46.8633 11.9492 46.8555 11.8711C46.8555 11.793 46.8516 11.7148 46.8438 11.6367C46.8438 11.5586 46.8398 11.4922 46.832 11.4375C47.0273 11.1875 47.1445 10.9297 47.1836 10.6641C47.2305 10.3984 47.25 10.1289 47.2422 9.85547C47.2422 9.58203 47.2461 9.30859 47.2539 9.03516C47.2617 8.76172 47.332 8.49219 47.4648 8.22656C47.4648 8.14062 47.4531 8.08594 47.4297 8.0625C47.4141 8.03906 47.3906 7.99609 47.3594 7.93359L47.4531 7.88672C47.4141 7.61328 47.4023 7.36719 47.418 7.14844C47.4414 6.92188 47.4766 6.67578 47.5234 6.41016L47.5352 6.33984L47.4883 6.29297C47.4336 6.23828 47.4062 6.17969 47.4062 6.11719C47.4141 6.05469 47.4297 5.99219 47.4531 5.92969C47.4844 5.86719 47.5117 5.80859 47.5352 5.75391C47.5664 5.69141 47.5742 5.62891 47.5586 5.56641C47.5352 5.47266 47.5078 5.37891 47.4766 5.28516C47.4531 5.18359 47.4336 5.08203 47.418 4.98047C47.3633 4.75391 47.3125 4.54688 47.2656 4.35938C47.2188 4.17188 47.1289 3.98047 46.9961 3.78516C46.8477 3.82422 46.6992 3.87891 46.5508 3.94922C46.4023 4.01172 46.2617 4.08984 46.1289 4.18359C46.0039 4.27734 45.8906 4.38672 45.7891 4.51172C45.6875 4.63672 45.6133 4.77344 45.5664 4.92188L45.5547 4.95703C45.5625 4.96484 45.5664 4.97656 45.5664 4.99219C45.5742 5.04688 45.5586 5.10156 45.5195 5.15625C45.4883 5.20312 45.4492 5.25781 45.4023 5.32031C45.3555 5.375 45.3125 5.44141 45.2734 5.51953C45.2344 5.58984 45.2188 5.67578 45.2266 5.77734C45.2344 5.85547 45.2227 5.94531 45.1914 6.04688C45.1602 6.14844 45.1211 6.25 45.0742 6.35156C45.0273 6.45312 44.9727 6.55078 44.9102 6.64453C44.8555 6.73828 44.8047 6.81641 44.7578 6.87891V6.89062C44.6641 7.0625 44.5898 7.24219 44.5352 7.42969C44.4805 7.61719 44.4297 7.80859 44.3828 8.00391C44.3359 8.19141 44.2773 8.37891 44.207 8.56641C44.1445 8.74609 44.0508 8.91797 43.9258 9.08203C44.0117 9.30078 44.0352 9.51953 43.9961 9.73828C43.9648 9.94922 43.9062 10.1641 43.8203 10.3828C43.7422 10.5938 43.6602 10.8086 43.5742 11.0273C43.4961 11.2383 43.457 11.4531 43.457 11.6719C43.457 11.7109 43.457 11.7461 43.457 11.7773C43.4648 11.8086 43.4688 11.8438 43.4688 11.8828C43.4297 11.9453 43.375 11.9844 43.3047 12C43.2422 12.0078 43.1719 12.0039 43.0938 11.9883C43.0156 11.9648 42.9414 11.9375 42.8711 11.9062C42.8008 11.8672 42.7422 11.832 42.6953 11.8008C42.5938 11.7227 42.5391 11.6367 42.5312 11.543C42.5234 11.4414 42.5312 11.3398 42.5547 11.2383C42.5781 11.1367 42.5977 11.0352 42.6133 10.9336C42.6289 10.832 42.6133 10.7383 42.5664 10.6523C42.6211 10.4414 42.6836 10.2383 42.7539 10.043C42.832 9.83984 42.9023 9.63672 42.9648 9.43359C43.0352 9.22266 43.0938 9.01562 43.1406 8.8125C43.1953 8.60156 43.2266 8.38281 43.2344 8.15625C43.3281 8.03906 43.3945 7.91016 43.4336 7.76953C43.4727 7.62891 43.5039 7.48828 43.5273 7.34766C43.5508 7.20703 43.5781 7.06641 43.6094 6.92578C43.6406 6.78516 43.6914 6.64844 43.7617 6.51562C43.7695 6.50781 43.7734 6.50391 43.7734 6.50391C43.7734 6.49609 43.7773 6.48828 43.7852 6.48047C43.832 6.27734 43.8516 6.09375 43.8438 5.92969C43.8359 5.75781 43.8203 5.57031 43.7969 5.36719C43.7969 5.32812 43.793 5.27734 43.7852 5.21484C43.7852 5.15234 43.7852 5.08594 43.7852 5.01562C43.7852 4.94531 43.7812 4.88281 43.7734 4.82812C43.7734 4.76562 43.7695 4.72266 43.7617 4.69922C43.7617 4.67578 43.7578 4.65234 43.75 4.62891C43.7422 4.60547 43.7383 4.58203 43.7383 4.55859C43.7383 4.41016 43.7656 4.26562 43.8203 4.125C43.875 3.97656 43.9023 3.82422 43.9023 3.66797C43.9023 3.53516 43.8633 3.41016 43.7852 3.29297C43.7148 3.16797 43.6211 3.07422 43.5039 3.01172C43.4883 3.00391 43.4648 3 43.4336 3C43.3242 3 43.2344 3.02344 43.1641 3.07031C43.1016 3.10938 43.0508 3.16406 43.0117 3.23438C42.9727 3.29688 42.9414 3.37109 42.918 3.45703C42.9023 3.53516 42.8867 3.61719 42.8711 3.70312C42.8711 3.73438 42.8633 3.78125 42.8477 3.84375C42.8398 3.90625 42.8281 3.94531 42.8125 3.96094C42.7734 4.03906 42.7188 4.12109 42.6484 4.20703C42.5859 4.29297 42.5273 4.375 42.4727 4.45312C42.3242 4.66406 42.1953 4.87891 42.0859 5.09766C41.9844 5.30859 41.8945 5.53906 41.8164 5.78906C41.7227 5.78125 41.6445 5.78906 41.582 5.8125C41.5273 5.83594 41.4805 5.87109 41.4414 5.91797C41.4023 5.96484 41.3633 6.01953 41.3242 6.08203C41.2852 6.14453 41.2383 6.20312 41.1836 6.25781L41.1016 6.33984L41.1602 6.39844C41.0273 6.48438 40.9336 6.59766 40.8789 6.73828C40.8242 6.87891 40.7852 7.02734 40.7617 7.18359C40.7461 7.30078 40.7305 7.39844 40.7148 7.47656C40.6914 7.55469 40.6602 7.61719 40.6211 7.66406C40.582 7.70312 40.5273 7.73047 40.457 7.74609C40.3789 7.75391 40.2773 7.75 40.1523 7.73438H40.1172L40.0938 7.75781C39.9688 7.82031 39.8984 7.89453 39.8828 7.98047C39.8594 8.05859 39.8516 8.13672 39.8594 8.21484C39.8594 8.29297 39.8594 8.36328 39.8594 8.42578C39.8516 8.48828 39.7969 8.52344 39.6953 8.53125C39.5938 8.54688 39.4844 8.55078 39.3672 8.54297C39.25 8.53516 39.1445 8.50391 39.0508 8.44922C39.0508 8.37891 39.0469 8.32422 39.0391 8.28516C39.0234 7.96484 39.082 7.65625 39.2148 7.35938C39.3398 7.0625 39.4844 6.78516 39.6484 6.52734V6.51562H39.6602V6.49219C39.7148 6.28125 39.7891 6.0625 39.8828 5.83594C39.9688 5.60938 40.0703 5.39062 40.1875 5.17969C40.3047 4.96875 40.4375 4.76953 40.5859 4.58203C40.7266 4.39453 40.8828 4.23438 41.0547 4.10156C41.0312 4.03906 41.0156 3.99219 41.0078 3.96094C41.0078 3.92188 41.0156 3.89453 41.0312 3.87891C41.0469 3.85547 41.0703 3.83594 41.1016 3.82031C41.1406 3.80469 41.1914 3.77734 41.2539 3.73828C41.2852 3.66797 41.3359 3.58984 41.4062 3.50391C41.4766 3.41016 41.5547 3.31641 41.6406 3.22266C41.7266 3.12109 41.8086 3.02734 41.8867 2.94141C41.9727 2.85547 42.043 2.78125 42.0977 2.71875C42.2852 2.53125 42.4492 2.35156 42.5898 2.17969C42.7383 2 42.875 1.78906 43 1.54688C43.1328 1.58594 43.2773 1.61719 43.4336 1.64062C43.5977 1.66406 43.7461 1.65625 43.8789 1.61719C43.8945 1.71094 43.9297 1.78906 43.9844 1.85156C44.0469 1.91406 44.1211 1.96094 44.207 1.99219C44.2305 2.11719 44.2812 2.25 44.3594 2.39062C44.4375 2.53125 44.5156 2.67578 44.5938 2.82422C44.6719 2.97266 44.7305 3.11719 44.7695 3.25781C44.8164 3.39844 44.8242 3.52734 44.793 3.64453C44.7695 3.72266 44.7539 3.78516 44.7461 3.83203C44.7461 3.87891 44.7422 3.92188 44.7344 3.96094C44.7266 3.99219 44.7109 4.02344 44.6875 4.05469C44.6641 4.08594 44.625 4.12891 44.5703 4.18359C44.6406 4.23828 44.7188 4.28906 44.8047 4.33594C44.8906 4.38281 44.9766 4.39062 45.0625 4.35938C45.1328 4.32812 45.1836 4.28125 45.2148 4.21875C45.2461 4.15625 45.2695 4.08984 45.2852 4.01953C45.3086 3.94922 45.3281 3.88281 45.3438 3.82031C45.3672 3.75 45.4023 3.69141 45.4492 3.64453C45.582 3.52734 45.707 3.40625 45.8242 3.28125C45.9414 3.15625 46.0625 3.03906 46.1875 2.92969C46.3125 2.82031 46.4492 2.72656 46.5977 2.64844C46.7461 2.57031 46.9141 2.51953 47.1016 2.49609C47.2422 2.54297 47.3438 2.62109 47.4062 2.73047C47.4766 2.83984 47.5352 2.95703 47.582 3.08203C47.6289 3.20703 47.6758 3.33203 47.7227 3.45703C47.7695 3.58203 47.8477 3.69141 47.957 3.78516C47.9414 3.91797 47.9375 4.04297 47.9453 4.16016C47.9609 4.27734 48.0469 4.35547 48.2031 4.39453C48.2188 4.56641 48.2266 4.71875 48.2266 4.85156C48.2266 4.98438 48.2305 5.11328 48.2383 5.23828C48.2539 5.35547 48.2812 5.48047 48.3203 5.61328C48.3594 5.73828 48.4219 5.88281 48.5078 6.04688L48.6133 5.88281C48.6602 5.80469 48.7148 5.73438 48.7773 5.67188C48.8398 5.60938 48.8984 5.54688 48.9531 5.48438C49.0156 5.42188 49.0703 5.35547 49.1172 5.28516C49.1641 5.20703 49.1992 5.12109 49.2227 5.02734C49.332 5.01172 49.4062 4.97656 49.4453 4.92188C49.4844 4.85938 49.5352 4.79688 49.5977 4.73438C49.5898 4.63281 49.6172 4.50391 49.6797 4.34766C49.75 4.18359 49.832 4.01562 49.9258 3.84375C50.0195 3.67188 50.1133 3.50391 50.207 3.33984C50.3008 3.17578 50.3672 3.03125 50.4062 2.90625C50.625 2.83594 50.8203 2.71875 50.9922 2.55469C51.1719 2.39062 51.3477 2.23047 51.5195 2.07422C51.6992 1.91016 51.8867 1.77734 52.082 1.67578C52.2773 1.56641 52.5078 1.53906 52.7734 1.59375C52.9844 1.59375 53.168 1.60938 53.3242 1.64062C53.4883 1.66406 53.6445 1.69922 53.793 1.74609C53.9414 1.79297 54.0898 1.85547 54.2383 1.93359C54.3867 2.00391 54.5508 2.08594 54.7305 2.17969C54.7383 2.17969 54.7617 2.19141 54.8008 2.21484C54.8398 2.23047 54.8789 2.25 54.918 2.27344C54.957 2.29688 54.9922 2.32031 55.0234 2.34375C55.0625 2.35938 55.082 2.36719 55.082 2.36719C55.1914 2.52344 55.3086 2.69922 55.4336 2.89453C55.5586 3.08203 55.6211 3.27734 55.6211 3.48047ZM59.3125 8.32031C59.3438 8.4375 59.332 8.53906 59.2773 8.625C59.2227 8.70312 59.1484 8.77344 59.0547 8.83594C58.9688 8.89844 58.8711 8.95703 58.7617 9.01172C58.6602 9.05859 58.5742 9.11328 58.5039 9.17578C58.1523 9.25391 57.832 9.3125 57.543 9.35156C57.2617 9.38281 56.9492 9.42578 56.6055 9.48047C56.5039 9.49609 56.4062 9.49609 56.3125 9.48047C56.2266 9.45703 56.1367 9.44922 56.043 9.45703C55.9883 9.45703 55.9375 9.45703 55.8906 9.45703C55.8438 9.44922 55.7969 9.44922 55.75 9.45703C55.5703 9.47266 55.4531 9.53516 55.3984 9.64453C55.3438 9.74609 55.2969 9.86719 55.2578 10.0078C55.2266 10.1406 55.1836 10.2695 55.1289 10.3945C55.082 10.5117 54.9766 10.5938 54.8125 10.6406C54.7969 10.6797 54.8008 10.7148 54.8242 10.7461C54.8555 10.7773 54.8789 10.8047 54.8945 10.8281C54.7617 10.8672 54.6719 10.9375 54.625 11.0391C54.5859 11.1406 54.5508 11.2422 54.5195 11.3438C54.4883 11.4453 54.4414 11.5312 54.3789 11.6016C54.3242 11.6719 54.2148 11.6953 54.0508 11.6719C53.8086 11.9297 53.5234 12.1367 53.1953 12.293C52.8672 12.457 52.5273 12.5625 52.1758 12.6094C52.1133 12.5781 52.0508 12.5391 51.9883 12.4922C51.9336 12.4453 51.875 12.4023 51.8125 12.3633C51.7578 12.3242 51.6953 12.293 51.625 12.2695C51.5625 12.2539 51.4883 12.2539 51.4023 12.2695C51.3945 12.1055 51.3633 11.9531 51.3086 11.8125C51.2461 11.6719 51.168 11.5391 51.0742 11.4141C51.0586 11.2734 51.0781 11.1445 51.1328 11.0273C51.1797 10.9023 51.2305 10.7812 51.2852 10.6641C51.3398 10.5469 51.3867 10.4297 51.4258 10.3125C51.457 10.1875 51.4492 10.0469 51.4023 9.89062C51.4805 9.84375 51.5312 9.78906 51.5547 9.72656C51.5859 9.66406 51.6055 9.60156 51.6133 9.53906C51.6289 9.46875 51.6484 9.40625 51.6719 9.35156C51.6953 9.28906 51.75 9.23828 51.8359 9.19922C51.7734 9.01172 51.7812 8.875 51.8594 8.78906C51.9453 8.69531 52.0469 8.61328 52.1641 8.54297C52.2812 8.47266 52.3906 8.39453 52.4922 8.30859C52.5938 8.22266 52.6328 8.09375 52.6094 7.92188C52.6562 7.875 52.7109 7.83594 52.7734 7.80469C52.8359 7.77344 52.8945 7.74609 52.9492 7.72266C53.0117 7.69141 53.0703 7.66016 53.125 7.62891C53.1797 7.59766 53.2305 7.55469 53.2773 7.5C53.2227 7.46094 53.1953 7.42188 53.1953 7.38281C53.2031 7.34375 53.2148 7.30469 53.2305 7.26562C53.2461 7.21875 53.2617 7.17188 53.2773 7.125C53.3008 7.07812 53.3008 7.03125 53.2773 6.98438C53.4883 7.01562 53.6719 6.98828 53.8281 6.90234C53.9922 6.80859 54.1445 6.71484 54.2852 6.62109C54.4336 6.52734 54.582 6.46094 54.7305 6.42188C54.8789 6.38281 55.0508 6.42969 55.2461 6.5625C55.2617 6.61719 55.2852 6.69922 55.3164 6.80859C55.3555 6.91016 55.3906 7.01562 55.4219 7.125C55.4609 7.23438 55.4961 7.33984 55.5273 7.44141C55.5586 7.54297 55.5781 7.61719 55.5859 7.66406C55.5859 7.70312 55.5859 7.76562 55.5859 7.85156C55.5859 7.9375 55.5859 8.03125 55.5859 8.13281C55.5859 8.22656 55.5859 8.31641 55.5859 8.40234C55.5859 8.48828 55.5859 8.55469 55.5859 8.60156C55.8125 8.73438 56.0391 8.81641 56.2656 8.84766C56.4922 8.87109 56.7188 8.81641 56.9453 8.68359C57.0312 8.76172 57.1133 8.78516 57.1914 8.75391C57.2695 8.71484 57.3438 8.67188 57.4141 8.625C57.4922 8.57812 57.5703 8.55469 57.6484 8.55469C57.7266 8.54688 57.8047 8.60938 57.8828 8.74219C57.9922 8.64062 58.1055 8.57812 58.2227 8.55469C58.3398 8.52344 58.4609 8.50781 58.5859 8.50781C58.7109 8.5 58.832 8.48828 58.9492 8.47266C59.0742 8.45703 59.1953 8.40625 59.3125 8.32031ZM54.8125 8.51953C54.8125 8.40234 54.832 8.27734 54.8711 8.14453C54.9102 8.01172 54.9414 7.88281 54.9648 7.75781C54.9883 7.625 54.9844 7.5 54.9531 7.38281C54.9297 7.26562 54.8555 7.16016 54.7305 7.06641C54.6445 7.11328 54.5742 7.17969 54.5195 7.26562C54.4648 7.34375 54.4102 7.42578 54.3555 7.51172C54.3008 7.58984 54.2344 7.65625 54.1562 7.71094C54.0859 7.76562 53.9922 7.78125 53.875 7.75781C53.8359 7.85156 53.8359 7.92969 53.875 7.99219C53.9141 8.04688 53.9609 8.10156 54.0156 8.15625C54.0703 8.20312 54.1211 8.25391 54.168 8.30859C54.2227 8.36328 54.2422 8.43359 54.2266 8.51953C54.2578 8.54297 54.3008 8.56641 54.3555 8.58984C54.4102 8.60547 54.4648 8.61719 54.5195 8.625C54.582 8.625 54.6406 8.61719 54.6953 8.60156C54.75 8.58594 54.7891 8.55859 54.8125 8.51953ZM54.7305 9.45703C54.5742 9.45703 54.4375 9.42188 54.3203 9.35156C54.2109 9.27344 54.0977 9.1875 53.9805 9.09375C53.8711 9 53.7539 8.91406 53.6289 8.83594C53.5117 8.75 53.3672 8.69922 53.1953 8.68359C53.125 8.77734 53.043 8.86719 52.9492 8.95312C52.8555 9.03125 52.7734 9.11719 52.7031 9.21094C52.6328 9.30469 52.582 9.40625 52.5508 9.51562C52.5273 9.625 52.5469 9.75 52.6094 9.89062C52.4297 9.97656 52.3086 10.1016 52.2461 10.2656C52.1836 10.4219 52.1406 10.5938 52.1172 10.7812C52.1016 10.9688 52.0859 11.1562 52.0703 11.3438C52.0547 11.5312 52.0039 11.6992 51.918 11.8477L52.1758 11.6719C52.207 11.6875 52.2305 11.7109 52.2461 11.7422C52.2695 11.7734 52.2734 11.8086 52.2578 11.8477C52.3203 11.7852 52.3906 11.7383 52.4688 11.707C52.5469 11.668 52.625 11.6406 52.7031 11.625C52.7891 11.6016 52.8711 11.582 52.9492 11.5664C53.0352 11.5508 53.1172 11.5273 53.1953 11.4961C53.3906 11.6055 53.5312 11.6289 53.6172 11.5664C53.7031 11.5039 53.7734 11.4102 53.8281 11.2852C53.8828 11.1602 53.9414 11.0312 54.0039 10.8984C54.0664 10.7578 54.168 10.6719 54.3086 10.6406L54.2266 10.5586C54.3594 10.3945 54.4766 10.2266 54.5781 10.0547C54.6875 9.875 54.7383 9.67578 54.7305 9.45703ZM66.2266 9.67969C66.0469 9.76562 65.9258 9.87109 65.8633 9.99609C65.8008 10.1211 65.75 10.25 65.7109 10.3828C65.6797 10.5156 65.6367 10.6445 65.582 10.7695C65.5352 10.8867 65.4297 10.9844 65.2656 11.0625C65.2266 11.2031 65.1484 11.3008 65.0312 11.3555C64.9219 11.4102 64.8047 11.4609 64.6797 11.5078C64.5547 11.5469 64.4414 11.6016 64.3398 11.6719C64.2461 11.7422 64.1992 11.8633 64.1992 12.0352C64.043 12.1211 63.8711 12.1992 63.6836 12.2695C63.5039 12.3398 63.3125 12.3906 63.1094 12.4219C62.9141 12.4609 62.7188 12.4766 62.5234 12.4688C62.3281 12.4609 62.1445 12.4219 61.9727 12.3516C61.8555 12.2969 61.7422 12.2266 61.6328 12.1406C61.5938 12.1094 61.5547 12.082 61.5156 12.0586C61.4844 12.043 61.4492 12.0156 61.4102 11.9766C61.3164 11.8828 61.2383 11.7734 61.1758 11.6484C61.1133 11.5234 61.0625 11.3906 61.0234 11.25C60.9844 11.1094 60.9531 10.9688 60.9297 10.8281C60.9062 10.6875 60.8867 10.5547 60.8711 10.4297L61.3047 9.25781C61.0781 9.07812 60.8945 8.87109 60.7539 8.63672C60.6133 8.39453 60.4414 8.17188 60.2383 7.96875C60.1992 8.02344 60.1484 8.07031 60.0859 8.10938C60.0234 8.14844 60 8.21094 60.0156 8.29688L60.1328 8.40234C59.875 8.68359 59.6133 9.00391 59.3477 9.36328C59.0898 9.71484 58.8867 10.0703 58.7383 10.4297C58.5664 10.4219 58.4453 10.4648 58.375 10.5586C58.3047 10.6445 58.2461 10.7461 58.1992 10.8633C58.1523 10.9727 58.0938 11.0742 58.0234 11.168C57.9531 11.2617 57.8359 11.3008 57.6719 11.2852C57.6328 11.3711 57.5938 11.4648 57.5547 11.5664C57.5156 11.6602 57.4688 11.75 57.4141 11.8359C57.3594 11.9219 57.293 11.9922 57.2148 12.0469C57.1367 12.1094 57.0391 12.1406 56.9219 12.1406C56.8594 12.0781 56.8242 12.0117 56.8164 11.9414C56.8086 11.8711 56.8164 11.8008 56.8398 11.7305C56.8633 11.6523 56.8945 11.5781 56.9336 11.5078C56.9727 11.4297 57 11.3555 57.0156 11.2852C57.0781 11.0586 57.1914 10.8555 57.3555 10.6758C57.5195 10.4883 57.6836 10.3047 57.8477 10.125C58.0117 9.9375 58.1523 9.74219 58.2695 9.53906C58.3867 9.33594 58.4336 9.09766 58.4102 8.82422C58.5117 8.81641 58.6133 8.79688 58.7148 8.76562C58.8242 8.72656 58.9219 8.67969 59.0078 8.625C59.1016 8.5625 59.1719 8.48828 59.2188 8.40234C59.2734 8.30859 59.293 8.19922 59.2773 8.07422C59.2148 8.04297 59.1797 8 59.1719 7.94531C59.1641 7.88281 59.1641 7.82031 59.1719 7.75781C59.3438 7.70312 59.4805 7.60938 59.582 7.47656C59.6914 7.33594 59.7891 7.1875 59.875 7.03125C59.9609 6.875 60.043 6.71875 60.1211 6.5625C60.207 6.39844 60.3164 6.25781 60.4492 6.14062C60.5586 6.20312 60.668 6.25781 60.7773 6.30469C60.8867 6.34375 60.9922 6.39844 61.0938 6.46875C61.0234 6.5625 60.9805 6.65234 60.9648 6.73828C60.9492 6.82422 60.9414 6.91406 60.9414 7.00781C60.9414 7.09375 60.9414 7.17969 60.9414 7.26562C60.9414 7.35156 60.918 7.44141 60.8711 7.53516C60.9961 7.64453 61.1016 7.77344 61.1875 7.92188C61.2734 8.07031 61.3828 8.19531 61.5156 8.29688C61.6094 8.22656 61.7148 8.19141 61.832 8.19141C61.9492 8.18359 62.0664 8.18359 62.1836 8.19141C62.3086 8.19141 62.4258 8.18359 62.5352 8.16797C62.6445 8.14453 62.7344 8.07812 62.8047 7.96875C62.8359 8 62.8828 8.01562 62.9453 8.01562C63.0078 8.01562 63.0703 8.01562 63.1328 8.01562C63.1953 8.01562 63.25 8.02734 63.2969 8.05078C63.3438 8.06641 63.3711 8.10156 63.3789 8.15625C63.3867 8.21875 63.3828 8.26172 63.3672 8.28516C63.3594 8.30859 63.3477 8.34766 63.332 8.40234C63.3164 8.46484 63.3125 8.49609 63.3203 8.49609C63.3281 8.49609 63.3203 8.52344 63.2969 8.57812C63.2578 8.67969 63.1914 8.76562 63.0977 8.83594C63.0117 8.90625 62.9219 8.97656 62.8281 9.04688C62.7422 9.10938 62.6602 9.18359 62.582 9.26953C62.5117 9.34766 62.4766 9.44922 62.4766 9.57422C62.3047 9.63672 62.1836 9.73047 62.1133 9.85547C62.043 9.97266 61.9961 10.1094 61.9727 10.2656C61.9492 10.4141 61.9336 10.5703 61.9258 10.7344C61.918 10.8906 61.8906 11.0352 61.8438 11.168L61.9492 11.2852L62.043 11.168C62.1523 11.3242 62.2812 11.4219 62.4297 11.4609C62.5859 11.5 62.7461 11.5117 62.9102 11.4961C62.9883 11.3789 63.0781 11.2852 63.1797 11.2148C63.2891 11.1445 63.4023 11.0859 63.5195 11.0391C63.6445 10.9922 63.7695 10.9492 63.8945 10.9102C64.0273 10.8711 64.1523 10.8242 64.2695 10.7695C64.3633 10.7227 64.4414 10.6719 64.5039 10.6172C64.5742 10.5625 64.6484 10.5 64.7266 10.4297C64.9609 10.2109 65.1914 9.99609 65.418 9.78516C65.6523 9.57422 65.8867 9.35938 66.1211 9.14062C66.168 9.14062 66.1992 9.16406 66.2148 9.21094C66.2305 9.25781 66.2383 9.3125 66.2383 9.375C66.2383 9.42969 66.2344 9.48828 66.2266 9.55078C66.2266 9.60547 66.2266 9.64844 66.2266 9.67969ZM73.3516 8.15625C73.3594 8.27344 73.3359 8.38672 73.2812 8.49609C73.2344 8.60547 73.1914 8.70312 73.1523 8.78906L72.7773 9.1875L72.5547 9.85547C72.4688 9.91797 72.375 9.98047 72.2734 10.043C72.1797 10.0977 72.0938 10.1562 72.0156 10.2188C71.9297 10.2891 71.8516 10.3672 71.7812 10.4531C71.7188 10.5391 71.6484 10.6133 71.5703 10.6758C71.4922 10.7383 71.3984 10.793 71.2891 10.8398C71.1875 10.8789 71.0938 10.9258 71.0078 10.9805C70.8516 11.0742 70.7031 11.1719 70.5625 11.2734C70.4297 11.375 70.2891 11.4727 70.1406 11.5664C70.1016 11.582 70.0703 11.6016 70.0469 11.625C70.0312 11.6406 70.0039 11.6562 69.9648 11.6719C69.9414 11.6875 69.8398 11.7188 69.6602 11.7656C69.4805 11.8125 69.2812 11.8672 69.0625 11.9297C68.8516 11.9844 68.6523 12.0352 68.4648 12.082C68.2773 12.1289 68.1719 12.1523 68.1484 12.1523C68.0078 12.168 67.8633 12.1758 67.7148 12.1758C67.5664 12.1758 67.418 12.1797 67.2695 12.1875L67.0938 12.293C67.0078 12.2305 66.9141 12.1719 66.8125 12.1172C66.7109 12.0625 66.625 12.0039 66.5547 11.9414C66.4766 11.8711 66.3984 11.793 66.3203 11.707C66.2422 11.6133 66.1719 11.5273 66.1094 11.4492C66.0703 11.3398 66.0312 11.2344 65.9922 11.1328C65.9531 11.0234 65.9219 10.918 65.8984 10.8164L65.8398 10.3711C65.8242 10.2227 65.8086 10.0781 65.793 9.9375C65.7852 9.79688 65.7734 9.65234 65.7578 9.50391C65.8906 9.13672 66.0078 8.76953 66.1094 8.40234C66.2188 8.02734 66.3516 7.66016 66.5078 7.30078C66.5469 7.21484 66.582 7.12891 66.6133 7.04297C66.6523 6.94922 66.6914 6.85938 66.7305 6.77344C66.7773 6.67969 66.8281 6.59375 66.8828 6.51562C66.9375 6.42969 66.9844 6.34375 67.0234 6.25781C67.0625 6.16406 67.0938 6.07031 67.1172 5.97656C67.1406 5.875 67.1719 5.78125 67.2109 5.69531C67.2344 5.64844 67.2734 5.58203 67.3281 5.49609C67.3828 5.40234 67.4414 5.30859 67.5039 5.21484C67.5664 5.11328 67.625 5.01562 67.6797 4.92188C67.7422 4.82812 67.793 4.75391 67.832 4.69922C67.8945 4.62109 67.957 4.54688 68.0195 4.47656C68.082 4.40625 68.1328 4.32812 68.1719 4.24219C68.25 4.10938 68.3242 3.94141 68.3945 3.73828C68.4648 3.53516 68.543 3.35547 68.6289 3.19922C68.7227 3.02734 68.832 2.86719 68.957 2.71875C69.0898 2.5625 69.2109 2.40234 69.3203 2.23828C69.4375 2.07422 69.5508 1.89453 69.6602 1.69922L70.1758 1.32422L70.4102 1.55859L70.9727 1.46484L71.3242 1.99219C71.3086 2.10938 71.2891 2.24219 71.2656 2.39062C71.25 2.53906 71.2344 2.69141 71.2188 2.84766C71.2109 2.99609 71.2031 3.14453 71.1953 3.29297C71.1953 3.43359 71.2031 3.55859 71.2188 3.66797C71.1797 3.80859 71.1211 3.95703 71.043 4.11328C70.9727 4.26172 70.8906 4.39062 70.7969 4.5L70.75 5.13281L70.2812 5.55469L70.2227 6.15234L69.8242 6.62109C69.8008 6.73047 69.7773 6.84375 69.7539 6.96094C69.7305 7.07031 69.6992 7.17578 69.6602 7.27734C69.6211 7.37109 69.5742 7.46875 69.5195 7.57031C69.4648 7.66406 69.4102 7.76172 69.3555 7.86328C69.1992 7.99609 69.0391 8.14453 68.875 8.30859C68.7109 8.47266 68.5625 8.63672 68.4297 8.80078C68.3594 8.88672 68.293 8.98047 68.2305 9.08203C68.1758 9.17578 68.1172 9.26562 68.0547 9.35156C67.8516 9.60938 67.6328 9.85156 67.3984 10.0781C67.1641 10.3047 66.9336 10.5391 66.707 10.7812L66.9648 11.2383C67.1289 11.293 67.2969 11.3438 67.4688 11.3906C67.6406 11.4375 67.8125 11.4805 67.9844 11.5195C68.0625 11.5039 68.1523 11.4883 68.2539 11.4727C68.3555 11.4492 68.4609 11.4258 68.5703 11.4023C68.6797 11.3711 68.7852 11.3398 68.8867 11.3086C68.9961 11.2773 69.0859 11.2461 69.1562 11.2148C69.3125 11.1523 69.4922 11.0625 69.6953 10.9453C69.8984 10.8203 70.0703 10.7109 70.2109 10.6172C70.4609 10.4609 70.7148 10.3008 70.9727 10.1367C71.2305 9.97266 71.4766 9.80078 71.7109 9.62109C71.8672 9.50391 72.0312 9.35547 72.2031 9.17578C72.375 8.99609 72.5352 8.82812 72.6836 8.67188C72.8398 8.50781 72.9766 8.375 73.0938 8.27344C73.2188 8.17188 73.3047 8.13281 73.3516 8.15625ZM70.1641 2.61328C70 2.88672 69.8242 3.15234 69.6367 3.41016C69.457 3.66016 69.2891 3.92188 69.1328 4.19531C69.0781 4.28906 69.0312 4.38672 68.9922 4.48828C68.9531 4.58203 68.9023 4.67578 68.8398 4.76953C68.7852 4.85547 68.7266 4.94141 68.6641 5.02734C68.6016 5.11328 68.5469 5.20703 68.5 5.30859C68.4062 5.48828 68.3203 5.67969 68.2422 5.88281C68.1719 6.07812 68.0938 6.26953 68.0078 6.45703C67.9141 6.64453 67.8047 6.82031 67.6797 6.98438C67.5547 7.14844 67.4414 7.32422 67.3398 7.51172L67.1523 7.88672C67.1367 7.92578 67.1211 7.95703 67.1055 7.98047C67.0898 7.99609 67.0742 8.02344 67.0586 8.0625C67.0273 8.14844 67.0117 8.24219 67.0117 8.34375C67.0117 8.44531 67 8.53906 66.9766 8.625C66.9531 8.71875 66.918 8.80859 66.8711 8.89453C66.8242 8.98047 66.7812 9.06641 66.7422 9.15234C66.7031 9.23828 66.6719 9.32812 66.6484 9.42188C66.625 9.50781 66.5977 9.59375 66.5664 9.67969C66.6289 9.61719 66.6953 9.5625 66.7656 9.51562C66.8438 9.46094 66.918 9.40234 66.9883 9.33984C67.0586 9.26953 67.125 9.19531 67.1875 9.11719C67.25 9.03906 67.3203 8.96875 67.3984 8.90625C67.4688 8.84375 67.543 8.78906 67.6211 8.74219C67.707 8.6875 67.7891 8.63281 67.8672 8.57812C67.9922 8.40625 68.1016 8.23047 68.1953 8.05078C68.2422 7.96484 68.2812 7.86719 68.3125 7.75781C68.3516 7.64844 68.3984 7.55078 68.4531 7.46484C68.5 7.37891 68.5586 7.29688 68.6289 7.21875C68.707 7.14062 68.7734 7.05859 68.8281 6.97266C68.8906 6.88672 68.9414 6.79688 68.9805 6.70312C69.0273 6.60938 69.0781 6.51953 69.1328 6.43359C69.2422 6.26172 69.3633 6.09766 69.4961 5.94141L69.5547 5.20312L69.9766 4.71094L70.0352 4.26562L70.3281 3.85547L70.3633 3.19922L70.1641 2.61328ZM80.9688 9.44531C80.7969 9.83594 80.6406 10.1406 80.5 10.3594C80.3594 10.5703 80.2031 10.7461 80.0312 10.8867C79.8672 11.0273 79.6758 11.1602 79.457 11.2852C79.2383 11.4023 78.9688 11.5703 78.6484 11.7891C78.5156 11.7969 78.3711 11.8281 78.2148 11.8828C78.0586 11.9297 77.9258 11.9961 77.8164 12.082C77.582 12.0586 77.3672 12.0078 77.1719 11.9297C76.9766 11.8516 76.793 11.7266 76.6211 11.5547C76.582 11.5156 76.5469 11.4727 76.5156 11.4258C76.4844 11.3789 76.4492 11.3359 76.4102 11.2969C76.3242 11.1953 76.2695 11.1055 76.2461 11.0273C76.2227 10.9492 76.2031 10.8477 76.1875 10.7227C76.1562 10.543 76.1094 10.4141 76.0469 10.3359C75.9844 10.2578 75.8633 10.2969 75.6836 10.4531L75.5781 10.3594L75.5547 10.3828C75.4844 10.4375 75.4258 10.4844 75.3789 10.5234C75.3398 10.5625 75.2969 10.6055 75.25 10.6523C75.2109 10.6914 75.1719 10.7344 75.1328 10.7812C75.0938 10.8281 75.0469 10.8867 74.9922 10.957C74.8984 11.0742 74.793 11.1953 74.6758 11.3203C74.5664 11.4453 74.4375 11.5312 74.2891 11.5781C74.2656 11.6016 74.2461 11.625 74.2305 11.6484C74.2148 11.6641 74.1875 11.6758 74.1484 11.6836C74.1016 11.6992 74.0469 11.6953 73.9844 11.6719C73.9219 11.6484 73.8711 11.6172 73.832 11.5781C73.7461 11.5781 73.668 11.6016 73.5977 11.6484C73.5352 11.6875 73.4727 11.7422 73.4102 11.8125C73.3555 11.875 73.3008 11.9414 73.2461 12.0117C73.1992 12.082 73.1445 12.1406 73.082 12.1875C72.957 12.1406 72.8398 12.1328 72.7305 12.1641C72.6289 12.1953 72.5273 12.2227 72.4258 12.2461C72.3242 12.2773 72.2227 12.2891 72.1211 12.2812C72.0195 12.2812 71.918 12.2227 71.8164 12.1055C71.7695 11.8711 71.7305 11.6562 71.6992 11.4609C71.668 11.2969 71.6406 11.1406 71.6172 10.9922C71.5938 10.8438 71.582 10.7539 71.582 10.7227C71.6211 10.6836 71.6406 10.6328 71.6406 10.5703C71.6328 10.5 71.6211 10.4414 71.6055 10.3945C71.5898 10.3867 71.582 10.3789 71.582 10.3711C71.582 10.3633 71.5742 10.3555 71.5586 10.3477C71.5977 10.3164 71.6289 10.2773 71.6523 10.2305C71.668 10.1836 71.6953 10.1445 71.7344 10.1133C71.7109 10.0508 71.6836 9.98047 71.6523 9.90234C71.6211 9.82422 71.6055 9.74609 71.6055 9.66797C71.6289 9.60547 71.6523 9.57031 71.6758 9.5625C71.6914 9.55469 71.7344 9.54297 71.8047 9.52734C71.7969 9.48828 71.7891 9.45312 71.7812 9.42188C71.7656 9.38281 71.7617 9.34375 71.7695 9.30469C71.7695 9.22656 71.7891 9.16016 71.8281 9.10547C71.8594 9.04297 71.8945 8.98438 71.9336 8.92969C71.9727 8.86719 72.0078 8.80078 72.0391 8.73047C72.0703 8.66016 72.0859 8.57812 72.0859 8.48438V8.42578C72.2031 8.42578 72.2812 8.39453 72.3203 8.33203C72.3594 8.26172 72.3828 8.18359 72.3906 8.09766C72.3984 8.01172 72.4023 7.92578 72.4023 7.83984C72.4023 7.75391 72.4258 7.69141 72.4727 7.65234C72.5039 7.62109 72.5312 7.60938 72.5547 7.61719C72.5859 7.61719 72.6211 7.61719 72.6602 7.61719C72.707 7.5625 72.7383 7.52344 72.7539 7.5C72.7695 7.46875 72.7656 7.41406 72.7422 7.33594C72.7969 7.33594 72.8398 7.32422 72.8711 7.30078C72.9023 7.27734 72.9258 7.24609 72.9414 7.20703C72.9648 7.16797 72.9844 7.12891 73 7.08984C73.0234 7.05078 73.0508 7.01562 73.082 6.98438C73.082 6.78906 73.1328 6.65234 73.2344 6.57422C73.3359 6.49609 73.4492 6.43359 73.5742 6.38672C73.707 6.33203 73.8359 6.26953 73.9609 6.19922C74.0938 6.12891 74.1914 6.00391 74.2539 5.82422C74.3555 5.88672 74.4414 5.89453 74.5117 5.84766C74.582 5.79297 74.6484 5.73828 74.7109 5.68359C74.7734 5.62109 74.8438 5.58203 74.9219 5.56641C75 5.54297 75.0977 5.59375 75.2148 5.71875C75.2617 5.57031 75.3555 5.49219 75.4961 5.48438C75.6445 5.47656 75.7773 5.50781 75.8945 5.57812V5.58984H75.9062C76.0312 5.61328 76.125 5.67578 76.1875 5.77734C76.25 5.87109 76.3008 5.98047 76.3398 6.10547C76.3867 6.22266 76.4336 6.33984 76.4805 6.45703C76.5352 6.57422 76.6094 6.66797 76.7031 6.73828C76.75 6.53516 76.793 6.32812 76.832 6.11719C76.8789 5.90625 76.9531 5.70703 77.0547 5.51953C77.125 5.60547 77.1992 5.62109 77.2773 5.56641L77.2656 5.54297C77.2656 5.41797 77.2891 5.30469 77.3359 5.20312C77.3906 5.10156 77.4414 5.00391 77.4883 4.91016C77.543 4.80859 77.5742 4.70703 77.582 4.60547C77.5977 4.49609 77.5625 4.375 77.4766 4.24219C77.6094 4.20312 77.7031 4.12891 77.7578 4.01953C77.8203 3.91016 77.8672 3.79297 77.8984 3.66797C77.9375 3.53516 77.9766 3.40234 78.0156 3.26953C78.0625 3.13672 78.1328 3.02344 78.2266 2.92969C78.2266 2.90625 78.2227 2.88281 78.2148 2.85938C78.2148 2.83594 78.2148 2.8125 78.2148 2.78906C78.2227 2.72656 78.2461 2.67188 78.2852 2.625C78.3242 2.57812 78.3672 2.53125 78.4141 2.48438C78.4609 2.4375 78.5 2.38672 78.5312 2.33203C78.5703 2.26953 78.5859 2.19531 78.5781 2.10938C78.6562 2.00781 78.7266 1.875 78.7891 1.71094C78.8516 1.53906 78.918 1.37891 78.9883 1.23047C79.0586 1.08203 79.1406 0.972656 79.2344 0.902344C79.3281 0.824219 79.4492 0.828125 79.5977 0.914062C79.6289 1.00781 79.6406 1.09375 79.6328 1.17188C79.625 1.24219 79.582 1.31641 79.5039 1.39453C79.5508 1.44141 79.5859 1.48047 79.6094 1.51172C79.5859 1.75391 79.5391 1.99609 79.4688 2.23828C79.4062 2.47266 79.3438 2.70312 79.2812 2.92969C79.2969 2.94531 79.3125 2.96094 79.3281 2.97656C79.3438 2.99219 79.3594 3.00781 79.375 3.02344C79.2422 3.21094 79.1328 3.39844 79.0469 3.58594C78.9688 3.77344 78.8984 3.97656 78.8359 4.19531C78.8125 4.28125 78.7891 4.37109 78.7656 4.46484C78.75 4.55859 78.7266 4.64453 78.6953 4.72266C78.6562 4.80078 78.6094 4.88672 78.5547 4.98047C78.5 5.06641 78.4531 5.15234 78.4141 5.23828C78.3281 5.41797 78.25 5.60156 78.1797 5.78906C78.1172 5.96875 78.0547 6.15234 77.9922 6.33984C77.9141 6.56641 77.832 6.78906 77.7461 7.00781C77.668 7.22656 77.5703 7.44141 77.4531 7.65234V7.83984C77.4453 7.92578 77.418 7.98828 77.3711 8.02734C77.3242 8.05859 77.2695 8.08984 77.207 8.12109C77.1523 8.14453 77.0977 8.18359 77.043 8.23828C76.9883 8.28516 76.9492 8.36719 76.9258 8.48438V8.49609L76.9375 8.50781C77.0156 8.67969 77.0312 8.83984 76.9844 8.98828C76.9453 9.12891 76.8984 9.26953 76.8438 9.41016C76.7891 9.54297 76.75 9.67578 76.7266 9.80859C76.7109 9.94141 76.7656 10.0781 76.8906 10.2188C76.8828 10.375 76.9141 10.5 76.9844 10.5938C77.0547 10.6797 77.1367 10.7539 77.2305 10.8164C77.3242 10.8789 77.418 10.9375 77.5117 10.9922C77.6133 11.0391 77.6875 11.1016 77.7344 11.1797C77.8125 11.1016 77.8945 11.043 77.9805 11.0039C78.0742 10.957 78.1641 10.9219 78.25 10.8984C78.3438 10.875 78.4336 10.8555 78.5195 10.8398C78.6133 10.8164 78.7031 10.7891 78.7891 10.7578C78.9922 10.7031 79.1328 10.6367 79.2109 10.5586C79.2891 10.4805 79.3281 10.4297 79.3281 10.4062C79.3359 10.2969 79.375 10.2266 79.4453 10.1953C79.5234 10.1641 79.6094 10.1445 79.7031 10.1367C79.8047 10.1211 79.9023 10.1016 79.9961 10.0781C80.0977 10.0547 80.1719 9.99609 80.2188 9.90234C80.3047 9.91016 80.3789 9.88281 80.4414 9.82031C80.5117 9.75 80.5742 9.67969 80.6289 9.60938C80.6836 9.53906 80.7383 9.48047 80.793 9.43359C80.8477 9.38672 80.9062 9.39062 80.9688 9.44531ZM76.1523 7.64062C76.0273 7.54688 75.9414 7.44141 75.8945 7.32422C75.8555 7.19922 75.8203 7.07422 75.7891 6.94922C75.7656 6.82422 75.7305 6.70703 75.6836 6.59766C75.6445 6.48047 75.5625 6.38281 75.4375 6.30469L75.4141 6.29297C75.4062 6.29297 75.3633 6.30078 75.2852 6.31641C75.207 6.33203 75.1602 6.34375 75.1445 6.35156C75.207 6.40625 75.2461 6.45312 75.2617 6.49219C75.2773 6.53125 75.2773 6.57031 75.2617 6.60938C75.2539 6.64844 75.2344 6.69141 75.2031 6.73828C75.1797 6.77734 75.1602 6.82812 75.1445 6.89062C75.1289 6.90625 75.0977 6.90234 75.0508 6.87891C75.0039 6.84766 74.9688 6.82422 74.9453 6.80859C74.8359 6.97266 74.6797 7.08203 74.4766 7.13672C74.2812 7.18359 74.0938 7.23047 73.9141 7.27734C73.9297 7.31641 73.9453 7.35156 73.9609 7.38281C73.9766 7.41406 73.9922 7.44922 74.0078 7.48828C73.7734 7.64453 73.6016 7.83594 73.4922 8.0625C73.3906 8.28125 73.2969 8.51172 73.2109 8.75391C73.1328 8.98828 73.0352 9.21875 72.918 9.44531C72.8086 9.66406 72.6367 9.85156 72.4023 10.0078C72.4414 10.0703 72.4688 10.1328 72.4844 10.1953C72.5 10.2578 72.5508 10.3047 72.6367 10.3359C72.6602 10.4219 72.668 10.5117 72.6602 10.6055C72.6602 10.6914 72.6523 10.7773 72.6367 10.8633C72.6211 10.9492 72.6094 11.0391 72.6016 11.1328C72.6016 11.2188 72.6133 11.3086 72.6367 11.4023L72.6602 11.4258C72.9023 11.5117 73.0898 11.5195 73.2227 11.4492C73.3633 11.3789 73.4844 11.2891 73.5859 11.1797C73.6953 11.0703 73.8125 10.9688 73.9375 10.875C74.0625 10.7812 74.2383 10.7578 74.4648 10.8047L74.5117 10.7344C74.4961 10.6953 74.4844 10.6602 74.4766 10.6289C74.4688 10.5977 74.4648 10.5625 74.4648 10.5234C74.4727 10.4375 74.4961 10.3711 74.5352 10.3242C74.5742 10.2695 74.625 10.2109 74.6875 10.1484C74.7422 10.0859 74.793 10.0195 74.8398 9.94922C74.8945 9.87891 74.9453 9.80469 74.9922 9.72656C75.0391 9.65625 75.0938 9.59766 75.1562 9.55078C75.2188 9.49609 75.3008 9.48828 75.4023 9.52734L75.625 8.68359C75.6328 8.64453 75.668 8.60938 75.7305 8.57812C75.8008 8.54688 75.8594 8.51172 75.9062 8.47266C75.9609 8.43359 75.9922 8.38281 76 8.32031C76.0156 8.25781 75.9727 8.17578 75.8711 8.07422C75.8867 8.04297 75.8984 8.00391 75.9062 7.95703C75.9141 7.91016 75.9258 7.86719 75.9414 7.82812C75.957 7.78906 75.9766 7.75781 76 7.73438C76.0234 7.71094 76.0625 7.70703 76.1172 7.72266L76.1523 7.64062ZM85.0469 1.67578C85.0625 1.76172 85.0586 1.85156 85.0352 1.94531C85.0195 2.03906 85 2.13672 84.9766 2.23828C84.9531 2.33203 84.9297 2.42969 84.9062 2.53125C84.8906 2.625 84.8906 2.72266 84.9062 2.82422L84.7188 3.07031L84.8008 3.12891C84.6914 3.17578 84.6172 3.25391 84.5781 3.36328C84.5469 3.47266 84.5234 3.58594 84.5078 3.70312C84.4922 3.82031 84.4648 3.93359 84.4258 4.04297C84.3945 4.14453 84.3203 4.21875 84.2031 4.26562C84.1875 4.45312 84.1406 4.63281 84.0625 4.80469C83.9844 4.97656 83.9023 5.14844 83.8164 5.32031C83.7852 5.36719 83.75 5.41797 83.7109 5.47266C83.6797 5.51953 83.6562 5.56641 83.6406 5.61328C83.6094 5.69922 83.582 5.77734 83.5586 5.84766C83.543 5.91797 83.5156 5.99219 83.4766 6.07031C83.4375 6.16406 83.3906 6.25391 83.3359 6.33984C83.2812 6.41797 83.2305 6.5 83.1836 6.58594C83.168 6.625 83.1523 6.66797 83.1367 6.71484C83.1211 6.76172 83.1016 6.80469 83.0781 6.84375C83.0078 6.98438 82.9375 7.12109 82.8672 7.25391C82.8047 7.37891 82.7656 7.52344 82.75 7.6875C82.6406 7.78125 82.5547 7.89062 82.4922 8.01562C82.4375 8.14062 82.3828 8.26562 82.3281 8.39062C82.2812 8.51562 82.2305 8.63281 82.1758 8.74219C82.1211 8.84375 82.0469 8.92969 81.9531 9C81.8906 8.96875 81.8438 8.92578 81.8125 8.87109C81.7812 8.80859 81.7578 8.74609 81.7422 8.68359C81.7344 8.62109 81.7266 8.55469 81.7188 8.48438C81.7188 8.41406 81.7109 8.35156 81.6953 8.29688C81.8047 8.24219 81.875 8.16797 81.9062 8.07422C81.9375 7.98047 81.9531 7.88281 81.9531 7.78125C81.9531 7.67188 81.9531 7.56641 81.9531 7.46484C81.9609 7.35547 81.9883 7.25781 82.0352 7.17188C82.0586 7.13281 82.082 7.10547 82.1055 7.08984C82.1289 7.07422 82.1562 7.05078 82.1875 7.01953C82.2812 6.93359 82.3555 6.82031 82.4102 6.67969C82.4727 6.53125 82.5273 6.375 82.5742 6.21094C82.6211 6.03906 82.6641 5.87109 82.7031 5.70703C82.75 5.54297 82.8008 5.40234 82.8555 5.28516L83.1133 5.02734L83.0312 4.95703C83.1094 4.84766 83.1719 4.73438 83.2188 4.61719C83.2656 4.49219 83.3125 4.37109 83.3594 4.25391C83.4062 4.13672 83.4648 4.02344 83.5352 3.91406C83.6055 3.80469 83.6992 3.71094 83.8164 3.63281C83.7773 3.46094 83.7695 3.30469 83.793 3.16406C83.8242 3.01562 83.875 2.875 83.9453 2.74219C84.0156 2.60938 84.0977 2.48047 84.1914 2.35547C84.293 2.23047 84.3906 2.10156 84.4844 1.96875C84.4453 1.8125 84.4766 1.68359 84.5781 1.58203C84.625 1.58984 84.6719 1.58594 84.7188 1.57031C84.7656 1.55469 84.8125 1.54297 84.8594 1.53516C84.9062 1.52734 84.9453 1.53125 84.9766 1.54688C85.0078 1.5625 85.0312 1.60547 85.0469 1.67578ZM81.5898 11.1445L81.6484 11.2031C81.6016 11.2578 81.5508 11.3164 81.4961 11.3789C81.4414 11.4414 81.3789 11.5 81.3086 11.5547C81.2461 11.6016 81.1758 11.6406 81.0977 11.6719C81.0273 11.6953 80.9531 11.6953 80.875 11.6719C80.7734 11.6875 80.6797 11.6602 80.5938 11.5898C80.5156 11.5195 80.4805 11.4336 80.4883 11.332C80.4961 11.2305 80.5234 11.1523 80.5703 11.0977C80.625 11.043 80.6758 10.9805 80.7227 10.9102L80.6875 10.8633C80.6875 10.8008 80.6953 10.7578 80.7109 10.7344C80.7266 10.7109 80.7422 10.6719 80.7578 10.6172C80.7812 10.4922 80.8359 10.4023 80.9219 10.3477C81.0156 10.2852 81.1133 10.2578 81.2148 10.2656C81.3242 10.2656 81.4219 10.3008 81.5078 10.3711C81.5938 10.4336 81.6445 10.5234 81.6602 10.6406C81.6836 10.6797 81.6875 10.7266 81.6719 10.7812C81.6641 10.8281 81.6484 10.8711 81.625 10.9102C81.6484 10.9336 81.6914 10.9609 81.7539 10.9922L81.5898 11.1445Z" fill="white"/>
</svg>
