<svg width="750" height="506" viewBox="0 0 750 506" fill="none" xmlns="http://www.w3.org/2000/svg">
<path fill-rule="evenodd" clip-rule="evenodd" d="M252.678 1.08108C233.111 1.93228 216.372 5.82208 202.537 12.7318C187.882 20.0519 178.569 28.3771 169.329 42.4177C162.457 52.8599 158.298 61.1364 151.264 78.3594C143.941 96.2893 143.071 99.846 142.561 113.922C141.973 130.143 143.302 138.631 148.059 149.043C159.003 172.994 184.792 191.424 214.487 196.514C220.5 197.545 233.385 197.544 238.541 196.512C253.215 193.575 273.934 183.276 299.309 166.304C316.859 154.567 328.193 144.25 342.094 127.363C344.942 123.903 349.941 118.174 353.203 114.633C360.527 106.683 363.932 102.42 367.429 96.8282C368.919 94.4443 372.779 89.0923 376.005 84.9352C394.146 61.5573 414.713 32.5249 418.833 24.478C421.531 19.2079 421.311 17.8152 417.353 15.1292L414.937 13.4888L403.429 13.5465L391.922 13.6038L388.306 17.1932C379.777 25.6602 374.281 33.391 365.243 49.6367C358.039 62.5846 353.429 70.1478 347.965 77.983C337.667 92.7483 316.526 122.204 313.166 126.468C305.493 136.205 285.267 155.044 273.047 163.834C262.165 171.662 245.971 179.72 234.972 182.779C230.219 184.102 221.87 183.995 216.355 182.542C210.796 181.077 206.703 179.287 202.165 176.336C190.573 168.798 181.938 155.918 178.011 140.307C175.804 131.533 175.183 119.28 176.493 110.315C179.08 92.6032 189.092 63.8008 198.265 47.6836C205.087 35.6959 215.384 25.9029 226.954 20.3985C233.975 17.0582 243.839 14.228 248.516 14.2123C253.086 14.1966 263.051 18.1886 270.3 22.939C274.849 25.9194 276.157 26.9654 284.171 34.0228C292.088 40.9945 297.052 44.7629 302.569 47.9874C304.919 49.3614 311.437 53.5622 317.052 57.323C326.929 63.9378 338.485 70.4207 339.895 70.1372C340.258 70.0642 341.688 68.1904 343.074 65.9733C344.46 63.7562 346.796 60.3175 348.266 58.3316C354.02 50.5546 354.189 49.6176 350.78 44.373C349.505 42.4113 348.531 40.7378 348.615 40.6533C348.698 40.5689 350.03 40.7662 351.574 41.0917C353.117 41.4167 354.38 41.5274 354.38 41.3369C354.38 40.8074 346.742 36.026 341.298 33.1478C339.325 32.1048 331.919 27.1118 324.84 22.0526C311.595 12.5863 307.831 10.3569 299.748 7.19095C290.29 3.48658 281.366 1.69423 269.164 1.04925C264.855 0.821391 261.044 0.662693 260.696 0.697063C260.348 0.731434 256.74 0.904134 252.678 1.08108ZM392.36 78.0059C392.36 78.7833 395.318 83.2867 400.481 90.3687C403.954 95.1326 407.286 100.25 408.632 102.886C411.189 107.896 413.857 111.596 421.789 121.136C436.709 139.078 449.328 150.802 462.777 159.214C472.238 165.133 485.955 172.384 490.629 173.937C496.685 175.951 514.577 179.599 521.914 180.316C525.081 180.626 545.771 179.894 552.26 179.243C558.076 178.659 558.38 178.479 558.067 175.815C557.715 172.829 555.898 169.729 552.609 166.502C551.038 164.961 548.759 162.381 547.545 160.768C542.486 154.051 541.074 152.453 539.144 151.259C538.027 150.568 536.421 149.033 535.574 147.848C534.489 146.329 533.903 145.827 533.587 146.145C532.672 147.065 531.99 146.507 529.618 142.902C527.957 140.378 526.855 139.123 526.134 138.937C525.554 138.787 523.465 139.017 521.492 139.448C519.519 139.878 515.816 140.35 513.263 140.496C495.906 141.489 468.83 133.017 449.019 120.395C438.098 113.436 425.009 104.822 423.763 103.774C419.185 99.9173 412.62 94.0102 408.818 90.3262C405.371 86.9859 403.623 85.6463 400.947 84.2936C398.977 83.2977 396.407 81.5308 394.933 80.159C393.518 78.841 392.36 77.8723 392.36 78.0059ZM580.046 136.425C576.661 137.018 575.508 139.267 575.508 145.271C575.508 156.741 579.214 164.354 586.058 166.945C586.87 167.252 587.869 167.882 588.276 168.345C588.897 169.049 589.418 169.157 591.477 169.007C595.132 168.741 598.022 167.11 602.445 162.816C605.756 159.603 606.348 158.808 606.92 156.808C608.852 150.059 606.708 146.781 597.241 142.014C594.92 140.845 592.261 139.363 591.333 138.72C590.129 137.886 588.858 137.463 586.902 137.245C585.393 137.077 583.589 136.761 582.893 136.543C582.197 136.325 580.915 136.272 580.046 136.425Z" fill="#C4BFBB"/>
<path fill-rule="evenodd" clip-rule="evenodd" d="M661.712 250.567V253.848H692.467H723.222V250.567V247.286H692.467H661.712V250.567ZM43.4838 286.646C32.0804 288.226 20.598 293.161 12.0246 300.165L8.19395 303.294L9.73421 305.639C10.5808 306.928 11.3735 307.984 11.495 307.984C11.6165 307.984 12.7597 307.038 14.0354 305.882C36.5516 285.485 72.5491 287.357 85.6052 309.604C89.3999 316.071 91.1217 324.336 91.4877 337.84L91.7553 347.737L74.5589 348.066C51.076 348.514 41.5835 349.725 30.7777 353.649C21.3786 357.062 15.1256 361.115 9.19662 367.637C2.85407 374.614 0.120117 382.505 0.120117 393.835C0.120117 405.645 2.65104 412.556 9.86223 420.436C13.7424 424.677 15.1556 425.818 19.1478 427.936C26.1774 431.664 31.9734 433.225 40.1092 433.582C62.835 434.578 81.8171 421.804 89.2193 400.534C90.083 398.052 90.9471 396.022 91.1392 396.022C91.3317 396.022 91.6407 399.037 91.8258 402.721C92.2688 411.548 93.6226 428.398 93.9326 428.946C94.0671 429.184 95.2888 429.379 96.6481 429.379C99.5425 429.379 99.3915 430.205 98.2978 420.356C97.6747 414.743 97.4312 403.984 97.1396 369.228C96.8136 330.322 96.6701 324.736 95.9039 321.138C93.9001 311.732 90.9696 305.627 85.6278 299.729C79.9748 293.488 72.5846 289.475 63.1335 287.514C58.0987 286.47 47.981 286.023 43.4838 286.646ZM196.558 286.695C165.484 290.905 143.655 317.355 141.152 353.831C140.099 369.176 142.498 383.259 148.386 396.296C156.916 415.185 172.048 427.994 191.134 432.481C197.083 433.879 211.639 433.874 217.537 432.47C228.024 429.976 236.699 425.395 244.658 418.149C251.391 412.019 256.993 404.081 260.214 396.108C262.902 389.453 263.147 390.301 263.142 406.275C263.133 433.45 261.689 447.888 257.715 460.548C255.729 466.873 254.656 469.458 252.149 473.945C245.26 486.278 235.209 494.421 222.389 498.054C216.162 499.819 203.993 500.447 196.367 499.398C186.577 498.051 176.031 494.146 168.712 489.16C165.218 486.779 159.537 481.973 157.6 479.757C157.171 479.267 156.111 478.153 155.243 477.28L153.666 475.694L151.673 477.663L149.679 479.633L153.507 483.805C157.81 488.495 165.644 494.464 171.451 497.478C180.907 502.384 190.444 504.75 202.703 505.231C222.9 506.024 237.603 500.541 249.158 487.905C258.928 477.223 264.612 462.728 267.714 440.589C268.167 437.352 268.373 417.259 268.506 363.35L268.685 290.485H265.916H263.146V309.351C263.146 330.737 263.04 331.226 259.92 324.133C251.46 304.9 235.478 291.425 216.429 287.465C211.308 286.4 201.529 286.021 196.558 286.695ZM358.805 286.712C352.175 287.556 342.999 290.57 336.908 293.905C333.675 295.676 325.609 301.533 324.633 302.82C324.155 303.45 324.314 304.015 325.432 305.659C326.2 306.787 326.88 307.788 326.942 307.883C327.005 307.978 329.047 306.437 331.482 304.458C336.859 300.089 344.418 295.908 350.216 294.097C372.288 287.203 394.833 295.078 402.596 312.392C406.025 320.042 407.144 326.685 407.16 339.481L407.17 347.738L390.292 348.068C365.386 348.554 354.27 350.176 343.111 354.952C335.863 358.054 330.96 361.355 326.085 366.415C319.24 373.519 316.341 380.408 315.8 390.855C315.137 403.668 318.376 413.336 325.971 421.213C331.481 426.927 338.427 430.589 347.755 432.697C354.796 434.289 364.605 433.967 371.854 431.904C382.036 429.009 392.214 422.094 397.952 414.176C400.338 410.883 404.727 401.863 405.737 398.18C406.714 394.612 407.409 395.906 407.537 401.535C407.673 407.464 409.079 426.998 409.473 428.422C409.683 429.182 410.303 429.379 412.488 429.379C414.877 429.379 415.203 429.253 414.969 428.422C414.821 427.896 414.326 423.651 413.869 418.989C413.207 412.231 412.969 401.761 412.694 367.314C412.364 325.817 412.309 323.953 411.307 320.014C409.133 311.47 407.104 306.926 403.19 301.828C399.842 297.468 396.945 295.076 391.417 292.107C382.264 287.191 370.425 285.232 358.805 286.712ZM524.333 286.712C509.477 288.603 494.695 297.037 485.433 308.906C482.043 313.25 478.411 319.393 475.876 325.072C473.3 330.843 473.181 330.146 473.181 309.351V290.485H470.429H467.677L467.803 396.432L467.93 502.38L470.555 502.545L473.181 502.711V447.452C473.181 400.615 473.287 392.195 473.876 392.195C474.259 392.195 474.952 393.241 475.415 394.519C476.682 398.016 480.57 405.241 482.845 408.326C492.026 420.776 504.307 429.025 518.79 432.47C524.681 433.872 539.248 433.879 545.169 432.484C561.738 428.58 575.521 418.342 584.318 403.404C589.36 394.842 593.025 384.193 594.477 373.881C595.73 364.989 595.271 348.743 593.544 340.793C590.244 325.609 584.533 314.278 575.312 304.615C570.36 299.427 566.51 296.576 559.515 292.916C548.866 287.345 536.494 285.164 524.333 286.712ZM683.254 286.723C674.888 287.783 665.864 291.398 658.211 296.753C653.536 300.025 645.234 309.106 641.945 314.546C632.732 329.784 628.814 348.524 630.684 368.41C633.801 401.567 651.84 425.402 678.965 432.204C684.641 433.628 696.664 434.155 702.866 433.252C713.742 431.67 723.226 427.628 731.163 421.192C735.461 417.708 741.784 411.154 743.576 408.325L744.616 406.685L742.508 404.679L740.399 402.673L738.198 405.691C731.206 415.272 719.991 423.206 709.369 426.086C693.431 430.407 677.249 428.187 664.673 419.951C647.601 408.77 637.768 389.079 636.002 362.529L635.721 358.291H692.8H749.88L749.576 350.773C748.779 331.043 742.959 315.459 731.843 303.297C720.224 290.583 701.957 284.353 683.254 286.723ZM212.022 292.142C220.321 293.28 229.327 297.102 236.892 302.696C241.314 305.968 249.154 314.736 252.129 319.74C259.21 331.649 262.545 343.227 262.998 357.471C263.409 370.435 261.364 380.902 256.159 392.468C244.353 418.704 220.968 432.3 195.009 428.021C183.923 426.195 174.109 420.903 165.804 412.277C156.865 402.992 151.086 391.293 148.051 376.337C146.516 368.772 146.377 353.036 147.781 345.715C152.042 323.486 163.051 306.812 179.329 297.931C189.166 292.564 200.483 290.56 212.022 292.142ZM540.692 292.373C554.171 294.608 565 301.23 574.723 313.183C581.054 320.967 586.393 333.67 588.51 345.988C589.897 354.057 589.776 368.54 588.256 376.313C583.297 401.683 568.167 420.146 547.193 426.423C540.719 428.36 528.208 428.876 521.439 427.486C504.03 423.909 489.038 411.516 480.734 393.835C475.662 383.038 473.756 374.987 473.355 362.666C472.933 349.682 474.847 339.349 479.684 328.49C483.06 320.912 485.71 316.708 490.666 311.074C500.253 300.174 510.878 294.284 525.189 291.933C528.282 291.425 536.357 291.654 540.692 292.373ZM703.903 293.19C708.759 294.398 714.745 297.038 719.061 299.874C723.203 302.595 729.275 308.547 732.192 312.743C735.781 317.907 740.428 328.444 741.91 334.778C743.057 339.682 744.221 348.001 744.224 351.319L744.226 352.823H690.217H636.208L636.225 350.773C636.277 344.702 639.149 333.295 642.487 325.907C645.748 318.69 648.938 313.773 653.961 308.225C662.351 298.957 671.427 293.807 682.34 292.124C687.305 291.359 698.834 291.928 703.903 293.19ZM91.4822 364.99C91.1872 377.421 90.0935 386.331 88.0671 392.821C82.1072 411.908 69.9121 424.083 53.3489 427.485C46.5393 428.883 35.3969 428.384 29.3759 426.411C17.9221 422.656 9.92674 414.857 6.97825 404.564C6.0666 401.381 5.86657 399.422 5.88407 393.835C5.91757 383.017 8.14944 376.783 14.401 370.048C22.1258 361.726 34.2948 356.65 51.1095 354.736C60.3571 353.682 62.0814 353.602 78.3105 353.476L91.7583 353.37L91.4822 364.99ZM407.039 365.537C406.77 378.557 406.032 384.711 403.807 392.468C398.839 409.79 387.501 422.167 372.414 426.738C368.948 427.788 367.178 427.95 359.162 427.95C351.15 427.95 349.375 427.788 345.91 426.739C339.134 424.688 333.938 421.521 329.609 416.802C323.596 410.248 321.477 404.177 321.5 393.562C321.521 383.789 323.702 377.496 329.305 371.047C338.202 360.804 351.819 355.626 374.164 353.986C377.602 353.734 386.462 353.492 393.852 353.449L407.289 353.37L407.039 365.537Z" fill="#C4BFBB"/>
</svg>
