<svg width="750" height="718" viewBox="0 0 750 718" fill="none" xmlns="http://www.w3.org/2000/svg">
<path fill-rule="evenodd" clip-rule="evenodd" d="M187.707 0.790464C157.748 2.09378 132.117 8.04964 110.935 18.6295C88.4949 29.8376 74.2358 42.5848 60.0878 64.083C49.5659 80.0717 43.1969 92.7442 32.4269 119.115C21.215 146.569 19.8827 152.014 19.1015 173.567C18.202 198.404 20.2367 211.4 27.5207 227.342C44.2766 264.016 83.7638 292.234 129.231 300.028C138.439 301.606 158.167 301.604 166.061 300.024C188.53 295.528 220.254 279.758 259.106 253.772C285.978 235.8 303.332 220.004 324.616 194.147C328.977 188.849 336.632 180.078 341.627 174.655C352.84 162.482 358.055 155.956 363.408 147.394C365.691 143.744 371.6 135.549 376.539 129.184C404.316 93.3887 435.807 48.9357 442.115 36.6147C446.247 28.5453 445.91 26.413 439.85 22.3003L436.15 19.7886L418.531 19.8769L400.911 19.9646L395.375 25.4605C382.315 38.4248 373.901 50.2618 360.061 75.1365C349.032 94.9617 341.973 106.542 333.606 118.539C317.838 141.147 285.468 186.247 280.323 192.776C268.575 207.686 237.607 236.53 218.896 249.99C202.233 261.976 177.438 274.313 160.597 278.998C153.32 281.022 140.535 280.859 132.091 278.634C123.581 276.391 117.313 273.65 110.364 269.131C92.6147 257.59 79.3946 237.869 73.3809 213.966C70.0016 200.533 69.0518 181.771 71.0567 168.045C75.0183 140.925 90.3481 96.8237 104.393 72.1459C114.839 53.791 130.604 38.7964 148.32 30.3684C159.07 25.2539 174.174 20.9203 181.335 20.8963C188.332 20.8723 203.59 26.9847 214.69 34.2582C221.655 38.8217 223.658 40.4233 235.929 51.2292C248.05 61.9039 255.651 67.6739 264.099 72.6111C267.697 74.7148 277.676 81.1469 286.274 86.9053C301.397 97.0336 319.091 106.96 321.249 106.526C321.805 106.414 323.996 103.545 326.118 100.15C328.239 96.7555 331.817 91.4903 334.066 88.4496C342.878 76.5418 343.136 75.1072 337.917 67.0769C335.965 64.0733 334.472 61.5108 334.601 61.3815C334.729 61.2522 336.768 61.5543 339.132 62.0527C341.494 62.5503 343.428 62.7199 343.428 62.4282C343.428 61.6174 331.734 54.2965 323.398 49.8895C320.377 48.2925 309.037 40.6474 298.198 32.901C277.918 18.4066 272.155 14.9931 259.779 10.1456C245.297 4.47366 231.634 1.72929 212.95 0.741736C206.352 0.392843 200.517 0.149853 199.984 0.202479C199.451 0.255105 193.926 0.519536 187.707 0.790464ZM401.581 118.574C401.581 119.764 406.111 126.66 414.016 137.503C419.334 144.797 424.436 152.633 426.496 156.67C430.412 164.34 434.497 170.005 446.642 184.612C469.486 212.084 488.809 230.035 509.401 242.916C523.886 251.978 544.889 263.081 552.046 265.459C561.32 268.542 588.715 274.128 599.948 275.226C604.797 275.701 636.477 274.58 646.412 273.582C655.317 272.688 655.784 272.413 655.303 268.334C654.765 263.763 651.983 259.016 646.946 254.074C644.542 251.716 641.053 247.765 639.192 245.295C631.446 235.01 629.286 232.564 626.33 230.735C624.62 229.677 622.161 227.327 620.864 225.513C619.202 223.187 618.306 222.418 617.822 222.905C616.421 224.313 615.376 223.459 611.745 217.94C609.202 214.074 607.514 212.153 606.41 211.868C605.521 211.639 602.323 211.991 599.302 212.65C596.281 213.309 590.611 214.032 586.702 214.256C560.126 215.776 518.668 202.805 488.335 183.478C471.613 172.823 451.572 159.634 449.665 158.028C442.654 152.124 432.602 143.079 426.781 137.438C421.503 132.324 418.827 130.273 414.729 128.201C411.713 126.676 407.779 123.971 405.522 121.871C403.355 119.853 401.581 118.369 401.581 118.574ZM688.957 208.022C683.775 208.931 682.009 212.374 682.009 221.568C682.009 239.128 687.683 250.786 698.162 254.753C699.406 255.224 700.935 256.188 701.559 256.897C702.51 257.975 703.308 258.14 706.46 257.911C712.056 257.504 716.481 255.005 723.254 248.431C728.322 243.511 729.229 242.294 730.105 239.232C733.064 228.898 729.78 223.879 715.285 216.58C711.731 214.79 707.661 212.52 706.239 211.536C704.396 210.259 702.45 209.612 699.455 209.278C697.145 209.02 694.382 208.537 693.316 208.204C692.25 207.87 690.288 207.788 688.957 208.022Z" fill="#C4BFBB"/>
<path fill-rule="evenodd" clip-rule="evenodd" d="M661.712 354.492V357.773H692.467H723.222V354.492V351.211H692.467H661.712V354.492ZM43.4838 390.571C32.0804 392.151 20.598 397.086 12.0246 404.089L8.19395 407.219L9.73421 409.564C10.5808 410.853 11.3735 411.908 11.495 411.908C11.6165 411.908 12.7597 410.963 14.0354 409.807C36.5516 389.409 72.5491 391.282 85.6052 413.529C89.3999 419.996 91.1217 428.261 91.4877 441.765L91.7553 451.662L74.5589 451.991C51.076 452.439 41.5835 453.65 30.7777 457.574C21.3786 460.987 15.1256 465.04 9.19662 471.562C2.85407 478.538 0.120117 486.43 0.120117 497.76C0.120117 509.57 2.65104 516.481 9.86223 524.361C13.7424 528.602 15.1556 529.743 19.1478 531.86C26.1774 535.589 31.9734 537.15 40.1092 537.506C62.835 538.503 81.8171 525.729 89.2193 504.458C90.083 501.977 90.9471 499.947 91.1392 499.947C91.3317 499.947 91.6407 502.962 91.8258 506.646C92.2688 515.473 93.6226 532.322 93.9326 532.871C94.0671 533.109 95.2888 533.303 96.6481 533.303C99.5425 533.303 99.3915 534.13 98.2978 524.281C97.6747 518.668 97.4312 507.908 97.1396 473.153C96.8136 434.247 96.6701 428.66 95.9039 425.063C93.9001 415.657 90.9696 409.552 85.6278 403.654C79.9748 397.413 72.5846 393.4 63.1335 391.439C58.0987 390.395 47.981 389.948 43.4838 390.571ZM196.558 390.619C165.484 394.83 143.655 421.28 141.152 457.756C140.099 473.101 142.498 487.184 148.386 500.221C156.916 519.11 172.048 531.918 191.134 536.406C197.083 537.804 211.639 537.798 217.537 536.395C228.024 533.901 236.699 529.32 244.658 522.074C251.391 515.944 256.993 508.006 260.214 500.033C262.902 493.378 263.147 494.226 263.142 510.2C263.133 537.375 261.689 551.813 257.715 564.473C255.729 570.798 254.656 573.382 252.149 577.87C245.26 590.203 235.209 598.346 222.389 601.979C216.162 603.744 203.993 604.372 196.367 603.323C186.577 601.975 176.031 598.071 168.712 593.085C165.218 590.704 159.537 585.898 157.6 583.682C157.171 583.192 156.111 582.078 155.243 581.205L153.666 579.619L151.673 581.588L149.679 583.558L153.507 587.73C157.81 592.42 165.644 598.389 171.451 601.402C180.907 606.308 190.444 608.675 202.703 609.156C222.9 609.949 237.603 604.466 249.158 591.83C258.928 581.147 264.612 566.653 267.714 544.513C268.167 541.277 268.373 521.184 268.506 467.274L268.685 394.41H265.916H263.146V413.276C263.146 434.662 263.04 435.151 259.92 428.058C251.46 408.824 235.478 395.35 216.429 391.39C211.308 390.325 201.529 389.946 196.558 390.619ZM358.805 390.636C352.175 391.481 342.999 394.495 336.908 397.83C333.675 399.601 325.609 405.458 324.633 406.745C324.155 407.375 324.314 407.94 325.432 409.583C326.2 410.711 326.88 411.713 326.942 411.808C327.005 411.902 329.047 410.361 331.482 408.383C336.859 404.014 344.418 399.833 350.216 398.022C372.288 391.127 394.833 399.002 402.596 416.317C406.025 423.966 407.144 430.61 407.16 443.406L407.17 451.663L390.292 451.993C365.386 452.479 354.27 454.101 343.111 458.877C335.863 461.979 330.96 465.28 326.085 470.34C319.24 477.444 316.341 484.333 315.8 494.78C315.137 507.593 318.376 517.261 325.971 525.138C331.481 530.852 338.427 534.514 347.755 536.622C354.796 538.214 364.605 537.891 371.854 535.829C382.036 532.933 392.214 526.019 397.952 518.101C400.338 514.808 404.727 505.788 405.737 502.105C406.714 498.537 407.409 499.831 407.537 505.46C407.673 511.389 409.079 530.923 409.473 532.347C409.683 533.107 410.303 533.303 412.488 533.303C414.877 533.303 415.203 533.178 414.969 532.347C414.821 531.821 414.326 527.576 413.869 522.914C413.207 516.156 412.969 505.686 412.694 471.239C412.364 429.742 412.309 427.878 411.307 423.939C409.133 415.394 407.104 410.85 403.19 405.753C399.842 401.392 396.945 399.001 391.417 396.032C382.264 391.116 370.425 389.157 358.805 390.636ZM524.333 390.636C509.477 392.528 494.695 400.962 485.433 412.83C482.043 417.174 478.411 423.318 475.876 428.997C473.3 434.767 473.181 434.071 473.181 413.276V394.41H470.429H467.677L467.803 500.357L467.93 606.305L470.555 606.47L473.181 606.635V551.377C473.181 504.54 473.287 496.119 473.876 496.119C474.259 496.119 474.952 497.166 475.415 498.443C476.682 501.94 480.57 509.166 482.845 512.251C492.026 524.701 504.307 532.95 518.79 536.395C524.681 537.797 539.248 537.804 545.169 536.409C561.738 532.505 575.521 522.266 584.318 507.329C589.36 498.767 593.025 488.118 594.477 477.806C595.729 468.914 595.271 452.668 593.544 444.718C590.244 429.534 584.533 418.202 575.312 408.54C570.36 403.352 566.51 400.501 559.515 396.841C548.866 391.27 536.494 389.088 524.333 390.636ZM683.254 390.648C674.888 391.708 665.864 395.323 658.211 400.678C653.536 403.949 645.234 413.031 641.945 418.47C632.732 433.709 628.814 452.448 630.684 472.335C633.801 505.491 651.84 529.326 678.965 536.129C684.641 537.552 696.664 538.079 702.866 537.177C713.742 535.595 723.226 531.553 731.163 525.117C735.461 521.633 741.784 515.078 743.576 512.25L744.616 510.61L742.508 508.604L740.399 506.598L738.198 509.616C731.206 519.197 719.991 527.13 709.369 530.011C693.431 534.332 677.249 532.111 664.673 523.876C647.601 512.695 637.768 493.004 636.002 466.454L635.721 462.216H692.8H749.88L749.576 454.697C748.779 434.968 742.959 419.384 731.843 407.222C720.224 394.508 701.957 388.277 683.254 390.648ZM212.022 396.067C220.321 397.205 229.327 401.027 236.892 406.621C241.314 409.892 249.154 418.661 252.129 423.665C259.21 435.574 262.545 447.151 262.998 461.396C263.409 474.36 261.364 484.827 256.159 496.393C244.353 522.629 220.968 536.225 195.009 531.946C183.923 530.119 174.109 524.828 165.804 516.202C156.865 506.917 151.086 495.218 148.051 480.262C146.516 472.697 146.377 456.961 147.781 449.639C152.042 427.411 163.051 410.737 179.329 401.856C189.166 396.489 200.483 394.485 212.022 396.067ZM540.692 396.298C554.171 398.533 565 405.155 574.723 417.108C581.054 424.892 586.393 437.594 588.51 449.913C589.897 457.982 589.776 472.465 588.256 480.238C583.297 505.608 568.167 524.07 547.193 530.347C540.719 532.285 528.208 532.801 521.439 531.41C504.03 527.834 489.038 515.44 480.734 497.76C475.662 486.963 473.756 478.911 473.355 466.591C472.933 453.607 474.847 443.274 479.684 432.414C483.06 424.836 485.71 420.633 490.666 414.999C500.253 404.099 510.878 398.208 525.189 395.858C528.282 395.35 536.357 395.579 540.692 396.298ZM703.903 397.115C708.759 398.323 714.745 400.963 719.061 403.799C723.203 406.52 729.275 412.472 732.192 416.667C735.781 421.832 740.428 432.369 741.91 438.703C743.057 443.607 744.221 451.926 744.224 455.244L744.226 456.748H690.217H636.208L636.225 454.697C636.277 448.627 639.149 437.22 642.487 429.832C645.748 422.615 648.938 417.698 653.961 412.15C662.351 402.881 671.427 397.732 682.34 396.049C687.305 395.283 698.834 395.853 703.903 397.115ZM91.4822 468.915C91.1872 481.346 90.0935 490.256 88.0671 496.746C82.1072 515.832 69.9121 528.008 53.3489 531.41C46.5393 532.808 35.3969 532.309 29.3759 530.335C17.9221 526.581 9.92674 518.782 6.97825 508.489C6.0666 505.306 5.86657 503.347 5.88407 497.76C5.91757 486.942 8.14944 480.708 14.401 473.973C22.1258 465.651 34.2948 460.575 51.1095 458.66C60.3571 457.607 62.0814 457.527 78.3105 457.4L91.7583 457.295L91.4822 468.915ZM407.039 469.462C406.77 482.482 406.032 488.636 403.807 496.393C398.839 513.715 387.501 526.092 372.414 530.663C368.948 531.713 367.178 531.875 359.162 531.875C351.15 531.875 349.375 531.713 345.91 530.664C339.134 528.613 333.938 525.446 329.609 520.727C323.596 514.173 321.477 508.101 321.5 497.486C321.521 487.714 323.702 481.421 329.305 474.972C338.202 464.729 351.819 459.551 374.164 457.911C377.602 457.659 386.462 457.417 393.852 457.374L407.289 457.295L407.039 469.462ZM424.485 677.467C419.667 679.084 415.579 682.946 413.276 688.055C412.051 690.774 411.921 691.64 411.921 697.089C411.921 702.795 412.008 703.31 413.561 706.76C415.571 711.224 419.111 714.867 423.072 716.547C428.152 718.702 437.068 718.011 442.294 715.056L443.676 714.275V705.266V696.257H437.675H431.674V698.171V700.085H435.925H440.175V706.055V712.025L437.8 713.027C436.096 713.746 434.082 714.029 430.674 714.029C426.347 714.029 425.685 713.885 423.256 712.414C418.295 709.408 415.519 704.133 415.492 697.654C415.47 692.535 416.69 688.758 419.451 685.4C422.543 681.64 425.465 680.213 430.174 680.165C434.188 680.123 436.374 680.821 439.1 683.017L440.775 684.366L442.04 682.984L443.304 681.601L441.158 679.901C439.977 678.966 437.883 677.835 436.502 677.386C433.343 676.361 427.666 676.398 424.485 677.467ZM554.344 677.559C549.132 679.591 546.016 682.764 543.502 688.602C542.137 691.772 541.976 692.688 542.003 697.077C542.046 703.896 543.342 707.453 547.399 711.89C551.42 716.286 554.74 717.749 560.695 717.749C566.141 717.749 569.686 716.325 573.343 712.671C583.109 702.911 580.748 684.674 568.916 678.473C564.99 676.416 558.345 675.999 554.344 677.559ZM85.6167 697.351V717.037H92.0128C99.4135 717.037 103.495 716.109 106.12 713.83C108.786 711.516 109.706 709.172 109.503 705.209C109.286 700.983 107.676 698.429 104.356 697.042L102.074 696.09L103.972 694.943C106.595 693.359 108.354 689.479 107.912 686.254C107.421 682.674 105.957 680.521 102.986 679.008C100.587 677.787 99.7536 677.676 92.993 677.671L85.6167 677.665V697.351ZM122.123 677.944C122.123 678.096 125.048 683.102 128.624 689.066L135.125 699.911V708.474V717.037H136.875H138.626L138.627 708.698L138.628 700.358L145.022 689.695C148.539 683.831 151.589 678.725 151.801 678.349C152.087 677.842 151.629 677.667 150.032 677.671L147.877 677.678L142.626 686.961C139.738 692.067 137.263 696.246 137.125 696.247C136.988 696.249 134.514 692.068 131.629 686.957L126.383 677.665H124.253C123.081 677.665 122.123 677.79 122.123 677.944ZM180.025 696.386C175.978 706.691 172.522 715.553 172.345 716.08C172.074 716.889 172.329 717.037 173.999 717.037H175.975L177.895 711.842L179.815 706.647H189.166H198.517L200.38 711.432C201.404 714.064 202.414 716.418 202.624 716.664C202.833 716.91 203.796 717.033 204.764 716.937L206.524 716.763L198.899 697.351L191.274 677.939L189.329 677.794L187.384 677.649L180.025 696.386ZM220.139 697.351V717.037H222.132H224.125L224.258 700.231L224.39 683.425L234.697 700.094L245.004 716.763L247.324 716.93L249.644 717.097V697.381V677.665H247.901H246.158L246.025 694.376L245.893 711.088L235.489 694.376L225.085 677.665H222.612H220.139V697.351ZM267.647 697.384V717.103L269.522 716.933L271.397 716.763L271.647 700.187L271.898 683.61L282.155 700.187L292.413 716.763L294.782 716.93L297.152 717.097V697.381V677.665H295.408H293.666L293.533 694.428L293.401 711.191L282.931 694.428L272.462 677.665H270.054H267.647V697.384ZM318.778 696.918C314.583 707.532 311.151 716.401 311.152 716.626C311.153 716.852 311.998 717.037 313.029 717.036H314.905L316.841 711.841L318.777 706.647H328.137H337.497L339.471 711.705L341.446 716.763L343.515 716.929L345.584 717.096L337.907 697.517L330.232 677.939L328.319 677.779L326.407 677.62L318.778 696.918ZM374.052 696.38C370.002 706.688 366.546 715.553 366.372 716.08C366.106 716.887 366.363 717.037 368.018 717.037H369.981L371.901 711.842L373.821 706.647H383.2H392.579L394.466 711.624C395.504 714.362 396.628 716.717 396.963 716.858C397.299 716.998 398.239 717.035 399.052 716.938L400.531 716.763L392.925 697.351L385.318 677.939L383.367 677.788L381.416 677.637L374.052 696.38ZM465.435 696.394C461.363 706.695 457.922 715.57 457.788 716.117C457.578 716.972 457.813 717.087 459.466 716.937C461.384 716.764 461.395 716.748 463.34 711.705L465.291 706.647H474.659H484.026L485.946 711.842L487.866 717.037H489.775C490.825 717.037 491.684 716.852 491.685 716.626C491.686 716.401 488.285 707.543 484.127 696.941L476.567 677.665H474.702H472.837L465.435 696.394ZM505.686 697.303V717.037H507.424H509.163L509.3 707.877L509.437 698.718L515.188 698.422C518.765 698.238 521.603 697.804 522.697 697.273C529.507 693.969 530.035 683.321 523.589 679.285C521.6 678.039 520.85 677.925 513.562 677.754L505.686 677.569V697.303ZM590.879 678.858C591.047 679.556 594.065 688.369 597.587 698.445L603.991 716.763L605.972 716.919L607.953 717.073L614.783 697.506L621.613 677.939L619.834 677.764C618.809 677.664 617.896 677.873 617.678 678.26C617.47 678.628 614.881 686.089 611.925 694.839C608.969 703.589 606.411 710.925 606.242 711.141C606.073 711.357 603.345 703.975 600.181 694.737L594.428 677.939L592.502 677.765C590.704 677.603 590.595 677.676 590.879 678.858ZM637.45 696.394C633.384 706.695 629.948 715.57 629.815 716.117C629.606 716.971 629.842 717.087 631.495 716.937C633.412 716.764 633.424 716.748 635.369 711.705L637.319 706.647H646.687H656.055L657.974 711.842L659.894 717.037H661.803C662.853 717.037 663.713 716.852 663.714 716.626C663.715 716.401 660.313 707.543 656.155 696.941L648.596 677.665H646.719H644.844L637.45 696.394ZM566.487 681.203C569.717 682.678 572.082 685.204 573.792 689.003C575.194 692.117 575.423 693.202 575.428 696.764C575.436 702.585 574.207 706.161 570.991 709.677C565.422 715.767 556.675 715.978 550.765 710.167C547.176 706.64 545.942 703.259 545.985 697.077C546.023 691.701 546.896 688.731 549.395 685.484C553.226 680.505 560.805 678.607 566.487 681.203ZM99.7121 681.512C105.304 683.211 105.746 691.835 100.356 694.075C99.6396 694.373 96.8181 694.617 94.0856 694.617H89.1173V687.781V680.946L93.493 680.949C95.8999 680.951 98.6984 681.204 99.7121 681.512ZM521.525 682.282C522.397 682.852 523.384 683.877 523.718 684.56C524.582 686.326 524.47 689.967 523.5 691.584C521.884 694.28 520.396 694.865 514.592 695.082L509.187 695.284V688.055V680.825L514.563 681.035C518.7 681.197 520.304 681.484 521.525 682.282ZM193.26 692.566L197.022 702.546L189.507 702.697C185.374 702.78 181.879 702.724 181.74 702.571C181.433 702.237 188.755 682.608 189.191 682.596C189.36 682.59 191.191 687.078 193.26 692.566ZM332.203 692.566L335.961 702.546L332.059 702.704C329.913 702.792 326.401 702.792 324.255 702.704L320.353 702.546L324.111 692.566C326.178 687.078 327.999 682.587 328.157 682.587C328.315 682.587 330.136 687.078 332.203 692.566ZM384.073 684.09C384.35 684.918 386.048 689.47 387.847 694.207L391.118 702.819H383.206H375.294L379.105 692.709C381.201 687.148 383.062 682.595 383.242 682.593C383.421 682.589 383.795 683.263 384.073 684.09ZM478.63 692.45C480.664 697.864 482.214 702.419 482.075 702.571C481.936 702.724 478.443 702.78 474.312 702.697L466.803 702.546L470.568 692.566C472.64 687.078 474.469 682.59 474.633 682.596C474.797 682.601 476.595 687.035 478.63 692.45ZM650.648 692.461C652.677 697.881 654.227 702.436 654.094 702.583C653.96 702.729 650.469 702.78 646.336 702.697L638.821 702.546L642.583 692.566C644.652 687.078 646.483 682.59 646.652 682.595C646.821 682.6 648.619 687.04 650.648 692.461ZM102.205 699.132C105.799 700.818 107.191 705.868 105.032 709.381C103.153 712.439 100.93 713.307 94.7237 713.401L89.3674 713.482L89.2283 705.621L89.0893 697.759L94.7292 698.014C98.2703 698.175 101.052 698.591 102.205 699.132Z" fill="#C4BFBB"/>
</svg>
